NotoAmalgamated-DisplayRegular.ufo
<glyph name="exclam" format="2">
  <advance width="255"/>
  <unicode hex="0021"/>
  <outline>
    <contour>
      <point x="162" y="201" type="line"/>
      <point x="180" y="714" type="line"/>
      <point x="75" y="714" type="line"/>
      <point x="92" y="201" type="line"/>
    </contour>
    <contour>
      <point x="67" y="54" type="curve" smooth="yes"/>
      <point x="67" y="6"/>
      <point x="93" y="-14"/>
      <point x="127" y="-14" type="curve" smooth="yes"/>
      <point x="159" y="-14"/>
      <point x="187" y="6"/>
      <point x="187" y="54" type="curve" smooth="yes"/>
      <point x="187" y="103"/>
      <point x="159" y="121"/>
      <point x="127" y="121" type="curve" smooth="yes"/>
      <point x="93" y="121"/>
      <point x="67" y="103"/>
    </contour>
  </outline>
</glyph>
<glyph name="exclam.serif" format="2">
  <advance width="333"/>
  <unicode hex="0021"/>
  <outline>
    <contour>
      <point x="159" y="201" type="line"/>
      <point x="174" y="201" type="line"/>
      <point x="224" y="714" type="line"/>
      <point x="108" y="714" type="line"/>
    </contour>
    <contour>
      <point x="166" y="-7" type="curve" smooth="yes"/>
      <point x="202" y="-7"/>
      <point x="220" y="16"/>
      <point x="220" y="61" type="curve" smooth="yes"/>
      <point x="220" y="106"/>
      <point x="202" y="129"/>
      <point x="166" y="129" type="curve" smooth="yes"/>
      <point x="130" y="129"/>
      <point x="112" y="106"/>
      <point x="112" y="61" type="curve" smooth="yes"/>
      <point x="112" y="16"/>
      <point x="130" y="-7"/>
    </contour>
  </outline>
</glyph>
<glyph name="quotedbl" format="2">
  <advance width="388"/>
  <unicode hex="0022"/>
  <outline>
    <contour>
      <point x="153" y="714" type="line"/>
      <point x="61" y="714" type="line"/>
      <point x="80" y="456" type="line"/>
      <point x="134" y="456" type="line"/>
    </contour>
    <contour>
      <point x="327" y="714" type="line"/>
      <point x="235" y="714" type="line"/>
      <point x="253" y="456" type="line"/>
      <point x="308" y="456" type="line"/>
    </contour>
  </outline>
</glyph>
<glyph name="numbersign" format="2">
  <advance width="607"/>
  <unicode hex="0023"/>
  <outline>
    <contour>
      <point x="451" y="436" type="line"/>
      <point x="583" y="436" type="line"/>
      <point x="583" y="502" type="line"/>
      <point x="464" y="502" type="line"/>
      <point x="502" y="714" type="line"/>
      <point x="434" y="714" type="line"/>
      <point x="397" y="502" type="line"/>
      <point x="265" y="502" type="line"/>
      <point x="302" y="714" type="line"/>
      <point x="232" y="714" type="line"/>
      <point x="195" y="502" type="line"/>
      <point x="58" y="502" type="line"/>
      <point x="58" y="436" type="line"/>
      <point x="183" y="436" type="line"/>
      <point x="153" y="276" type="line"/>
      <point x="23" y="276" type="line"/>
      <point x="23" y="209" type="line"/>
      <point x="141" y="209" type="line"/>
      <point x="105" y="0" type="line"/>
      <point x="173" y="0" type="line"/>
      <point x="210" y="209" type="line"/>
      <point x="341" y="209" type="line"/>
      <point x="303" y="0" type="line"/>
      <point x="372" y="0" type="line"/>
      <point x="410" y="209" type="line"/>
      <point x="551" y="209" type="line"/>
      <point x="551" y="276" type="line"/>
      <point x="423" y="276" type="line"/>
    </contour>
    <contour>
      <point x="223" y="276" type="line"/>
      <point x="251" y="436" type="line"/>
      <point x="382" y="436" type="line"/>
      <point x="354" y="276" type="line"/>
    </contour>
  </outline>
</glyph>
<glyph name="dollar" format="2">
  <advance width="537"/>
  <unicode hex="0024"/>
  <outline>
    <contour>
      <point x="238" y="49" type="curve"/>
      <point x="238" y="-58" type="line"/>
      <point x="298" y="-58" type="line"/>
      <point x="298" y="53" type="line"/>
      <point x="419" y="66"/>
      <point x="486" y="127"/>
      <point x="486" y="220" type="curve" smooth="yes"/>
      <point x="486" y="320"/>
      <point x="421" y="357"/>
      <point x="298" y="395" type="curve"/>
      <point x="298" y="596" type="line"/>
      <point x="348" y="592"/>
      <point x="398" y="578"/>
      <point x="439" y="561" type="curve"/>
      <point x="466" y="635" type="line"/>
      <point x="419" y="655"/>
      <point x="365" y="670"/>
      <point x="298" y="672" type="curve"/>
      <point x="298" y="759" type="line"/>
      <point x="238" y="759" type="line"/>
      <point x="238" y="671" type="line"/>
      <point x="127" y="664"/>
      <point x="57" y="606"/>
      <point x="57" y="508" type="curve" smooth="yes"/>
      <point x="57" y="413"/>
      <point x="112" y="364"/>
      <point x="238" y="328" type="curve"/>
      <point x="238" y="126" type="line"/>
      <point x="174" y="127"/>
      <point x="100" y="146"/>
      <point x="57" y="167" type="curve"/>
      <point x="57" y="82" type="line"/>
      <point x="98" y="62"/>
      <point x="167" y="50"/>
    </contour>
    <contour>
      <point x="298" y="131" type="curve"/>
      <point x="298" y="307" type="line"/>
      <point x="377" y="285"/>
      <point x="401" y="264"/>
      <point x="401" y="214" type="curve" smooth="yes"/>
      <point x="401" y="169"/>
      <point x="369" y="139"/>
    </contour>
    <contour>
      <point x="238" y="594" type="curve"/>
      <point x="238" y="417" type="line"/>
      <point x="165" y="437"/>
      <point x="142" y="462"/>
      <point x="142" y="515" type="curve" smooth="yes"/>
      <point x="142" y="559"/>
      <point x="173" y="589"/>
    </contour>
  </outline>
</glyph>
<glyph name="dollar.serif" format="2">
  <advance width="559"/>
  <unicode hex="0024"/>
  <outline>
    <contour>
      <point x="273" y="41" type="curve"/>
      <point x="273" y="-79" type="line"/>
      <point x="283" y="-79" type="line"/>
      <point x="283" y="41" type="line"/>
      <point x="425" y="46"/>
      <point x="489" y="110"/>
      <point x="489" y="211" type="curve" smooth="yes"/>
      <point x="489" y="319"/>
      <point x="417" y="352"/>
      <point x="283" y="414" type="curve"/>
      <point x="283" y="674" type="line"/>
      <point x="358" y="670"/>
      <point x="390" y="613"/>
      <point x="390" y="507" type="curve"/>
      <point x="438" y="507"/>
      <point x="469" y="529"/>
      <point x="469" y="575" type="curve" smooth="yes"/>
      <point x="469" y="644"/>
      <point x="401" y="684"/>
      <point x="283" y="684" type="curve"/>
      <point x="283" y="760" type="line"/>
      <point x="273" y="760" type="line"/>
      <point x="273" y="684" type="line"/>
      <point x="140" y="679"/>
      <point x="83" y="616"/>
      <point x="83" y="521" type="curve" smooth="yes"/>
      <point x="83" y="431"/>
      <point x="131" y="383"/>
      <point x="273" y="322" type="curve"/>
      <point x="273" y="51" type="line"/>
      <point x="174" y="52"/>
      <point x="130" y="117"/>
      <point x="128" y="243" type="curve"/>
      <point x="82" y="243"/>
      <point x="56" y="216"/>
      <point x="56" y="166" type="curve" smooth="yes"/>
      <point x="56" y="85"/>
      <point x="134" y="41"/>
    </contour>
    <contour>
      <point x="283" y="51" type="curve"/>
      <point x="283" y="317" type="line"/>
      <point x="379" y="275"/>
      <point x="407" y="240"/>
      <point x="407" y="177" type="curve" smooth="yes"/>
      <point x="407" y="95"/>
      <point x="360" y="53"/>
    </contour>
    <contour>
      <point x="273" y="674" type="curve"/>
      <point x="273" y="418" type="line"/>
      <point x="186" y="459"/>
      <point x="163" y="492"/>
      <point x="163" y="552" type="curve" smooth="yes"/>
      <point x="163" y="633"/>
      <point x="205" y="674"/>
    </contour>
  </outline>
</glyph>
<glyph name="percent.serif" format="2">
  <advance width="896"/>
  <unicode hex="0025"/>
  <outline>
    <contour>
      <point x="262" y="0" type="line"/>
      <point x="273" y="0" type="line"/>
      <point x="630" y="714" type="line"/>
      <point x="619" y="714" type="line"/>
    </contour>
    <contour>
      <point x="209" y="280" type="curve" smooth="yes"/>
      <point x="319" y="280"/>
      <point x="373" y="369"/>
      <point x="373" y="503" type="curve" smooth="yes"/>
      <point x="373" y="637"/>
      <point x="319" y="724"/>
      <point x="210" y="724" type="curve" smooth="yes"/>
      <point x="94" y="724"/>
      <point x="45" y="637"/>
      <point x="45" y="503" type="curve" smooth="yes"/>
      <point x="45" y="369"/>
      <point x="94" y="280"/>
    </contour>
    <contour>
      <point x="209" y="290" type="curve" smooth="yes"/>
      <point x="156" y="290"/>
      <point x="135" y="350"/>
      <point x="135" y="503" type="curve" smooth="yes"/>
      <point x="135" y="655"/>
      <point x="156" y="714"/>
      <point x="210" y="714" type="curve" smooth="yes"/>
      <point x="262" y="714"/>
      <point x="282" y="655"/>
      <point x="282" y="503" type="curve" smooth="yes"/>
      <point x="282" y="350"/>
      <point x="262" y="290"/>
    </contour>
    <contour>
      <point x="687" y="-10" type="curve" smooth="yes"/>
      <point x="797" y="-10"/>
      <point x="851" y="79"/>
      <point x="851" y="213" type="curve" smooth="yes"/>
      <point x="851" y="347"/>
      <point x="797" y="434"/>
      <point x="688" y="434" type="curve" smooth="yes"/>
      <point x="572" y="434"/>
      <point x="523" y="347"/>
      <point x="523" y="213" type="curve" smooth="yes"/>
      <point x="523" y="79"/>
      <point x="572" y="-10"/>
    </contour>
    <contour>
      <point x="687" y="0" type="curve" smooth="yes"/>
      <point x="634" y="0"/>
      <point x="613" y="60"/>
      <point x="613" y="213" type="curve" smooth="yes"/>
      <point x="613" y="365"/>
      <point x="634" y="424"/>
      <point x="688" y="424" type="curve" smooth="yes"/>
      <point x="740" y="424"/>
      <point x="760" y="365"/>
      <point x="760" y="213" type="curve" smooth="yes"/>
      <point x="760" y="60"/>
      <point x="740" y="0"/>
    </contour>
  </outline>
</glyph>
<glyph name="ampersand" format="2">
  <advance width="690"/>
  <unicode hex="0026"/>
  <outline>
    <contour>
      <point x="286" y="725" type="curve" smooth="yes"/>
      <point x="179" y="725"/>
      <point x="112" y="667"/>
      <point x="112" y="569" type="curve" smooth="yes"/>
      <point x="112" y="496"/>
      <point x="151" y="444"/>
      <point x="192" y="396" type="curve"/>
      <point x="104" y="342"/>
      <point x="49" y="288"/>
      <point x="49" y="186" type="curve" smooth="yes"/>
      <point x="49" y="60"/>
      <point x="131" y="-10"/>
      <point x="263" y="-10" type="curve" smooth="yes"/>
      <point x="365" y="-10"/>
      <point x="433" y="28"/>
      <point x="492" y="84" type="curve"/>
      <point x="571" y="0" type="line"/>
      <point x="688" y="0" type="line"/>
      <point x="550" y="142" type="line"/>
      <point x="598" y="197"/>
      <point x="628" y="271"/>
      <point x="647" y="357" type="curve"/>
      <point x="559" y="357" type="line"/>
      <point x="545" y="294"/>
      <point x="526" y="239"/>
      <point x="494" y="198" type="curve"/>
      <point x="316" y="384" type="line"/>
      <point x="393" y="432"/>
      <point x="451" y="487"/>
      <point x="451" y="571" type="curve" smooth="yes"/>
      <point x="451" y="668"/>
      <point x="387" y="725"/>
    </contour>
    <contour>
      <point x="244" y="341" type="curve"/>
      <point x="437" y="139" type="line"/>
      <point x="398" y="100"/>
      <point x="343" y="68"/>
      <point x="266" y="68" type="curve" smooth="yes"/>
      <point x="190" y="68"/>
      <point x="140" y="116"/>
      <point x="140" y="189" type="curve" smooth="yes"/>
      <point x="140" y="261"/>
      <point x="179" y="298"/>
    </contour>
    <contour>
      <point x="284" y="653" type="curve" smooth="yes"/>
      <point x="333" y="653"/>
      <point x="365" y="619"/>
      <point x="365" y="571" type="curve" smooth="yes"/>
      <point x="365" y="517"/>
      <point x="336" y="481"/>
      <point x="264" y="436" type="curve"/>
      <point x="220" y="485"/>
      <point x="196" y="522"/>
      <point x="196" y="570" type="curve" smooth="yes"/>
      <point x="196" y="622"/>
      <point x="233" y="653"/>
    </contour>
  </outline>
</glyph>
<glyph name="ampersand.serif" format="2">
  <advance width="742"/>
  <unicode hex="0026"/>
  <outline>
    <contour>
      <point x="272" y="-10" type="curve" smooth="yes"/>
      <point x="380" y="-10"/>
      <point x="443" y="33"/>
      <point x="491" y="88" type="curve"/>
      <point x="573" y="0" type="line"/>
      <point x="733" y="0" type="line"/>
      <point x="733" y="10" type="line"/>
      <point x="724" y="10" type="line" smooth="yes"/>
      <point x="694" y="10"/>
      <point x="666" y="30"/>
      <point x="607" y="93" type="curve" smooth="yes"/>
      <point x="538" y="166" type="line"/>
      <point x="561" y="215"/>
      <point x="576" y="262"/>
      <point x="585" y="303" type="curve" smooth="yes"/>
      <point x="604" y="385"/>
      <point x="630" y="411"/>
      <point x="692" y="411" type="curve" smooth="yes"/>
      <point x="701" y="411" type="line"/>
      <point x="701" y="421" type="line"/>
      <point x="521" y="421" type="line"/>
      <point x="521" y="382" type="line" smooth="yes"/>
      <point x="521" y="332"/>
      <point x="516" y="266"/>
      <point x="501" y="205" type="curve"/>
      <point x="306" y="412" type="line"/>
      <point x="441" y="460"/>
      <point x="485" y="507"/>
      <point x="485" y="583" type="curve" smooth="yes"/>
      <point x="485" y="663"/>
      <point x="436" y="724"/>
      <point x="303" y="724" type="curve" smooth="yes"/>
      <point x="175" y="724"/>
      <point x="119" y="665"/>
      <point x="119" y="571" type="curve" smooth="yes"/>
      <point x="119" y="510"/>
      <point x="142" y="464"/>
      <point x="208" y="391" type="curve"/>
      <point x="93" y="349"/>
      <point x="36" y="288"/>
      <point x="36" y="191" type="curve" smooth="yes"/>
      <point x="36" y="76"/>
      <point x="118" y="-10"/>
    </contour>
    <contour>
      <point x="284" y="0" type="curve" smooth="yes"/>
      <point x="181" y="0"/>
      <point x="134" y="60"/>
      <point x="134" y="192" type="curve" smooth="yes"/>
      <point x="134" y="286"/>
      <point x="157" y="341"/>
      <point x="217" y="381" type="curve"/>
      <point x="461" y="120" type="line"/>
      <point x="416" y="34"/>
      <point x="362" y="0"/>
    </contour>
    <contour>
      <point x="297" y="422" type="curve"/>
      <point x="225" y="499"/>
      <point x="207" y="527"/>
      <point x="207" y="593" type="curve" smooth="yes"/>
      <point x="207" y="673"/>
      <point x="239" y="714"/>
      <point x="301" y="714" type="curve" smooth="yes"/>
      <point x="364" y="714"/>
      <point x="397" y="673"/>
      <point x="397" y="581" type="curve" smooth="yes"/>
      <point x="397" y="500"/>
      <point x="373" y="458"/>
    </contour>
  </outline>
</glyph>
<glyph name="parenleft" format="2">
  <advance width="285"/>
  <unicode hex="0028"/>
  <outline>
    <contour>
      <point x="38" y="274" type="curve" smooth="yes"/>
      <point x="38" y="113"/>
      <point x="81" y="-41"/>
      <point x="176" y="-158" type="curve"/>
      <point x="256" y="-158" type="line"/>
      <point x="170" y="-33"/>
      <point x="125" y="120"/>
      <point x="125" y="275" type="curve" smooth="yes"/>
      <point x="125" y="433"/>
      <point x="170" y="589"/>
      <point x="257" y="714" type="curve"/>
      <point x="176" y="714" type="line"/>
      <point x="81" y="593"/>
      <point x="38" y="437"/>
    </contour>
  </outline>
</glyph>
<glyph name="parenright.serif" format="2">
  <advance width="346"/>
  <unicode hex="0029"/>
  <outline>
    <contour>
      <point x="32" y="-118" type="curve"/>
      <point x="32" y="-128" type="line"/>
      <point x="216" y="-55"/>
      <point x="289" y="76"/>
      <point x="289" y="317" type="curve" smooth="yes"/>
      <point x="289" y="557"/>
      <point x="216" y="687"/>
      <point x="32" y="760" type="curve"/>
      <point x="32" y="750" type="line"/>
      <point x="169" y="667"/>
      <point x="185" y="511"/>
      <point x="185" y="317" type="curve" smooth="yes"/>
      <point x="185" y="122"/>
      <point x="169" y="-35"/>
    </contour>
  </outline>
</glyph>
<glyph name="asterisk" format="2">
  <advance width="518"/>
  <unicode hex="002A"/>
  <outline>
    <contour>
      <point x="304" y="760" type="line"/>
      <point x="210" y="760" type="line"/>
      <point x="229" y="568" type="line"/>
      <point x="52" y="622" type="line"/>
      <point x="38" y="530" type="line"/>
      <point x="208" y="515" type="line"/>
      <point x="99" y="357" type="line"/>
      <point x="184" y="310" type="line"/>
      <point x="256" y="485" type="line"/>
      <point x="335" y="310" type="line"/>
      <point x="418" y="357" type="line"/>
      <point x="306" y="515" type="line"/>
      <point x="478" y="530" type="line"/>
      <point x="465" y="622" type="line"/>
      <point x="285" y="568" type="line"/>
    </contour>
  </outline>
</glyph>
<glyph name="asterisk.serif" format="2">
  <advance width="500"/>
  <unicode hex="002A"/>
  <outline>
    <contour>
      <point x="204" y="378" type="line"/>
      <point x="291" y="378" type="line"/>
      <point x="254" y="550" type="line"/>
      <point x="418" y="443" type="line"/>
      <point x="453" y="520" type="line"/>
      <point x="265" y="569" type="line"/>
      <point x="453" y="618" type="line"/>
      <point x="418" y="696" type="line"/>
      <point x="254" y="587" type="line"/>
      <point x="291" y="760" type="line"/>
      <point x="204" y="760" type="line"/>
      <point x="239" y="587" type="line"/>
      <point x="76" y="698" type="line"/>
      <point x="41" y="619" type="line"/>
      <point x="228" y="569" type="line"/>
      <point x="41" y="519" type="line"/>
      <point x="76" y="441" type="line"/>
      <point x="239" y="550" type="line"/>
    </contour>
  </outline>
</glyph>
<glyph name="plus" format="2">
  <advance width="537"/>
  <unicode hex="002B"/>
  <outline>
    <contour>
      <point x="303" y="388" type="line"/>
      <point x="303" y="595" type="line"/>
      <point x="232" y="595" type="line"/>
      <point x="232" y="388" type="line"/>
      <point x="46" y="388" type="line"/>
      <point x="46" y="317" type="line"/>
      <point x="232" y="317" type="line"/>
      <point x="232" y="111" type="line"/>
      <point x="303" y="111" type="line"/>
      <point x="303" y="317" type="line"/>
      <point x="489" y="317" type="line"/>
      <point x="489" y="388" type="line"/>
    </contour>
  </outline>
</glyph>
<glyph name="comma" format="2">
  <advance width="254"/>
  <unicode hex="002C"/>
  <outline>
    <contour>
      <point x="183" y="105" type="curve"/>
      <point x="176" y="116" type="line"/>
      <point x="85" y="116" type="line"/>
      <point x="76" y="46"/>
      <point x="56" y="-53"/>
      <point x="38" y="-129" type="curve"/>
      <point x="102" y="-129" type="line"/>
      <point x="132" y="-57"/>
      <point x="166" y="34"/>
    </contour>
  </outline>
</glyph>
<glyph name="period" format="2">
  <advance width="254"/>
  <unicode hex="002E"/>
  <outline>
    <contour>
      <point x="67" y="54" type="curve" smooth="yes"/>
      <point x="67" y="6"/>
      <point x="93" y="-14"/>
      <point x="126" y="-14" type="curve" smooth="yes"/>
      <point x="159" y="-14"/>
      <point x="187" y="6"/>
      <point x="187" y="54" type="curve" smooth="yes"/>
      <point x="187" y="103"/>
      <point x="159" y="121"/>
      <point x="126" y="121" type="curve" smooth="yes"/>
      <point x="93" y="121"/>
      <point x="67" y="103"/>
    </contour>
  </outline>
</glyph>
<glyph name="period.serif" format="2">
  <advance width="250"/>
  <unicode hex="002E"/>
  <outline>
    <contour>
      <point x="125" y="-7" type="curve" smooth="yes"/>
      <point x="161" y="-7"/>
      <point x="179" y="16"/>
      <point x="179" y="61" type="curve" smooth="yes"/>
      <point x="179" y="106"/>
      <point x="161" y="129"/>
      <point x="125" y="129" type="curve" smooth="yes"/>
      <point x="89" y="129"/>
      <point x="71" y="106"/>
      <point x="71" y="61" type="curve" smooth="yes"/>
      <point x="71" y="16"/>
      <point x="89" y="-7"/>
    </contour>
  </outline>
</glyph>
<glyph name="slash" format="2">
  <advance width="352"/>
  <unicode hex="002F"/>
  <outline>
    <contour>
      <point x="343" y="714" type="line"/>
      <point x="259" y="714" type="line"/>
      <point x="9" y="0" type="line"/>
      <point x="93" y="0" type="line"/>
    </contour>
  </outline>
</glyph>
<glyph name="slash.serif" format="2">
  <advance width="288"/>
  <unicode hex="002F"/>
  <outline>
    <contour>
      <point x="24" y="-121" type="line"/>
      <point x="34" y="-121" type="line"/>
      <point x="264" y="760" type="line"/>
      <point x="254" y="760" type="line"/>
    </contour>
  </outline>
</glyph>
<glyph name="zero" format="2">
  <advance width="537"/>
  <unicode hex="0030"/>
  <outline>
    <contour>
      <point x="492" y="358" type="curve" smooth="yes"/>
      <point x="492" y="590"/>
      <point x="419" y="725"/>
      <point x="268" y="725" type="curve" smooth="yes"/>
      <point x="106" y="725"/>
      <point x="45" y="589"/>
      <point x="45" y="358" type="curve" smooth="yes"/>
      <point x="45" y="127"/>
      <point x="116" y="-10"/>
      <point x="268" y="-10" type="curve" smooth="yes"/>
      <point x="429" y="-10"/>
      <point x="492" y="127"/>
    </contour>
    <contour>
      <point x="132" y="358" type="curve" smooth="yes"/>
      <point x="132" y="553"/>
      <point x="169" y="650"/>
      <point x="268" y="650" type="curve" smooth="yes"/>
      <point x="366" y="650"/>
      <point x="404" y="553"/>
      <point x="404" y="358" type="curve" smooth="yes"/>
      <point x="404" y="161"/>
      <point x="366" y="65"/>
      <point x="268" y="65" type="curve" smooth="yes"/>
      <point x="169" y="65"/>
      <point x="132" y="162"/>
    </contour>
  </outline>
</glyph>
<glyph name="one" format="2">
  <advance width="537"/>
  <unicode hex="0031"/>
  <outline>
    <contour>
      <point x="337" y="0" type="line"/>
      <point x="337" y="714" type="line"/>
      <point x="265" y="714" type="line"/>
      <point x="81" y="564" type="line"/>
      <point x="127" y="505" type="line"/>
      <point x="198" y="567" type="line" smooth="yes"/>
      <point x="222" y="588"/>
      <point x="237" y="600"/>
      <point x="256" y="622" type="curve"/>
      <point x="253" y="584"/>
      <point x="252" y="556"/>
      <point x="252" y="499" type="curve" smooth="yes"/>
      <point x="252" y="0" type="line"/>
    </contour>
  </outline>
</glyph>
<glyph name="one.serif" format="2">
  <advance width="559"/>
  <unicode hex="0031"/>
  <outline>
    <contour>
      <point x="96" y="0" type="line"/>
      <point x="477" y="0" type="line"/>
      <point x="477" y="10" type="line"/>
      <point x="428" y="10" type="line" smooth="yes"/>
      <point x="373" y="10"/>
      <point x="346" y="34"/>
      <point x="346" y="82" type="curve" smooth="yes"/>
      <point x="346" y="718" type="line"/>
      <point x="294" y="718" type="line"/>
      <point x="235" y="656" type="line" smooth="yes"/>
      <point x="189" y="607"/>
      <point x="148" y="591"/>
      <point x="66" y="589" type="curve"/>
      <point x="66" y="557"/>
      <point x="81" y="535"/>
      <point x="113" y="535" type="curve" smooth="yes"/>
      <point x="140" y="535"/>
      <point x="163" y="550"/>
      <point x="245" y="652" type="curve"/>
      <point x="245" y="82" type="line" smooth="yes"/>
      <point x="245" y="34"/>
      <point x="217" y="10"/>
      <point x="163" y="10" type="curve" smooth="yes"/>
      <point x="96" y="10" type="line"/>
    </contour>
  </outline>
</glyph>
<glyph name="two" format="2">
  <advance width="537"/>
  <unicode hex="0032"/>
  <outline>
    <contour>
      <point x="491" y="0" type="line"/>
      <point x="491" y="80" type="line"/>
      <point x="155" y="80" type="line"/>
      <point x="154" y="84" type="line"/>
      <point x="291" y="230" type="line" smooth="yes"/>
      <point x="394" y="339"/>
      <point x="464" y="422"/>
      <point x="464" y="534" type="curve" smooth="yes"/>
      <point x="464" y="652"/>
      <point x="386" y="724"/>
      <point x="260" y="724" type="curve" smooth="yes"/>
      <point x="172" y="724"/>
      <point x="105" y="687"/>
      <point x="52" y="640" type="curve"/>
      <point x="99" y="581" type="line"/>
      <point x="150" y="624"/>
      <point x="195" y="649"/>
      <point x="259" y="649" type="curve" smooth="yes"/>
      <point x="328" y="649"/>
      <point x="375" y="607"/>
      <point x="375" y="529" type="curve" smooth="yes"/>
      <point x="375" y="432"/>
      <point x="320" y="370"/>
      <point x="220" y="262" type="curve" smooth="yes"/>
      <point x="45" y="73" type="line"/>
      <point x="45" y="0" type="line"/>
    </contour>
  </outline>
</glyph>
<glyph name="two.serif" format="2">
  <advance width="559"/>
  <unicode hex="0032"/>
  <outline>
    <contour>
      <point x="51" y="0" type="line"/>
      <point x="480" y="0" type="line"/>
      <point x="486" y="173" type="line"/>
      <point x="476" y="173" type="line"/>
      <point x="475" y="160" type="line" smooth="yes"/>
      <point x="470" y="99"/>
      <point x="449" y="80"/>
      <point x="385" y="80" type="curve" smooth="yes"/>
      <point x="70" y="80" type="line"/>
      <point x="203" y="203" type="line" smooth="yes"/>
      <point x="416" y="400"/>
      <point x="461" y="470"/>
      <point x="461" y="553" type="curve" smooth="yes"/>
      <point x="461" y="658"/>
      <point x="388" y="724"/>
      <point x="256" y="724" type="curve" smooth="yes"/>
      <point x="133" y="724"/>
      <point x="62" y="668"/>
      <point x="62" y="594" type="curve" smooth="yes"/>
      <point x="62" y="540"/>
      <point x="100" y="525"/>
      <point x="148" y="525" type="curve"/>
      <point x="148" y="661"/>
      <point x="176" y="714"/>
      <point x="255" y="714" type="curve" smooth="yes"/>
      <point x="329" y="714"/>
      <point x="360" y="667"/>
      <point x="360" y="547" type="curve" smooth="yes"/>
      <point x="360" y="443"/>
      <point x="329" y="373"/>
      <point x="196" y="230" type="curve" smooth="yes"/>
      <point x="51" y="73" type="line"/>
    </contour>
  </outline>
</glyph>
<glyph name="three.serif" format="2">
  <advance width="559"/>
  <unicode hex="0033"/>
  <outline>
    <contour>
      <point x="252" y="-10" type="curve" smooth="yes"/>
      <point x="376" y="-10"/>
      <point x="501" y="43"/>
      <point x="501" y="193" type="curve" smooth="yes"/>
      <point x="501" y="308"/>
      <point x="425" y="373"/>
      <point x="276" y="380" type="curve"/>
      <point x="408" y="397"/>
      <point x="476" y="461"/>
      <point x="476" y="559" type="curve" smooth="yes"/>
      <point x="476" y="667"/>
      <point x="395" y="724"/>
      <point x="267" y="724" type="curve" smooth="yes"/>
      <point x="140" y="724"/>
      <point x="70" y="671"/>
      <point x="70" y="598" type="curve" smooth="yes"/>
      <point x="70" y="543"/>
      <point x="108" y="525"/>
      <point x="156" y="525" type="curve"/>
      <point x="156" y="654"/>
      <point x="188" y="714"/>
      <point x="267" y="714" type="curve" smooth="yes"/>
      <point x="336" y="714"/>
      <point x="373" y="668"/>
      <point x="373" y="564" type="curve" smooth="yes"/>
      <point x="373" y="442"/>
      <point x="323" y="382"/>
      <point x="216" y="382" type="curve" smooth="yes"/>
      <point x="184" y="382" type="line"/>
      <point x="184" y="372" type="line"/>
      <point x="216" y="372" type="line" smooth="yes"/>
      <point x="339" y="372"/>
      <point x="397" y="321"/>
      <point x="397" y="185" type="curve" smooth="yes"/>
      <point x="397" y="68"/>
      <point x="353" y="0"/>
      <point x="254" y="0" type="curve" smooth="yes"/>
      <point x="166" y="0"/>
      <point x="121" y="53"/>
      <point x="121" y="165" type="curve"/>
      <point x="83" y="165"/>
      <point x="58" y="141"/>
      <point x="58" y="104" type="curve" smooth="yes"/>
      <point x="58" y="42"/>
      <point x="129" y="-10"/>
    </contour>
  </outline>
</glyph>
<glyph name="four" format="2">
  <advance width="537"/>
  <unicode hex="0034"/>
  <outline>
    <contour>
      <point x="519" y="162" type="line"/>
      <point x="519" y="241" type="line"/>
      <point x="422" y="241" type="line"/>
      <point x="422" y="718" type="line"/>
      <point x="333" y="718" type="line"/>
      <point x="19" y="237" type="line"/>
      <point x="19" y="162" type="line"/>
      <point x="338" y="162" type="line"/>
      <point x="338" y="0" type="line"/>
      <point x="422" y="0" type="line"/>
      <point x="422" y="162" type="line"/>
    </contour>
    <contour>
      <point x="338" y="466" type="curve" smooth="yes"/>
      <point x="338" y="241" type="line"/>
      <point x="103" y="241" type="line"/>
      <point x="299" y="546" type="line" smooth="yes"/>
      <point x="312" y="566"/>
      <point x="328" y="599"/>
      <point x="339" y="624" type="curve"/>
      <point x="343" y="624" type="line"/>
      <point x="341" y="580"/>
      <point x="338" y="535"/>
    </contour>
  </outline>
</glyph>
<glyph name="four.serif" format="2">
  <advance width="559"/>
  <unicode hex="0034"/>
  <outline>
    <contour>
      <point x="215" y="0" type="line"/>
      <point x="516" y="0" type="line"/>
      <point x="516" y="10" type="line"/>
      <point x="503" y="10" type="line" smooth="yes"/>
      <point x="448" y="10"/>
      <point x="421" y="34"/>
      <point x="421" y="82" type="curve" smooth="yes"/>
      <point x="421" y="196" type="line"/>
      <point x="545" y="196" type="line"/>
      <point x="545" y="252" type="line"/>
      <point x="421" y="252" type="line"/>
      <point x="421" y="714" type="line"/>
      <point x="326" y="714" type="line"/>
      <point x="17" y="237" type="line"/>
      <point x="17" y="196" type="line"/>
      <point x="325" y="196" type="line"/>
      <point x="325" y="82" type="line" smooth="yes"/>
      <point x="325" y="34"/>
      <point x="297" y="10"/>
      <point x="243" y="10" type="curve" smooth="yes"/>
      <point x="215" y="10" type="line"/>
    </contour>
    <contour>
      <point x="38" y="252" type="line"/>
      <point x="243" y="568" type="line" smooth="yes"/>
      <point x="269" y="608"/>
      <point x="306" y="664"/>
      <point x="327" y="699" type="curve"/>
      <point x="325" y="637"/>
      <point x="325" y="495"/>
      <point x="325" y="437" type="curve" smooth="yes"/>
      <point x="325" y="252" type="line"/>
    </contour>
  </outline>
</glyph>
<glyph name="five" format="2">
  <advance width="537"/>
  <unicode hex="0035"/>
  <outline>
    <contour>
      <point x="260" y="438" type="curve" smooth="yes"/>
      <point x="216" y="438"/>
      <point x="180" y="431"/>
      <point x="158" y="427" type="curve"/>
      <point x="174" y="634" type="line"/>
      <point x="438" y="634" type="line"/>
      <point x="438" y="714" type="line"/>
      <point x="99" y="714" type="line"/>
      <point x="74" y="377" type="line"/>
      <point x="116" y="349" type="line"/>
      <point x="143" y="356"/>
      <point x="194" y="364"/>
      <point x="230" y="364" type="curve" smooth="yes"/>
      <point x="345" y="364"/>
      <point x="396" y="312"/>
      <point x="396" y="219" type="curve" smooth="yes"/>
      <point x="396" y="114"/>
      <point x="330" y="65"/>
      <point x="233" y="65" type="curve" smooth="yes"/>
      <point x="174" y="65"/>
      <point x="103" y="83"/>
      <point x="58" y="112" type="curve"/>
      <point x="58" y="29" type="line"/>
      <point x="100" y="3"/>
      <point x="163" y="-10"/>
      <point x="232" y="-10" type="curve" smooth="yes"/>
      <point x="392" y="-10"/>
      <point x="485" y="80"/>
      <point x="485" y="228" type="curve" smooth="yes"/>
      <point x="485" y="361"/>
      <point x="396" y="438"/>
    </contour>
  </outline>
</glyph>
<glyph name="five.serif" format="2">
  <advance width="559"/>
  <unicode hex="0035"/>
  <outline>
    <contour>
      <point x="249" y="-11" type="curve" smooth="yes"/>
      <point x="418" y="-11"/>
      <point x="487" y="88"/>
      <point x="487" y="216" type="curve" smooth="yes"/>
      <point x="487" y="365"/>
      <point x="380" y="429"/>
      <point x="259" y="429" type="curve" smooth="yes"/>
      <point x="192" y="429"/>
      <point x="134" y="407"/>
      <point x="94" y="362" type="curve"/>
      <point x="118" y="633" type="line"/>
      <point x="373" y="633" type="line" smooth="yes"/>
      <point x="421" y="633"/>
      <point x="439" y="618"/>
      <point x="443" y="573" type="curve" smooth="yes"/>
      <point x="444" y="562" type="line"/>
      <point x="454" y="562" type="line"/>
      <point x="449" y="713" type="line"/>
      <point x="115" y="713" type="line"/>
      <point x="84" y="355" type="line"/>
      <point x="96" y="351" type="line"/>
      <point x="123" y="378"/>
      <point x="160" y="414"/>
      <point x="237" y="414" type="curve" smooth="yes"/>
      <point x="340" y="414"/>
      <point x="383" y="359"/>
      <point x="383" y="212" type="curve" smooth="yes"/>
      <point x="383" y="63"/>
      <point x="345" y="0"/>
      <point x="257" y="0" type="curve" smooth="yes"/>
      <point x="175" y="0"/>
      <point x="128" y="45"/>
      <point x="128" y="150" type="curve"/>
      <point x="85" y="150"/>
      <point x="65" y="125"/>
      <point x="65" y="94" type="curve" smooth="yes"/>
      <point x="65" y="43"/>
      <point x="117" y="-11"/>
    </contour>
  </outline>
</glyph>
<glyph name="six" format="2">
  <advance width="537"/>
  <unicode hex="0036"/>
  <outline>
    <contour>
      <point x="50" y="305" type="curve" smooth="yes"/>
      <point x="50" y="91"/>
      <point x="151" y="-10"/>
      <point x="280" y="-10" type="curve" smooth="yes"/>
      <point x="411" y="-10"/>
      <point x="494" y="81"/>
      <point x="494" y="230" type="curve" smooth="yes"/>
      <point x="494" y="368"/>
      <point x="417" y="447"/>
      <point x="300" y="447" type="curve" smooth="yes"/>
      <point x="219" y="447"/>
      <point x="170" y="410"/>
      <point x="142" y="363" type="curve"/>
      <point x="136" y="363" type="line"/>
      <point x="143" y="519"/>
      <point x="189" y="652"/>
      <point x="362" y="652" type="curve" smooth="yes"/>
      <point x="390" y="652"/>
      <point x="420" y="648"/>
      <point x="443" y="640" type="curve"/>
      <point x="443" y="715" type="line"/>
      <point x="422" y="721"/>
      <point x="386" y="724"/>
      <point x="360" y="724" type="curve" smooth="yes"/>
      <point x="105" y="724"/>
      <point x="50" y="510"/>
    </contour>
    <contour>
      <point x="279" y="64" type="curve" smooth="yes"/>
      <point x="186" y="64"/>
      <point x="138" y="160"/>
      <point x="138" y="247" type="curve" smooth="yes"/>
      <point x="138" y="310"/>
      <point x="195" y="378"/>
      <point x="281" y="378" type="curve" smooth="yes"/>
      <point x="366" y="378"/>
      <point x="408" y="321"/>
      <point x="408" y="230" type="curve" smooth="yes"/>
      <point x="408" y="117"/>
      <point x="356" y="64"/>
    </contour>
  </outline>
</glyph>
<glyph name="six.serif" format="2">
  <advance width="559"/>
  <unicode hex="0036"/>
  <outline>
    <contour>
      <point x="293" y="-10" type="curve" smooth="yes"/>
      <point x="429" y="-10"/>
      <point x="508" y="88"/>
      <point x="508" y="229" type="curve" smooth="yes"/>
      <point x="508" y="357"/>
      <point x="429" y="434"/>
      <point x="307" y="434" type="curve" smooth="yes"/>
      <point x="242" y="434"/>
      <point x="197" y="409"/>
      <point x="163" y="380" type="curve"/>
      <point x="171" y="613"/>
      <point x="222" y="714"/>
      <point x="322" y="714" type="curve" smooth="yes"/>
      <point x="386" y="714"/>
      <point x="410" y="662"/>
      <point x="410" y="559" type="curve"/>
      <point x="460" y="559"/>
      <point x="487" y="581"/>
      <point x="487" y="619" type="curve" smooth="yes"/>
      <point x="487" y="673"/>
      <point x="433" y="724"/>
      <point x="322" y="724" type="curve" smooth="yes"/>
      <point x="145" y="724"/>
      <point x="61" y="550"/>
      <point x="61" y="360" type="curve" smooth="yes"/>
      <point x="61" y="97"/>
      <point x="160" y="-10"/>
    </contour>
    <contour>
      <point x="296" y="0" type="curve" smooth="yes"/>
      <point x="202" y="0"/>
      <point x="165" y="102"/>
      <point x="163" y="366" type="curve"/>
      <point x="190" y="391"/>
      <point x="235" y="421"/>
      <point x="287" y="421" type="curve" smooth="yes"/>
      <point x="373" y="421"/>
      <point x="406" y="364"/>
      <point x="406" y="219" type="curve" smooth="yes"/>
      <point x="406" y="61"/>
      <point x="375" y="0"/>
    </contour>
  </outline>
</glyph>
<glyph name="seven" format="2">
  <advance width="537"/>
  <unicode hex="0037"/>
  <outline>
    <contour>
      <point x="126" y="0" type="line"/>
      <point x="222" y="0" type="line"/>
      <point x="493" y="646" type="line"/>
      <point x="493" y="714" type="line"/>
      <point x="40" y="714" type="line"/>
      <point x="40" y="634" type="line"/>
      <point x="400" y="634" type="line"/>
    </contour>
  </outline>
</glyph>
<glyph name="seven.serif" format="2">
  <advance width="559"/>
  <unicode hex="0037"/>
  <outline>
    <contour>
      <point x="190" y="0" type="line"/>
      <point x="265" y="0" type="line"/>
      <point x="511" y="684" type="line"/>
      <point x="511" y="713" type="line"/>
      <point x="65" y="713" type="line"/>
      <point x="59" y="532" type="line"/>
      <point x="69" y="532" type="line"/>
      <point x="70" y="543" type="line" smooth="yes"/>
      <point x="76" y="611"/>
      <point x="100" y="633"/>
      <point x="170" y="633" type="curve" smooth="yes"/>
      <point x="482" y="633" type="line"/>
    </contour>
  </outline>
</glyph>
<glyph name="eight" format="2">
  <advance width="537"/>
  <unicode hex="0038"/>
  <outline>
    <contour>
      <point x="268" y="724" type="curve" smooth="yes"/>
      <point x="153" y="724"/>
      <point x="67" y="663"/>
      <point x="67" y="554" type="curve" smooth="yes"/>
      <point x="67" y="466"/>
      <point x="118" y="413"/>
      <point x="183" y="373" type="curve"/>
      <point x="109" y="337"/>
      <point x="45" y="279"/>
      <point x="45" y="182" type="curve" smooth="yes"/>
      <point x="45" y="61"/>
      <point x="125" y="-10"/>
      <point x="271" y="-10" type="curve" smooth="yes"/>
      <point x="404" y="-10"/>
      <point x="492" y="65"/>
      <point x="492" y="185" type="curve" smooth="yes"/>
      <point x="492" y="282"/>
      <point x="425" y="335"/>
      <point x="343" y="378" type="curve"/>
      <point x="412" y="416"/>
      <point x="470" y="467"/>
      <point x="470" y="553" type="curve" smooth="yes"/>
      <point x="470" y="664"/>
      <point x="385" y="724"/>
    </contour>
    <contour>
      <point x="130" y="181" type="curve" smooth="yes"/>
      <point x="130" y="254"/>
      <point x="174" y="299"/>
      <point x="255" y="337" type="curve"/>
      <point x="269" y="331" type="line" smooth="yes"/>
      <point x="351" y="296"/>
      <point x="407" y="253"/>
      <point x="407" y="184" type="curve" smooth="yes"/>
      <point x="407" y="111"/>
      <point x="358" y="60"/>
      <point x="269" y="60" type="curve" smooth="yes"/>
      <point x="174" y="60"/>
      <point x="130" y="112"/>
    </contour>
    <contour>
      <point x="267" y="653" type="curve" smooth="yes"/>
      <point x="337" y="653"/>
      <point x="384" y="616"/>
      <point x="384" y="550" type="curve" smooth="yes"/>
      <point x="384" y="478"/>
      <point x="335" y="441"/>
      <point x="271" y="412" type="curve"/>
      <point x="205" y="443"/>
      <point x="151" y="476"/>
      <point x="151" y="550" type="curve" smooth="yes"/>
      <point x="151" y="616"/>
      <point x="199" y="653"/>
    </contour>
  </outline>
</glyph>
<glyph name="eight.serif" format="2">
  <advance width="559"/>
  <unicode hex="0038"/>
  <outline>
    <contour>
      <point x="278" y="-10" type="curve" smooth="yes"/>
      <point x="420" y="-10"/>
      <point x="513" y="60"/>
      <point x="513" y="178" type="curve" smooth="yes"/>
      <point x="513" y="268"/>
      <point x="459" y="332"/>
      <point x="334" y="389" type="curve"/>
      <point x="439" y="419"/>
      <point x="482" y="473"/>
      <point x="482" y="552" type="curve" smooth="yes"/>
      <point x="482" y="652"/>
      <point x="410" y="724"/>
      <point x="277" y="724" type="curve" smooth="yes"/>
      <point x="131" y="724"/>
      <point x="69" y="637"/>
      <point x="69" y="545" type="curve" smooth="yes"/>
      <point x="69" y="465"/>
      <point x="113" y="406"/>
      <point x="211" y="356" type="curve"/>
      <point x="98" y="325"/>
      <point x="46" y="262"/>
      <point x="46" y="176" type="curve" smooth="yes"/>
      <point x="46" y="71"/>
      <point x="124" y="-10"/>
    </contour>
    <contour>
      <point x="284" y="0" type="curve" smooth="yes"/>
      <point x="192" y="0"/>
      <point x="138" y="52"/>
      <point x="138" y="180" type="curve" smooth="yes"/>
      <point x="138" y="260"/>
      <point x="161" y="316"/>
      <point x="223" y="350" type="curve"/>
      <point x="383" y="276"/>
      <point x="427" y="238"/>
      <point x="427" y="148" type="curve" smooth="yes"/>
      <point x="427" y="60"/>
      <point x="382" y="0"/>
    </contour>
    <contour>
      <point x="319" y="396" type="curve"/>
      <point x="211" y="450"/>
      <point x="158" y="473"/>
      <point x="158" y="579" type="curve" smooth="yes"/>
      <point x="158" y="667"/>
      <point x="198" y="714"/>
      <point x="277" y="714" type="curve" smooth="yes"/>
      <point x="357" y="714"/>
      <point x="398" y="666"/>
      <point x="398" y="555" type="curve" smooth="yes"/>
      <point x="398" y="493"/>
      <point x="384" y="437"/>
    </contour>
  </outline>
</glyph>
<glyph name="nine" format="2">
  <advance width="537"/>
  <unicode hex="0039"/>
  <outline>
    <contour>
      <point x="490" y="409" type="curve" smooth="yes"/>
      <point x="490" y="622"/>
      <point x="390" y="724"/>
      <point x="261" y="724" type="curve" smooth="yes"/>
      <point x="131" y="724"/>
      <point x="46" y="632"/>
      <point x="46" y="483" type="curve" smooth="yes"/>
      <point x="46" y="345"/>
      <point x="123" y="267"/>
      <point x="238" y="267" type="curve" smooth="yes"/>
      <point x="320" y="267"/>
      <point x="369" y="304"/>
      <point x="397" y="350" type="curve"/>
      <point x="403" y="350" type="line"/>
      <point x="397" y="194"/>
      <point x="352" y="62"/>
      <point x="177" y="62" type="curve" smooth="yes"/>
      <point x="149" y="62"/>
      <point x="117" y="67"/>
      <point x="95" y="75" type="curve"/>
      <point x="95" y="0" type="line"/>
      <point x="116" y="-7"/>
      <point x="154" y="-10"/>
      <point x="180" y="-10" type="curve" smooth="yes"/>
      <point x="436" y="-10"/>
      <point x="490" y="204"/>
    </contour>
    <contour>
      <point x="262" y="650" type="curve" smooth="yes"/>
      <point x="355" y="650"/>
      <point x="402" y="553"/>
      <point x="402" y="467" type="curve" smooth="yes"/>
      <point x="402" y="403"/>
      <point x="346" y="337"/>
      <point x="258" y="337" type="curve" smooth="yes"/>
      <point x="173" y="337"/>
      <point x="132" y="393"/>
      <point x="132" y="484" type="curve" smooth="yes"/>
      <point x="132" y="596"/>
      <point x="185" y="650"/>
    </contour>
  </outline>
</glyph>
<glyph name="nine.serif" format="2">
  <advance width="559"/>
  <unicode hex="0039"/>
  <outline>
    <contour>
      <point x="233" y="-11" type="curve" smooth="yes"/>
      <point x="440" y="-11"/>
      <point x="498" y="178"/>
      <point x="498" y="388" type="curve"/>
      <point x="498" y="623"/>
      <point x="400" y="724"/>
      <point x="265" y="724" type="curve" smooth="yes"/>
      <point x="131" y="724"/>
      <point x="51" y="629"/>
      <point x="51" y="485" type="curve" smooth="yes"/>
      <point x="51" y="350"/>
      <point x="132" y="275"/>
      <point x="242" y="275" type="curve" smooth="yes"/>
      <point x="318" y="275"/>
      <point x="366" y="308"/>
      <point x="395" y="343" type="curve"/>
      <point x="388" y="95"/>
      <point x="352" y="-1"/>
      <point x="241" y="-1" type="curve" smooth="yes"/>
      <point x="175" y="-1"/>
      <point x="135" y="34"/>
      <point x="122" y="123" type="curve"/>
      <point x="97" y="118"/>
      <point x="82" y="100"/>
      <point x="82" y="77" type="curve" smooth="yes"/>
      <point x="82" y="33"/>
      <point x="133" y="-11"/>
    </contour>
    <contour>
      <point x="265" y="292" type="curve" smooth="yes"/>
      <point x="186" y="292"/>
      <point x="154" y="347"/>
      <point x="154" y="488" type="curve" smooth="yes"/>
      <point x="154" y="651"/>
      <point x="190" y="714"/>
      <point x="267" y="714" type="curve" smooth="yes"/>
      <point x="362" y="714"/>
      <point x="393" y="615"/>
      <point x="396" y="361" type="curve"/>
      <point x="378" y="336"/>
      <point x="335" y="292"/>
    </contour>
  </outline>
</glyph>
<glyph name="colon" format="2">
  <advance width="254"/>
  <unicode hex="003A"/>
  <outline>
    <contour>
      <point x="67" y="54" type="curve" smooth="yes"/>
      <point x="67" y="6"/>
      <point x="93" y="-14"/>
      <point x="126" y="-14" type="curve" smooth="yes"/>
      <point x="159" y="-14"/>
      <point x="187" y="6"/>
      <point x="187" y="54" type="curve" smooth="yes"/>
      <point x="187" y="103"/>
      <point x="159" y="121"/>
      <point x="126" y="121" type="curve" smooth="yes"/>
      <point x="93" y="121"/>
      <point x="67" y="103"/>
    </contour>
    <contour>
      <point x="67" y="482" type="curve" smooth="yes"/>
      <point x="67" y="434"/>
      <point x="93" y="414"/>
      <point x="126" y="414" type="curve" smooth="yes"/>
      <point x="159" y="414"/>
      <point x="187" y="434"/>
      <point x="187" y="482" type="curve" smooth="yes"/>
      <point x="187" y="532"/>
      <point x="159" y="550"/>
      <point x="126" y="550" type="curve" smooth="yes"/>
      <point x="93" y="550"/>
      <point x="67" y="532"/>
    </contour>
  </outline>
</glyph>
<glyph name="colon.serif" format="2">
  <advance width="286"/>
  <unicode hex="003A"/>
  <outline>
    <contour>
      <point x="143" y="405" type="curve" smooth="yes"/>
      <point x="179" y="405"/>
      <point x="197" y="428"/>
      <point x="197" y="473" type="curve" smooth="yes"/>
      <point x="197" y="518"/>
      <point x="179" y="541"/>
      <point x="143" y="541" type="curve" smooth="yes"/>
      <point x="107" y="541"/>
      <point x="89" y="518"/>
      <point x="89" y="473" type="curve" smooth="yes"/>
      <point x="89" y="428"/>
      <point x="107" y="405"/>
    </contour>
    <contour>
      <point x="143" y="-7" type="curve" smooth="yes"/>
      <point x="179" y="-7"/>
      <point x="197" y="16"/>
      <point x="197" y="61" type="curve" smooth="yes"/>
      <point x="197" y="106"/>
      <point x="179" y="129"/>
      <point x="143" y="129" type="curve" smooth="yes"/>
      <point x="107" y="129"/>
      <point x="89" y="106"/>
      <point x="89" y="61" type="curve" smooth="yes"/>
      <point x="89" y="16"/>
      <point x="107" y="-7"/>
    </contour>
  </outline>
</glyph>
<glyph name="semicolon" format="2">
  <advance width="254"/>
  <unicode hex="003B"/>
  <outline>
    <contour>
      <point x="175" y="105" type="curve"/>
      <point x="168" y="116" type="line"/>
      <point x="77" y="116" type="line"/>
      <point x="67" y="46"/>
      <point x="47" y="-54"/>
      <point x="29" y="-129" type="curve"/>
      <point x="94" y="-129" type="line"/>
      <point x="124" y="-58"/>
      <point x="158" y="35"/>
    </contour>
    <contour>
      <point x="65" y="482" type="curve" smooth="yes"/>
      <point x="65" y="434"/>
      <point x="91" y="414"/>
      <point x="124" y="414" type="curve" smooth="yes"/>
      <point x="158" y="414"/>
      <point x="185" y="434"/>
      <point x="185" y="482" type="curve" smooth="yes"/>
      <point x="185" y="532"/>
      <point x="158" y="550"/>
      <point x="124" y="550" type="curve" smooth="yes"/>
      <point x="91" y="550"/>
      <point x="65" y="532"/>
    </contour>
  </outline>
</glyph>
<glyph name="semicolon.serif" format="2">
  <advance width="286"/>
  <unicode hex="003B"/>
  <outline>
    <contour>
      <point x="48" y="-144" type="curve"/>
      <point x="48" y="-154" type="line"/>
      <point x="164" y="-121"/>
      <point x="212" y="-41"/>
      <point x="212" y="36" type="curve" smooth="yes"/>
      <point x="212" y="102"/>
      <point x="176" y="129"/>
      <point x="135" y="129" type="curve" smooth="yes"/>
      <point x="98" y="129"/>
      <point x="70" y="108"/>
      <point x="70" y="68" type="curve" smooth="yes"/>
      <point x="70" y="0"/>
      <point x="153" y="28"/>
      <point x="153" y="-43" type="curve" smooth="yes"/>
      <point x="153" y="-94"/>
      <point x="110" y="-124"/>
    </contour>
    <contour>
      <point x="144" y="405" type="curve" smooth="yes"/>
      <point x="180" y="405"/>
      <point x="198" y="428"/>
      <point x="198" y="473" type="curve" smooth="yes"/>
      <point x="198" y="518"/>
      <point x="180" y="541"/>
      <point x="144" y="541" type="curve" smooth="yes"/>
      <point x="108" y="541"/>
      <point x="90" y="518"/>
      <point x="90" y="473" type="curve" smooth="yes"/>
      <point x="90" y="428"/>
      <point x="108" y="405"/>
    </contour>
  </outline>
</glyph>
<glyph name="less.serif" format="2">
  <advance width="559"/>
  <unicode hex="003C"/>
  <outline>
    <contour>
      <point x="494" y="119" type="line"/>
      <point x="494" y="142" type="line"/>
      <point x="87" y="357" type="line"/>
      <point x="494" y="572" type="line"/>
      <point x="494" y="595" type="line"/>
      <point x="65" y="367" type="line"/>
      <point x="65" y="347" type="line"/>
    </contour>
  </outline>
</glyph>
<glyph name="greater" format="2">
  <advance width="537"/>
  <unicode hex="003E"/>
  <outline>
    <contour>
      <point x="46" y="194" type="line"/>
      <point x="46" y="116" type="line"/>
      <point x="490" y="323" type="line"/>
      <point x="490" y="373" type="line"/>
      <point x="46" y="608" type="line"/>
      <point x="46" y="530" type="line"/>
      <point x="397" y="351" type="line"/>
    </contour>
  </outline>
</glyph>
<glyph name="question" format="2">
  <advance width="411"/>
  <unicode hex="003F"/>
  <outline>
    <contour>
      <point x="132" y="228" type="curve" smooth="yes"/>
      <point x="132" y="201" type="line"/>
      <point x="202" y="201" type="line"/>
      <point x="202" y="218" type="line" smooth="yes"/>
      <point x="202" y="275"/>
      <point x="214" y="301"/>
      <point x="276" y="358" type="curve" smooth="yes"/>
      <point x="343" y="419"/>
      <point x="387" y="459"/>
      <point x="387" y="549" type="curve" smooth="yes"/>
      <point x="387" y="657"/>
      <point x="319" y="724"/>
      <point x="199" y="724" type="curve" smooth="yes"/>
      <point x="123" y="724"/>
      <point x="62" y="703"/>
      <point x="11" y="675" type="curve"/>
      <point x="42" y="605" type="line"/>
      <point x="86" y="627"/>
      <point x="131" y="647"/>
      <point x="193" y="647" type="curve" smooth="yes"/>
      <point x="264" y="647"/>
      <point x="304" y="611"/>
      <point x="304" y="547" type="curve" smooth="yes"/>
      <point x="304" y="487"/>
      <point x="282" y="463"/>
      <point x="211" y="398" type="curve" smooth="yes"/>
      <point x="150" y="343"/>
      <point x="132" y="303"/>
    </contour>
    <contour>
      <point x="110" y="54" type="curve" smooth="yes"/>
      <point x="110" y="6"/>
      <point x="136" y="-14"/>
      <point x="171" y="-14" type="curve" smooth="yes"/>
      <point x="202" y="-14"/>
      <point x="230" y="6"/>
      <point x="230" y="54" type="curve" smooth="yes"/>
      <point x="230" y="103"/>
      <point x="202" y="121"/>
      <point x="171" y="121" type="curve" smooth="yes"/>
      <point x="136" y="121"/>
      <point x="110" y="103"/>
    </contour>
  </outline>
</glyph>
<glyph name="question.serif" format="2">
  <advance width="500"/>
  <unicode hex="003F"/>
  <outline>
    <contour>
      <point x="202" y="336" type="curve"/>
      <point x="217" y="201" type="line"/>
      <point x="232" y="201" type="line"/>
      <point x="247" y="334" type="line"/>
      <point x="384" y="368"/>
      <point x="449" y="437"/>
      <point x="449" y="541" type="curve" smooth="yes"/>
      <point x="449" y="659"/>
      <point x="367" y="724"/>
      <point x="229" y="724" type="curve" smooth="yes"/>
      <point x="112" y="724"/>
      <point x="43" y="678"/>
      <point x="43" y="616" type="curve" smooth="yes"/>
      <point x="43" y="571"/>
      <point x="78" y="547"/>
      <point x="126" y="547" type="curve"/>
      <point x="126" y="664"/>
      <point x="161" y="714"/>
      <point x="235" y="714" type="curve" smooth="yes"/>
      <point x="315" y="714"/>
      <point x="347" y="654"/>
      <point x="347" y="533" type="curve" smooth="yes"/>
      <point x="347" y="398"/>
      <point x="303" y="345"/>
    </contour>
    <contour>
      <point x="223" y="-7" type="curve" smooth="yes"/>
      <point x="259" y="-7"/>
      <point x="277" y="16"/>
      <point x="277" y="61" type="curve" smooth="yes"/>
      <point x="277" y="106"/>
      <point x="259" y="129"/>
      <point x="223" y="129" type="curve" smooth="yes"/>
      <point x="187" y="129"/>
      <point x="169" y="106"/>
      <point x="169" y="61" type="curve" smooth="yes"/>
      <point x="169" y="16"/>
      <point x="187" y="-7"/>
    </contour>
  </outline>
</glyph>
<glyph name="at" format="2">
  <advance width="845"/>
  <unicode hex="0040"/>
  <outline>
    <contour>
      <point x="791" y="357" type="curve" smooth="yes"/>
      <point x="791" y="578"/>
      <point x="649" y="714"/>
      <point x="453" y="714" type="curve" smooth="yes"/>
      <point x="205" y="714"/>
      <point x="54" y="529"/>
      <point x="54" y="280" type="curve" smooth="yes"/>
      <point x="54" y="48"/>
      <point x="185" y="-89"/>
      <point x="408" y="-89" type="curve" smooth="yes"/>
      <point x="489" y="-89"/>
      <point x="557" y="-72"/>
      <point x="611" y="-48" type="curve"/>
      <point x="611" y="20" type="line"/>
      <point x="557" y="-2"/>
      <point x="483" y="-23"/>
      <point x="408" y="-23" type="curve" smooth="yes"/>
      <point x="224" y="-23"/>
      <point x="124" y="86"/>
      <point x="124" y="283" type="curve" smooth="yes"/>
      <point x="124" y="495"/>
      <point x="240" y="648"/>
      <point x="453" y="648" type="curve" smooth="yes"/>
      <point x="608" y="648"/>
      <point x="723" y="543"/>
      <point x="723" y="358" type="curve" smooth="yes"/>
      <point x="723" y="255"/>
      <point x="691" y="171"/>
      <point x="633" y="171" type="curve" smooth="yes"/>
      <point x="603" y="171"/>
      <point x="577" y="187"/>
      <point x="577" y="257" type="curve" smooth="yes"/>
      <point x="577" y="261"/>
      <point x="577" y="269"/>
      <point x="578" y="293" type="curve" smooth="yes"/>
      <point x="587" y="496" type="line"/>
      <point x="557" y="508"/>
      <point x="498" y="520"/>
      <point x="442" y="520" type="curve" smooth="yes"/>
      <point x="319" y="520"/>
      <point x="241" y="426"/>
      <point x="241" y="295" type="curve" smooth="yes"/>
      <point x="241" y="183"/>
      <point x="295" y="109"/>
      <point x="392" y="109" type="curve" smooth="yes"/>
      <point x="458" y="109"/>
      <point x="502" y="147"/>
      <point x="524" y="196" type="curve"/>
      <point x="529" y="196" type="line"/>
      <point x="537" y="150"/>
      <point x="571" y="109"/>
      <point x="628" y="109" type="curve" smooth="yes"/>
      <point x="737" y="109"/>
      <point x="791" y="235"/>
    </contour>
    <contour>
      <point x="317" y="293" type="curve" smooth="yes"/>
      <point x="317" y="375"/>
      <point x="350" y="457"/>
      <point x="443" y="457" type="curve" smooth="yes"/>
      <point x="469" y="457"/>
      <point x="495" y="452"/>
      <point x="512" y="447" type="curve"/>
      <point x="506" y="322" type="line" smooth="yes"/>
      <point x="502" y="233"/>
      <point x="473" y="171"/>
      <point x="404" y="171" type="curve" smooth="yes"/>
      <point x="350" y="171"/>
      <point x="317" y="207"/>
    </contour>
  </outline>
</glyph>
<glyph name="at.serif" format="2">
  <advance width="921"/>
  <unicode hex="0040"/>
  <outline>
    <contour>
      <point x="432" y="-142" type="curve" smooth="yes"/>
      <point x="534" y="-142"/>
      <point x="632" y="-108"/>
      <point x="719" y="-43" type="curve"/>
      <point x="713" y="-34" type="line"/>
      <point x="625" y="-99"/>
      <point x="531" y="-131"/>
      <point x="440" y="-131" type="curve" smooth="yes"/>
      <point x="279" y="-131"/>
      <point x="144" y="-44"/>
      <point x="144" y="220" type="curve" smooth="yes"/>
      <point x="144" y="535"/>
      <point x="329" y="704"/>
      <point x="524" y="704" type="curve" smooth="yes"/>
      <point x="690" y="704"/>
      <point x="807" y="611"/>
      <point x="807" y="395" type="curve" smooth="yes"/>
      <point x="807" y="185"/>
      <point x="741" y="88"/>
      <point x="667" y="88" type="curve" smooth="yes"/>
      <point x="632" y="88"/>
      <point x="609" y="110"/>
      <point x="609" y="162" type="curve" smooth="yes"/>
      <point x="609" y="188"/>
      <point x="615" y="223"/>
      <point x="624" y="266" type="curve" smooth="yes"/>
      <point x="675" y="520" type="line"/>
      <point x="665" y="520" type="line"/>
      <point x="593" y="484" type="line"/>
      <point x="578" y="510"/>
      <point x="554" y="529"/>
      <point x="500" y="529" type="curve" smooth="yes"/>
      <point x="338" y="529"/>
      <point x="263" y="354"/>
      <point x="263" y="239" type="curve" smooth="yes"/>
      <point x="263" y="130"/>
      <point x="317" y="77"/>
      <point x="392" y="77" type="curve" smooth="yes"/>
      <point x="461" y="77"/>
      <point x="516" y="122"/>
      <point x="542" y="218" type="curve"/>
      <point x="544" y="218" type="line"/>
      <point x="544" y="107"/>
      <point x="609" y="77"/>
      <point x="659" y="77" type="curve" smooth="yes"/>
      <point x="760" y="77"/>
      <point x="868" y="199"/>
      <point x="868" y="392" type="curve" smooth="yes"/>
      <point x="868" y="573"/>
      <point x="754" y="714"/>
      <point x="530" y="714" type="curve" smooth="yes"/>
      <point x="257" y="714"/>
      <point x="65" y="501"/>
      <point x="65" y="218" type="curve" smooth="yes"/>
      <point x="65" y="-24"/>
      <point x="218" y="-142"/>
    </contour>
    <contour>
      <point x="416" y="95" type="curve" smooth="yes"/>
      <point x="377" y="95"/>
      <point x="353" y="122"/>
      <point x="353" y="202" type="curve" smooth="yes"/>
      <point x="353" y="318"/>
      <point x="398" y="518"/>
      <point x="513" y="518" type="curve" smooth="yes"/>
      <point x="550" y="518"/>
      <point x="575" y="497"/>
      <point x="581" y="479" type="curve"/>
      <point x="539" y="255" type="line" smooth="yes"/>
      <point x="519" y="151"/>
      <point x="474" y="95"/>
    </contour>
  </outline>
</glyph>
<glyph name="B" format="2">
  <advance width="613"/>
  <unicode hex="0042"/>
  <anchor x="298" y="0" name="bottom"/>
  <anchor x="304" y="714" name="top"/>
  <anchor x="594" y="714" name="topright"/>
  <outline>
    <contour>
      <point x="284" y="714" type="curve" smooth="yes"/>
      <point x="91" y="714" type="line"/>
      <point x="91" y="0" type="line"/>
      <point x="328" y="0" type="line" smooth="yes"/>
      <point x="473" y="0"/>
      <point x="562" y="73"/>
      <point x="562" y="203" type="curve" smooth="yes"/>
      <point x="562" y="314"/>
      <point x="497" y="359"/>
      <point x="414" y="374" type="curve"/>
      <point x="414" y="379" type="line"/>
      <point x="496" y="395"/>
      <point x="540" y="453"/>
      <point x="540" y="537" type="curve" smooth="yes"/>
      <point x="540" y="667"/>
      <point x="452" y="714"/>
    </contour>
    <contour>
      <point x="301" y="410" type="curve" smooth="yes"/>
      <point x="180" y="410" type="line"/>
      <point x="180" y="637" type="line"/>
      <point x="288" y="637" type="line" smooth="yes"/>
      <point x="399" y="637"/>
      <point x="448" y="605"/>
      <point x="448" y="527" type="curve" smooth="yes"/>
      <point x="448" y="450"/>
      <point x="413" y="410"/>
    </contour>
    <contour>
      <point x="180" y="335" type="line"/>
      <point x="306" y="335" type="line"/>
      <point x="427" y="335"/>
      <point x="468" y="285"/>
      <point x="468" y="210" type="curve" smooth="yes"/>
      <point x="468" y="130"/>
      <point x="428" y="76"/>
      <point x="312" y="76" type="curve" smooth="yes"/>
      <point x="180" y="76" type="line"/>
    </contour>
  </outline>
</glyph>
<glyph name="C" format="2">
  <advance width="594"/>
  <unicode hex="0043"/>
  <anchor x="349" y="0" name="bottom"/>
  <anchor x="357" y="714" name="top"/>
  <anchor x="576" y="714" name="topright"/>
  <outline>
    <contour>
      <point x="378" y="645" type="curve" smooth="yes"/>
      <point x="437" y="645"/>
      <point x="488" y="626"/>
      <point x="530" y="606" type="curve"/>
      <point x="565" y="682" type="line"/>
      <point x="513" y="709"/>
      <point x="447" y="724"/>
      <point x="379" y="724" type="curve" smooth="yes"/>
      <point x="171" y="724"/>
      <point x="57" y="574"/>
      <point x="57" y="358" type="curve" smooth="yes"/>
      <point x="57" y="133"/>
      <point x="159" y="-10"/>
      <point x="365" y="-10" type="curve" smooth="yes"/>
      <point x="439" y="-10"/>
      <point x="488" y="-1"/>
      <point x="539" y="19" type="curve"/>
      <point x="539" y="97" type="line"/>
      <point x="487" y="81"/>
      <point x="435" y="69"/>
      <point x="377" y="69" type="curve" smooth="yes"/>
      <point x="226" y="69"/>
      <point x="151" y="180"/>
      <point x="151" y="357" type="curve" smooth="yes"/>
      <point x="151" y="536"/>
      <point x="237" y="645"/>
    </contour>
  </outline>
</glyph>
<glyph name="C.serif" format="2">
  <advance width="614"/>
  <unicode hex="0043"/>
  <anchor x="373" y="0" name="bottom"/>
  <anchor x="367" y="714" name="top"/>
  <anchor x="594" y="714" name="topright"/>
  <outline>
    <contour>
      <point x="367" y="-10" type="curve" smooth="yes"/>
      <point x="507" y="-10"/>
      <point x="576" y="57"/>
      <point x="576" y="108" type="curve" smooth="yes"/>
      <point x="576" y="126"/>
      <point x="568" y="139"/>
      <point x="551" y="146" type="curve"/>
      <point x="523" y="43"/>
      <point x="469" y="0"/>
      <point x="379" y="0" type="curve" smooth="yes"/>
      <point x="229" y="0"/>
      <point x="168" y="120"/>
      <point x="168" y="360" type="curve" smooth="yes"/>
      <point x="168" y="592"/>
      <point x="225" y="713"/>
      <point x="366" y="713" type="curve" smooth="yes"/>
      <point x="455" y="713"/>
      <point x="493" y="666"/>
      <point x="493" y="542" type="curve"/>
      <point x="542" y="542"/>
      <point x="580" y="563"/>
      <point x="580" y="609" type="curve" smooth="yes"/>
      <point x="580" y="671"/>
      <point x="508" y="724"/>
      <point x="379" y="724" type="curve" smooth="yes"/>
      <point x="161" y="724"/>
      <point x="57" y="574"/>
      <point x="57" y="355" type="curve" smooth="yes"/>
      <point x="57" y="137"/>
      <point x="160" y="-10"/>
    </contour>
  </outline>
</glyph>
<glyph name="D" format="2">
  <advance width="687"/>
  <unicode hex="0044"/>
  <anchor x="322" y="0" name="bottom"/>
  <anchor x="344" y="357" name="center"/>
  <anchor x="340" y="714" name="top"/>
  <anchor x="668" y="714" name="topright"/>
  <outline>
    <contour>
      <point x="630" y="364" type="curve" smooth="yes"/>
      <point x="630" y="593"/>
      <point x="501" y="714"/>
      <point x="298" y="714" type="curve" smooth="yes"/>
      <point x="91" y="714" type="line"/>
      <point x="91" y="0" type="line"/>
      <point x="278" y="0" type="line" smooth="yes"/>
      <point x="500" y="0"/>
      <point x="630" y="123"/>
    </contour>
    <contour>
      <point x="536" y="361" type="curve" smooth="yes"/>
      <point x="536" y="173"/>
      <point x="447" y="77"/>
      <point x="269" y="77" type="curve" smooth="yes"/>
      <point x="180" y="77" type="line"/>
      <point x="180" y="637" type="line"/>
      <point x="287" y="637" type="line" smooth="yes"/>
      <point x="446" y="637"/>
      <point x="536" y="551"/>
    </contour>
  </outline>
</glyph>
<glyph name="D.serif" format="2">
  <advance width="727"/>
  <unicode hex="0044"/>
  <anchor x="364" y="0" name="bottom"/>
  <anchor x="364" y="357" name="center"/>
  <anchor x="364" y="714" name="top"/>
  <anchor x="707" y="714" name="topright"/>
  <outline>
    <contour>
      <point x="38" y="0" type="line"/>
      <point x="344" y="0" type="line" smooth="yes"/>
      <point x="561" y="0"/>
      <point x="670" y="139"/>
      <point x="670" y="358" type="curve" smooth="yes"/>
      <point x="670" y="585"/>
      <point x="550" y="714"/>
      <point x="344" y="714" type="curve" smooth="yes"/>
      <point x="38" y="714" type="line"/>
      <point x="38" y="704" type="line"/>
      <point x="51" y="704" type="line" smooth="yes"/>
      <point x="105" y="704"/>
      <point x="133" y="681"/>
      <point x="133" y="636" type="curve" smooth="yes"/>
      <point x="133" y="82" type="line" smooth="yes"/>
      <point x="133" y="34"/>
      <point x="105" y="10"/>
      <point x="51" y="10" type="curve" smooth="yes"/>
      <point x="38" y="10" type="line"/>
    </contour>
    <contour>
      <point x="321" y="10" type="curve" smooth="yes"/>
      <point x="234" y="10" type="line"/>
      <point x="234" y="704" type="line"/>
      <point x="322" y="704" type="line" smooth="yes"/>
      <point x="488" y="704"/>
      <point x="559" y="600"/>
      <point x="559" y="358" type="curve" smooth="yes"/>
      <point x="559" y="114"/>
      <point x="488" y="10"/>
    </contour>
  </outline>
</glyph>
<glyph name="E.serif" format="2">
  <advance width="623"/>
  <unicode hex="0045"/>
  <anchor x="312" y="0" name="bottom"/>
  <anchor x="312" y="714" name="top"/>
  <anchor x="603" y="714" name="topright"/>
  <outline>
    <contour>
      <point x="38" y="0" type="line"/>
      <point x="574" y="0" type="line"/>
      <point x="581" y="175" type="line"/>
      <point x="571" y="175" type="line"/>
      <point x="569" y="142" type="line" smooth="yes"/>
      <point x="563" y="42"/>
      <point x="527" y="10"/>
      <point x="419" y="10" type="curve" smooth="yes"/>
      <point x="234" y="10" type="line"/>
      <point x="234" y="369" type="line"/>
      <point x="485" y="369" type="line"/>
      <point x="485" y="379" type="line"/>
      <point x="234" y="379" type="line"/>
      <point x="234" y="704" type="line"/>
      <point x="394" y="704" type="line" smooth="yes"/>
      <point x="495" y="704"/>
      <point x="529" y="672"/>
      <point x="535" y="572" type="curve" smooth="yes"/>
      <point x="537" y="539" type="line"/>
      <point x="547" y="539" type="line"/>
      <point x="541" y="714" type="line"/>
      <point x="38" y="714" type="line"/>
      <point x="38" y="704" type="line"/>
      <point x="51" y="704" type="line" smooth="yes"/>
      <point x="105" y="704"/>
      <point x="133" y="681"/>
      <point x="133" y="636" type="curve" smooth="yes"/>
      <point x="133" y="82" type="line" smooth="yes"/>
      <point x="133" y="34"/>
      <point x="105" y="10"/>
      <point x="51" y="10" type="curve" smooth="yes"/>
      <point x="38" y="10" type="line"/>
    </contour>
  </outline>
</glyph>
<glyph name="G" format="2">
  <advance width="684"/>
  <unicode hex="0047"/>
  <anchor x="377" y="0" name="bottom"/>
  <anchor x="380" y="714" name="top"/>
  <anchor x="665" y="714" name="topright"/>
  <outline>
    <contour>
      <point x="379" y="377" type="line"/>
      <point x="379" y="297" type="line"/>
      <point x="525" y="297" type="line"/>
      <point x="525" y="85" type="line"/>
      <point x="492" y="76"/>
      <point x="454" y="68"/>
      <point x="397" y="68" type="curve" smooth="yes"/>
      <point x="221" y="68"/>
      <point x="150" y="186"/>
      <point x="150" y="357" type="curve" smooth="yes"/>
      <point x="150" y="535"/>
      <point x="243" y="645"/>
      <point x="401" y="645" type="curve" smooth="yes"/>
      <point x="464" y="645"/>
      <point x="525" y="626"/>
      <point x="572" y="604" type="curve"/>
      <point x="605" y="682" type="line"/>
      <point x="548" y="708"/>
      <point x="480" y="724"/>
      <point x="405" y="724" type="curve" smooth="yes"/>
      <point x="185" y="724"/>
      <point x="57" y="580"/>
      <point x="57" y="357" type="curve" smooth="yes"/>
      <point x="57" y="131"/>
      <point x="170" y="-10"/>
      <point x="378" y="-10" type="curve" smooth="yes"/>
      <point x="472" y="-10"/>
      <point x="542" y="2"/>
      <point x="614" y="27" type="curve"/>
      <point x="614" y="377" type="line"/>
    </contour>
  </outline>
</glyph>
<glyph name="G.serif" format="2">
  <advance width="714"/>
  <unicode hex="0047"/>
  <anchor x="407" y="0" name="bottom"/>
  <anchor x="407" y="714" name="top"/>
  <anchor x="694" y="714" name="topright"/>
  <outline>
    <contour>
      <point x="401" y="-10" type="curve" smooth="yes"/>
      <point x="487" y="-10"/>
      <point x="555" y="5"/>
      <point x="622" y="36" type="curve"/>
      <point x="622" y="248" type="line" smooth="yes"/>
      <point x="622" y="296"/>
      <point x="639" y="320"/>
      <point x="691" y="320" type="curve" smooth="yes"/>
      <point x="695" y="320" type="line"/>
      <point x="695" y="330" type="line"/>
      <point x="435" y="330" type="line"/>
      <point x="435" y="320" type="line"/>
      <point x="439" y="320" type="line" smooth="yes"/>
      <point x="493" y="320"/>
      <point x="521" y="297"/>
      <point x="521" y="252" type="curve" smooth="yes"/>
      <point x="521" y="15" type="line"/>
      <point x="493" y="7"/>
      <point x="455" y="0"/>
      <point x="417" y="0" type="curve" smooth="yes"/>
      <point x="238" y="0"/>
      <point x="168" y="100"/>
      <point x="168" y="358" type="curve" smooth="yes"/>
      <point x="168" y="614"/>
      <point x="231" y="714"/>
      <point x="393" y="714" type="curve" smooth="yes"/>
      <point x="495" y="714"/>
      <point x="535" y="666"/>
      <point x="535" y="542" type="curve"/>
      <point x="602" y="547"/>
      <point x="628" y="570"/>
      <point x="628" y="615" type="curve" smooth="yes"/>
      <point x="628" y="679"/>
      <point x="545" y="724"/>
      <point x="397" y="724" type="curve" smooth="yes"/>
      <point x="167" y="724"/>
      <point x="57" y="574"/>
      <point x="57" y="358" type="curve" smooth="yes"/>
      <point x="57" y="137"/>
      <point x="169" y="-10"/>
    </contour>
  </outline>
</glyph>
<glyph name="H" format="2">
  <advance width="699"/>
  <unicode hex="0048"/>
  <anchor x="347" y="0" name="bottom"/>
  <anchor x="350" y="357" name="center"/>
  <anchor x="350" y="714" name="top"/>
  <anchor x="680" y="714" name="topright"/>
  <outline>
    <contour>
      <point x="607" y="0" type="line"/>
      <point x="607" y="714" type="line"/>
      <point x="518" y="714" type="line"/>
      <point x="518" y="412" type="line"/>
      <point x="180" y="412" type="line"/>
      <point x="180" y="714" type="line"/>
      <point x="91" y="714" type="line"/>
      <point x="91" y="0" type="line"/>
      <point x="180" y="0" type="line"/>
      <point x="180" y="333" type="line"/>
      <point x="518" y="333" type="line"/>
      <point x="518" y="0" type="line"/>
    </contour>
  </outline>
</glyph>
<glyph name="I" format="2">
  <advance width="322"/>
  <unicode hex="0049"/>
  <anchor x="162" y="0" name="bottom"/>
  <anchor x="162" y="714" name="top"/>
  <anchor x="303" y="714" name="topright"/>
  <outline>
    <contour>
      <point x="284" y="0" type="line"/>
      <point x="284" y="52" type="line"/>
      <point x="205" y="71" type="line"/>
      <point x="205" y="642" type="line"/>
      <point x="284" y="662" type="line"/>
      <point x="284" y="714" type="line"/>
      <point x="37" y="714" type="line"/>
      <point x="37" y="662" type="line"/>
      <point x="116" y="642" type="line"/>
      <point x="116" y="71" type="line"/>
      <point x="37" y="52" type="line"/>
      <point x="37" y="0" type="line"/>
    </contour>
  </outline>
</glyph>
<glyph name="J" format="2">
  <advance width="260"/>
  <unicode hex="004A"/>
  <anchor x="-2" y="-190" name="bottom"/>
  <anchor x="131" y="714" name="top"/>
  <anchor x="242" y="714" name="topright"/>
  <outline>
    <contour>
      <point x="-2" y="-190" type="curve" smooth="yes"/>
      <point x="105" y="-190"/>
      <point x="175" y="-127"/>
      <point x="175" y="11" type="curve" smooth="yes"/>
      <point x="175" y="714" type="line"/>
      <point x="86" y="714" type="line"/>
      <point x="86" y="4" type="line" smooth="yes"/>
      <point x="86" y="-87"/>
      <point x="42" y="-111"/>
      <point x="-5" y="-111" type="curve" smooth="yes"/>
      <point x="-31" y="-111"/>
      <point x="-53" y="-107"/>
      <point x="-73" y="-101" type="curve"/>
      <point x="-73" y="-177" type="line"/>
      <point x="-56" y="-185"/>
      <point x="-33" y="-190"/>
    </contour>
  </outline>
</glyph>
<glyph name="J.serif" format="2">
  <advance width="357"/>
  <unicode hex="004A"/>
  <anchor x="109" y="-240" name="bottom"/>
  <anchor x="184" y="714" name="top"/>
  <anchor x="337" y="714" name="topright"/>
  <outline>
    <contour>
      <point x="-11" y="-240" type="line"/>
      <point x="6" y="-240" type="line" smooth="yes"/>
      <point x="134" y="-240"/>
      <point x="234" y="-187"/>
      <point x="234" y="-8" type="curve" smooth="yes"/>
      <point x="234" y="632" type="line" smooth="yes"/>
      <point x="234" y="680"/>
      <point x="261" y="704"/>
      <point x="316" y="704" type="curve" smooth="yes"/>
      <point x="329" y="704" type="line"/>
      <point x="329" y="714" type="line"/>
      <point x="38" y="714" type="line"/>
      <point x="38" y="704" type="line"/>
      <point x="51" y="704" type="line" smooth="yes"/>
      <point x="105" y="704"/>
      <point x="133" y="681"/>
      <point x="133" y="636" type="curve" smooth="yes"/>
      <point x="133" y="-46" type="line" smooth="yes"/>
      <point x="133" y="-187"/>
      <point x="84" y="-230"/>
      <point x="-2" y="-230" type="curve" smooth="yes"/>
      <point x="-11" y="-230" type="line"/>
    </contour>
  </outline>
</glyph>
<glyph name="K" format="2">
  <advance width="585"/>
  <unicode hex="004B"/>
  <anchor x="322" y="0" name="bottom"/>
  <anchor x="321" y="714" name="top"/>
  <anchor x="567" y="714" name="topright"/>
  <outline>
    <contour>
      <point x="585" y="0" type="line"/>
      <point x="312" y="403" type="line"/>
      <point x="576" y="714" type="line"/>
      <point x="472" y="714" type="line"/>
      <point x="291" y="498" type="line" smooth="yes"/>
      <point x="254" y="453"/>
      <point x="216" y="407"/>
      <point x="180" y="362" type="curve"/>
      <point x="180" y="714" type="line"/>
      <point x="91" y="714" type="line"/>
      <point x="91" y="0" type="line"/>
      <point x="180" y="0" type="line"/>
      <point x="180" y="277" type="line"/>
      <point x="248" y="341" type="line"/>
      <point x="481" y="0" type="line"/>
    </contour>
  </outline>
</glyph>
<glyph name="K.serif" format="2">
  <advance width="700"/>
  <unicode hex="004B"/>
  <anchor x="371" y="0" name="bottom"/>
  <anchor x="371" y="714" name="top"/>
  <anchor x="680" y="714" name="topright"/>
  <outline>
    <contour>
      <point x="38" y="0" type="line"/>
      <point x="329" y="0" type="line"/>
      <point x="329" y="10" type="line"/>
      <point x="316" y="10" type="line" smooth="yes"/>
      <point x="261" y="10"/>
      <point x="234" y="34"/>
      <point x="234" y="82" type="curve" smooth="yes"/>
      <point x="234" y="280" type="line"/>
      <point x="303" y="359" type="line"/>
      <point x="491" y="90" type="line" smooth="yes"/>
      <point x="542" y="18"/>
      <point x="567" y="0"/>
      <point x="701" y="0" type="curve" smooth="yes"/>
      <point x="712" y="0" type="line"/>
      <point x="712" y="10" type="line"/>
      <point x="710" y="10" type="line" smooth="yes"/>
      <point x="679" y="10"/>
      <point x="651" y="37"/>
      <point x="590" y="123" type="curve" smooth="yes"/>
      <point x="370" y="435" type="line"/>
      <point x="524" y="608" type="line" smooth="yes"/>
      <point x="588" y="680"/>
      <point x="623" y="703"/>
      <point x="668" y="703" type="curve"/>
      <point x="668" y="714" type="line"/>
      <point x="447" y="714" type="line"/>
      <point x="447" y="703" type="line"/>
      <point x="511" y="703"/>
      <point x="541" y="694"/>
      <point x="541" y="670" type="curve" smooth="yes"/>
      <point x="541" y="651"/>
      <point x="524" y="624"/>
      <point x="489" y="585" type="curve" smooth="yes"/>
      <point x="234" y="296" type="line"/>
      <point x="234" y="632" type="line" smooth="yes"/>
      <point x="234" y="680"/>
      <point x="261" y="704"/>
      <point x="316" y="704" type="curve" smooth="yes"/>
      <point x="329" y="704" type="line"/>
      <point x="329" y="714" type="line"/>
      <point x="38" y="714" type="line"/>
      <point x="38" y="704" type="line"/>
      <point x="51" y="704" type="line" smooth="yes"/>
      <point x="105" y="704"/>
      <point x="133" y="681"/>
      <point x="133" y="636" type="curve" smooth="yes"/>
      <point x="133" y="82" type="line" smooth="yes"/>
      <point x="133" y="34"/>
      <point x="105" y="10"/>
      <point x="51" y="10" type="curve" smooth="yes"/>
      <point x="38" y="10" type="line"/>
    </contour>
  </outline>
</glyph>
<glyph name="L" format="2">
  <advance width="496"/>
  <unicode hex="004C"/>
  <anchor x="283" y="0" name="bottom"/>
  <anchor x="248" y="357" name="center"/>
  <anchor x="134" y="714" name="top"/>
  <anchor x="344" y="714" name="topright"/>
  <outline>
    <contour>
      <point x="91" y="0" type="line"/>
      <point x="472" y="0" type="line"/>
      <point x="472" y="80" type="line"/>
      <point x="180" y="80" type="line"/>
      <point x="180" y="714" type="line"/>
      <point x="91" y="714" type="line"/>
    </contour>
  </outline>
</glyph>
<glyph name="L.serif" format="2">
  <advance width="623"/>
  <unicode hex="004C"/>
  <anchor x="312" y="0" name="bottom"/>
  <anchor x="187" y="357" name="center"/>
  <anchor x="183" y="714" name="top"/>
  <anchor x="603" y="714" name="topright"/>
  <outline>
    <contour>
      <point x="38" y="0" type="line"/>
      <point x="574" y="0" type="line"/>
      <point x="581" y="215" type="line"/>
      <point x="571" y="215" type="line"/>
      <point x="569" y="182" type="line" smooth="yes"/>
      <point x="561" y="51"/>
      <point x="525" y="10"/>
      <point x="419" y="10" type="curve" smooth="yes"/>
      <point x="234" y="10" type="line"/>
      <point x="234" y="632" type="line" smooth="yes"/>
      <point x="234" y="680"/>
      <point x="261" y="704"/>
      <point x="316" y="704" type="curve" smooth="yes"/>
      <point x="329" y="704" type="line"/>
      <point x="329" y="714" type="line"/>
      <point x="38" y="714" type="line"/>
      <point x="38" y="704" type="line"/>
      <point x="51" y="704" type="line" smooth="yes"/>
      <point x="105" y="704"/>
      <point x="133" y="681"/>
      <point x="133" y="636" type="curve" smooth="yes"/>
      <point x="133" y="82" type="line" smooth="yes"/>
      <point x="133" y="34"/>
      <point x="105" y="10"/>
      <point x="51" y="10" type="curve" smooth="yes"/>
      <point x="38" y="10" type="line"/>
    </contour>
  </outline>
</glyph>
<glyph name="M" format="2">
  <advance width="856"/>
  <unicode hex="004D"/>
  <anchor x="423" y="0" name="bottom"/>
  <anchor x="428" y="714" name="top"/>
  <anchor x="837" y="714" name="topright"/>
  <outline>
    <contour>
      <point x="386" y="0" type="line"/>
      <point x="460" y="0" type="line"/>
      <point x="680" y="625" type="line"/>
      <point x="684" y="625" type="line"/>
      <point x="681" y="582"/>
      <point x="677" y="508"/>
      <point x="677" y="439" type="curve" smooth="yes"/>
      <point x="677" y="0" type="line"/>
      <point x="765" y="0" type="line"/>
      <point x="765" y="714" type="line"/>
      <point x="635" y="714" type="line"/>
      <point x="428" y="129" type="line"/>
      <point x="424" y="129" type="line"/>
      <point x="221" y="714" type="line"/>
      <point x="91" y="714" type="line"/>
      <point x="91" y="0" type="line"/>
      <point x="173" y="0" type="line"/>
      <point x="173" y="433" type="line" smooth="yes"/>
      <point x="173" y="509"/>
      <point x="170" y="585"/>
      <point x="166" y="626" type="curve"/>
      <point x="170" y="626" type="line"/>
    </contour>
  </outline>
</glyph>
<glyph name="M.serif" format="2">
  <advance width="938"/>
  <unicode hex="004D"/>
  <anchor x="470" y="0" name="bottom"/>
  <anchor x="469" y="714" name="top"/>
  <anchor x="918" y="714" name="topright"/>
  <outline>
    <contour>
      <point x="38" y="0" type="line"/>
      <point x="269" y="0" type="line"/>
      <point x="269" y="10" type="line"/>
      <point x="251" y="10" type="line" smooth="yes"/>
      <point x="196" y="10"/>
      <point x="169" y="34"/>
      <point x="169" y="82" type="curve" smooth="yes"/>
      <point x="169" y="649" type="line"/>
      <point x="442" y="0" type="line"/>
      <point x="466" y="0" type="line"/>
      <point x="709" y="662" type="line"/>
      <point x="709" y="82" type="line" smooth="yes"/>
      <point x="709" y="34"/>
      <point x="681" y="10"/>
      <point x="637" y="10" type="curve" smooth="yes"/>
      <point x="634" y="10" type="line"/>
      <point x="634" y="0" type="line"/>
      <point x="900" y="0" type="line"/>
      <point x="900" y="10" type="line"/>
      <point x="887" y="10" type="line" smooth="yes"/>
      <point x="832" y="10"/>
      <point x="805" y="34"/>
      <point x="805" y="82" type="curve" smooth="yes"/>
      <point x="805" y="632" type="line" smooth="yes"/>
      <point x="805" y="680"/>
      <point x="832" y="704"/>
      <point x="887" y="704" type="curve" smooth="yes"/>
      <point x="900" y="704" type="line"/>
      <point x="900" y="714" type="line"/>
      <point x="717" y="714" type="line"/>
      <point x="496" y="112" type="line"/>
      <point x="241" y="714" type="line"/>
      <point x="38" y="714" type="line"/>
      <point x="38" y="704" type="line"/>
      <point x="77" y="704" type="line" smooth="yes"/>
      <point x="131" y="704"/>
      <point x="159" y="681"/>
      <point x="159" y="636" type="curve" smooth="yes"/>
      <point x="159" y="82" type="line" smooth="yes"/>
      <point x="159" y="34"/>
      <point x="131" y="10"/>
      <point x="77" y="10" type="curve" smooth="yes"/>
      <point x="38" y="10" type="line"/>
    </contour>
  </outline>
</glyph>
<glyph name="N" format="2">
  <advance width="719"/>
  <unicode hex="004E"/>
  <anchor x="359" y="0" name="bottom"/>
  <anchor x="359" y="714" name="top"/>
  <anchor x="700" y="714" name="topright"/>
  <outline>
    <contour>
      <point x="628" y="0" type="line"/>
      <point x="628" y="714" type="line"/>
      <point x="545" y="714" type="line"/>
      <point x="545" y="311" type="line" smooth="yes"/>
      <point x="545" y="246"/>
      <point x="550" y="155"/>
      <point x="552" y="123" type="curve"/>
      <point x="548" y="123" type="line"/>
      <point x="195" y="714" type="line"/>
      <point x="91" y="714" type="line"/>
      <point x="91" y="0" type="line"/>
      <point x="173" y="0" type="line"/>
      <point x="173" y="399" type="line" smooth="yes"/>
      <point x="173" y="472"/>
      <point x="168" y="546"/>
      <point x="165" y="593" type="curve"/>
      <point x="169" y="593" type="line"/>
      <point x="523" y="0" type="line"/>
    </contour>
  </outline>
</glyph>
<glyph name="N.serif" format="2">
  <advance width="763"/>
  <unicode hex="004E"/>
  <anchor x="382" y="0" name="bottom"/>
  <anchor x="382" y="714" name="top"/>
  <anchor x="743" y="714" name="topright"/>
  <outline>
    <contour>
      <point x="38" y="0" type="line"/>
      <point x="269" y="0" type="line"/>
      <point x="269" y="10" type="line"/>
      <point x="241" y="10" type="line" smooth="yes"/>
      <point x="186" y="10"/>
      <point x="159" y="34"/>
      <point x="159" y="82" type="curve" smooth="yes"/>
      <point x="159" y="652" type="line"/>
      <point x="594" y="0" type="line"/>
      <point x="624" y="0" type="line"/>
      <point x="624" y="632" type="line" smooth="yes"/>
      <point x="624" y="680"/>
      <point x="652" y="704"/>
      <point x="706" y="704" type="curve" smooth="yes"/>
      <point x="735" y="704" type="line"/>
      <point x="735" y="714" type="line"/>
      <point x="504" y="714" type="line"/>
      <point x="504" y="704" type="line"/>
      <point x="532" y="704" type="line" smooth="yes"/>
      <point x="587" y="704"/>
      <point x="614" y="680"/>
      <point x="614" y="632" type="curve" smooth="yes"/>
      <point x="614" y="143" type="line"/>
      <point x="233" y="714" type="line"/>
      <point x="38" y="714" type="line"/>
      <point x="38" y="704" type="line"/>
      <point x="67" y="704" type="line" smooth="yes"/>
      <point x="121" y="704"/>
      <point x="149" y="681"/>
      <point x="149" y="636" type="curve" smooth="yes"/>
      <point x="149" y="82" type="line" smooth="yes"/>
      <point x="149" y="34"/>
      <point x="121" y="10"/>
      <point x="67" y="10" type="curve" smooth="yes"/>
      <point x="38" y="10" type="line"/>
    </contour>
  </outline>
</glyph>
<glyph name="O" format="2">
  <advance width="735"/>
  <unicode hex="004F"/>
  <anchor x="369" y="0" name="bottom"/>
  <anchor x="368" y="357" name="center"/>
  <anchor x="368" y="725" name="top"/>
  <anchor x="716" y="725" name="topright"/>
  <outline>
    <contour>
      <point x="678" y="358" type="curve" smooth="yes"/>
      <point x="678" y="580"/>
      <point x="571" y="725"/>
      <point x="369" y="725" type="curve" smooth="yes"/>
      <point x="158" y="725"/>
      <point x="57" y="578"/>
      <point x="57" y="359" type="curve" smooth="yes"/>
      <point x="57" y="138"/>
      <point x="158" y="-10"/>
      <point x="368" y="-10" type="curve" smooth="yes"/>
      <point x="571" y="-10"/>
      <point x="678" y="137"/>
    </contour>
    <contour>
      <point x="151" y="358" type="curve" smooth="yes"/>
      <point x="151" y="538"/>
      <point x="219" y="646"/>
      <point x="369" y="646" type="curve" smooth="yes"/>
      <point x="518" y="646"/>
      <point x="584" y="538"/>
      <point x="584" y="358" type="curve" smooth="yes"/>
      <point x="584" y="178"/>
      <point x="518" y="68"/>
      <point x="368" y="68" type="curve" smooth="yes"/>
      <point x="219" y="68"/>
      <point x="151" y="178"/>
    </contour>
  </outline>
</glyph>
<glyph name="O.serif" format="2">
  <advance width="742"/>
  <unicode hex="004F"/>
  <anchor x="371" y="0" name="bottom"/>
  <anchor x="371" y="357" name="center"/>
  <anchor x="371" y="714" name="top"/>
  <anchor x="722" y="714" name="topright"/>
  <outline>
    <contour>
      <point x="371" y="-10" type="curve" smooth="yes"/>
      <point x="573" y="-10"/>
      <point x="685" y="137"/>
      <point x="685" y="358" type="curve" smooth="yes"/>
      <point x="685" y="580"/>
      <point x="573" y="725"/>
      <point x="372" y="725" type="curve" smooth="yes"/>
      <point x="159" y="725"/>
      <point x="56" y="580"/>
      <point x="56" y="359" type="curve" smooth="yes"/>
      <point x="56" y="137"/>
      <point x="159" y="-10"/>
    </contour>
    <contour>
      <point x="371" y="0" type="curve" smooth="yes"/>
      <point x="228" y="0"/>
      <point x="167" y="107"/>
      <point x="167" y="358" type="curve" smooth="yes"/>
      <point x="167" y="608"/>
      <point x="229" y="715"/>
      <point x="372" y="715" type="curve" smooth="yes"/>
      <point x="513" y="715"/>
      <point x="574" y="608"/>
      <point x="574" y="358" type="curve" smooth="yes"/>
      <point x="574" y="107"/>
      <point x="513" y="0"/>
    </contour>
  </outline>
</glyph>
<glyph name="P" format="2">
  <advance width="571"/>
  <unicode hex="0050"/>
  <anchor x="286" y="0" name="bottom"/>
  <anchor x="299" y="714" name="top"/>
  <anchor x="552" y="714" name="topright"/>
  <outline>
    <contour>
      <point x="271" y="714" type="curve" smooth="yes"/>
      <point x="91" y="714" type="line"/>
      <point x="91" y="0" type="line"/>
      <point x="180" y="0" type="line"/>
      <point x="180" y="278" type="line"/>
      <point x="256" y="278" type="line" smooth="yes"/>
      <point x="457" y="278"/>
      <point x="523" y="386"/>
      <point x="523" y="504" type="curve" smooth="yes"/>
      <point x="523" y="637"/>
      <point x="447" y="714"/>
    </contour>
    <contour>
      <point x="264" y="637" type="line"/>
      <point x="379" y="637"/>
      <point x="431" y="592"/>
      <point x="431" y="500" type="curve" smooth="yes"/>
      <point x="431" y="395"/>
      <point x="370" y="355"/>
      <point x="246" y="355" type="curve" smooth="yes"/>
      <point x="180" y="355" type="line"/>
      <point x="180" y="637" type="line"/>
    </contour>
  </outline>
</glyph>
<glyph name="P.serif" format="2">
  <advance width="604"/>
  <unicode hex="0050"/>
  <anchor x="184" y="0" name="bottom"/>
  <anchor x="302" y="714" name="top"/>
  <anchor x="589" y="714" name="topright"/>
  <outline>
    <contour>
      <point x="38" y="0" type="line"/>
      <point x="329" y="0" type="line"/>
      <point x="329" y="10" type="line"/>
      <point x="316" y="10" type="line" smooth="yes"/>
      <point x="261" y="10"/>
      <point x="234" y="34"/>
      <point x="234" y="82" type="curve" smooth="yes"/>
      <point x="234" y="278" type="line"/>
      <point x="297" y="278" type="line" smooth="yes"/>
      <point x="495" y="278"/>
      <point x="565" y="386"/>
      <point x="565" y="505" type="curve" smooth="yes"/>
      <point x="565" y="635"/>
      <point x="487" y="714"/>
      <point x="319" y="714" type="curve" smooth="yes"/>
      <point x="38" y="714" type="line"/>
      <point x="38" y="704" type="line"/>
      <point x="51" y="704" type="line" smooth="yes"/>
      <point x="105" y="704"/>
      <point x="133" y="681"/>
      <point x="133" y="636" type="curve" smooth="yes"/>
      <point x="133" y="82" type="line" smooth="yes"/>
      <point x="133" y="34"/>
      <point x="105" y="10"/>
      <point x="51" y="10" type="curve" smooth="yes"/>
      <point x="38" y="10" type="line"/>
    </contour>
    <contour>
      <point x="287" y="288" type="curve" smooth="yes"/>
      <point x="234" y="288" type="line"/>
      <point x="234" y="704" type="line"/>
      <point x="302" y="704" type="line" smooth="yes"/>
      <point x="414" y="704"/>
      <point x="457" y="647"/>
      <point x="457" y="501" type="curve" smooth="yes"/>
      <point x="457" y="348"/>
      <point x="409" y="288"/>
    </contour>
  </outline>
</glyph>
<glyph name="Q" format="2">
  <advance width="735"/>
  <unicode hex="0051"/>
  <anchor x="368" y="-170" name="bottom"/>
  <anchor x="368" y="725" name="top"/>
  <anchor x="716" y="725" name="topright"/>
  <outline>
    <contour>
      <point x="678" y="358" type="curve" smooth="yes"/>
      <point x="678" y="580"/>
      <point x="571" y="725"/>
      <point x="369" y="725" type="curve" smooth="yes"/>
      <point x="158" y="725"/>
      <point x="57" y="578"/>
      <point x="57" y="359" type="curve" smooth="yes"/>
      <point x="57" y="138"/>
      <point x="158" y="-10"/>
      <point x="368" y="-10" type="curve" smooth="yes"/>
      <point x="375" y="-10"/>
      <point x="383" y="-9"/>
      <point x="390" y="-9" type="curve"/>
      <point x="520" y="-170" type="line"/>
      <point x="646" y="-170" type="line"/>
      <point x="485" y="8" type="line"/>
      <point x="612" y="54"/>
      <point x="678" y="183"/>
    </contour>
    <contour>
      <point x="151" y="358" type="curve" smooth="yes"/>
      <point x="151" y="538"/>
      <point x="219" y="646"/>
      <point x="369" y="646" type="curve" smooth="yes"/>
      <point x="518" y="646"/>
      <point x="584" y="538"/>
      <point x="584" y="358" type="curve" smooth="yes"/>
      <point x="584" y="178"/>
      <point x="518" y="68"/>
      <point x="368" y="68" type="curve" smooth="yes"/>
      <point x="219" y="68"/>
      <point x="151" y="178"/>
    </contour>
  </outline>
</glyph>
<glyph name="Q.serif" format="2">
  <advance width="742"/>
  <unicode hex="0051"/>
  <anchor x="371" y="-230" name="bottom"/>
  <anchor x="371" y="714" name="top"/>
  <anchor x="722" y="714" name="topright"/>
  <outline>
    <contour>
      <point x="559" y="-230" type="curve" smooth="yes"/>
      <point x="602" y="-230" type="line"/>
      <point x="602" y="-220" type="line"/>
      <point x="586" y="-220" type="line" smooth="yes"/>
      <point x="505" y="-220"/>
      <point x="447" y="-178"/>
      <point x="438" y="-4" type="curve"/>
      <point x="598" y="25"/>
      <point x="685" y="163"/>
      <point x="685" y="358" type="curve" smooth="yes"/>
      <point x="685" y="580"/>
      <point x="573" y="725"/>
      <point x="372" y="725" type="curve" smooth="yes"/>
      <point x="159" y="725"/>
      <point x="56" y="580"/>
      <point x="56" y="359" type="curve" smooth="yes"/>
      <point x="56" y="153"/>
      <point x="145" y="11"/>
      <point x="328" y="-8" type="curve"/>
      <point x="342" y="-179"/>
      <point x="453" y="-230"/>
    </contour>
    <contour>
      <point x="371" y="0" type="curve" smooth="yes"/>
      <point x="228" y="0"/>
      <point x="167" y="107"/>
      <point x="167" y="358" type="curve" smooth="yes"/>
      <point x="167" y="608"/>
      <point x="229" y="715"/>
      <point x="372" y="715" type="curve" smooth="yes"/>
      <point x="513" y="715"/>
      <point x="574" y="608"/>
      <point x="574" y="358" type="curve" smooth="yes"/>
      <point x="574" y="107"/>
      <point x="513" y="0"/>
    </contour>
  </outline>
</glyph>
<glyph name="R" format="2">
  <advance width="588"/>
  <unicode hex="0052"/>
  <anchor x="311" y="0" name="bottom"/>
  <anchor x="295" y="714" name="top"/>
  <anchor x="569" y="714" name="topright"/>
  <outline>
    <contour>
      <point x="277" y="714" type="curve" smooth="yes"/>
      <point x="91" y="714" type="line"/>
      <point x="91" y="0" type="line"/>
      <point x="180" y="0" type="line"/>
      <point x="180" y="295" type="line"/>
      <point x="309" y="295" type="line"/>
      <point x="471" y="0" type="line"/>
      <point x="575" y="0" type="line"/>
      <point x="389" y="320" type="line"/>
      <point x="457" y="345"/>
      <point x="523" y="397"/>
      <point x="523" y="511" type="curve" smooth="yes"/>
      <point x="523" y="647"/>
      <point x="445" y="714"/>
    </contour>
    <contour>
      <point x="272" y="636" type="line"/>
      <point x="380" y="636"/>
      <point x="431" y="600"/>
      <point x="431" y="507" type="curve" smooth="yes"/>
      <point x="431" y="417"/>
      <point x="384" y="371"/>
      <point x="276" y="371" type="curve" smooth="yes"/>
      <point x="180" y="371" type="line"/>
      <point x="180" y="636" type="line"/>
    </contour>
  </outline>
</glyph>
<glyph name="S" format="2">
  <advance width="517"/>
  <unicode hex="0053"/>
  <anchor x="243" y="0" name="bottom"/>
  <anchor x="268" y="714" name="top"/>
  <anchor x="498" y="714" name="topright"/>
  <outline>
    <contour>
      <point x="473" y="191" type="curve" smooth="yes"/>
      <point x="473" y="303"/>
      <point x="408" y="350"/>
      <point x="291" y="397" type="curve" smooth="yes"/>
      <point x="184" y="440"/>
      <point x="146" y="469"/>
      <point x="146" y="541" type="curve" smooth="yes"/>
      <point x="146" y="603"/>
      <point x="188" y="645"/>
      <point x="270" y="645" type="curve" smooth="yes"/>
      <point x="327" y="645"/>
      <point x="382" y="628"/>
      <point x="430" y="607" type="curve"/>
      <point x="458" y="684" type="line"/>
      <point x="406" y="708"/>
      <point x="345" y="724"/>
      <point x="272" y="724" type="curve" smooth="yes"/>
      <point x="144" y="724"/>
      <point x="56" y="655"/>
      <point x="56" y="542" type="curve" smooth="yes"/>
      <point x="56" y="431"/>
      <point x="117" y="374"/>
      <point x="228" y="330" type="curve" smooth="yes"/>
      <point x="346" y="283"/>
      <point x="384" y="253"/>
      <point x="384" y="183" type="curve" smooth="yes"/>
      <point x="384" y="112"/>
      <point x="334" y="68"/>
      <point x="237" y="68" type="curve" smooth="yes"/>
      <point x="166" y="68"/>
      <point x="95" y="89"/>
      <point x="48" y="110" type="curve"/>
      <point x="48" y="24" type="line"/>
      <point x="91" y="2"/>
      <point x="158" y="-10"/>
      <point x="233" y="-10" type="curve" smooth="yes"/>
      <point x="380" y="-10"/>
      <point x="473" y="64"/>
    </contour>
  </outline>
</glyph>
<glyph name="S.serif" format="2">
  <advance width="544"/>
  <unicode hex="0053"/>
  <anchor x="272" y="0" name="bottom"/>
  <anchor x="272" y="714" name="top"/>
  <anchor x="524" y="714" name="topright"/>
  <outline>
    <contour>
      <point x="258" y="-10" type="curve" smooth="yes"/>
      <point x="407" y="-10"/>
      <point x="493" y="65"/>
      <point x="493" y="187" type="curve" smooth="yes"/>
      <point x="493" y="310"/>
      <point x="406" y="352"/>
      <point x="306" y="398" type="curve" smooth="yes"/>
      <point x="195" y="449"/>
      <point x="142" y="478"/>
      <point x="142" y="576" type="curve" smooth="yes"/>
      <point x="142" y="667"/>
      <point x="192" y="714"/>
      <point x="269" y="714" type="curve" smooth="yes"/>
      <point x="353" y="714"/>
      <point x="386" y="657"/>
      <point x="386" y="547" type="curve"/>
      <point x="433" y="547"/>
      <point x="465" y="570"/>
      <point x="465" y="609" type="curve" smooth="yes"/>
      <point x="465" y="671"/>
      <point x="387" y="724"/>
      <point x="270" y="724" type="curve" smooth="yes"/>
      <point x="142" y="724"/>
      <point x="59" y="660"/>
      <point x="59" y="540" type="curve" smooth="yes"/>
      <point x="59" y="408"/>
      <point x="159" y="360"/>
      <point x="243" y="321" type="curve" smooth="yes"/>
      <point x="361" y="266"/>
      <point x="408" y="238"/>
      <point x="408" y="148" type="curve" smooth="yes"/>
      <point x="408" y="50"/>
      <point x="350" y="0"/>
      <point x="265" y="0" type="curve" smooth="yes"/>
      <point x="167" y="0"/>
      <point x="121" y="67"/>
      <point x="120" y="198" type="curve"/>
      <point x="74" y="198"/>
      <point x="48" y="173"/>
      <point x="48" y="128" type="curve" smooth="yes"/>
      <point x="48" y="49"/>
      <point x="126" y="-10"/>
    </contour>
  </outline>
</glyph>
<glyph name="T" format="2">
  <advance width="524"/>
  <unicode hex="0054"/>
  <anchor x="262" y="0" name="bottom"/>
  <anchor x="262" y="357" name="center"/>
  <anchor x="262" y="714" name="top"/>
  <anchor x="505" y="714" name="topright"/>
  <outline>
    <contour>
      <point x="307" y="0" type="line"/>
      <point x="307" y="635" type="line"/>
      <point x="513" y="635" type="line"/>
      <point x="513" y="714" type="line"/>
      <point x="10" y="714" type="line"/>
      <point x="10" y="635" type="line"/>
      <point x="218" y="635" type="line"/>
      <point x="218" y="0" type="line"/>
    </contour>
  </outline>
</glyph>
<glyph name="U" format="2">
  <advance width="689"/>
  <unicode hex="0055"/>
  <anchor x="343" y="0" name="bottom"/>
  <anchor x="345" y="714" name="top"/>
  <anchor x="670" y="714" name="topright"/>
  <outline>
    <contour>
      <point x="604" y="252" type="curve" smooth="yes"/>
      <point x="604" y="714" type="line"/>
      <point x="515" y="714" type="line"/>
      <point x="515" y="252" type="line" smooth="yes"/>
      <point x="515" y="144"/>
      <point x="465" y="68"/>
      <point x="346" y="68" type="curve" smooth="yes"/>
      <point x="230" y="68"/>
      <point x="173" y="135"/>
      <point x="173" y="251" type="curve" smooth="yes"/>
      <point x="173" y="714" type="line"/>
      <point x="84" y="714" type="line"/>
      <point x="84" y="254" type="line" smooth="yes"/>
      <point x="84" y="95"/>
      <point x="173" y="-10"/>
      <point x="341" y="-10" type="curve" smooth="yes"/>
      <point x="519" y="-10"/>
      <point x="604" y="104"/>
    </contour>
  </outline>
</glyph>
<glyph name="U.serif" format="2">
  <advance width="717"/>
  <unicode hex="0055"/>
  <anchor x="359" y="0" name="bottom"/>
  <anchor x="389" y="714" name="top"/>
  <anchor x="723" y="714" name="topright"/>
  <outline>
    <contour>
      <point x="362" y="-10" type="curve" smooth="yes"/>
      <point x="521" y="-10"/>
      <point x="607" y="71"/>
      <point x="607" y="204" type="curve" smooth="yes"/>
      <point x="607" y="632" type="line" smooth="yes"/>
      <point x="607" y="680"/>
      <point x="634" y="704"/>
      <point x="689" y="704" type="curve" smooth="yes"/>
      <point x="702" y="704" type="line"/>
      <point x="702" y="714" type="line"/>
      <point x="502" y="714" type="line"/>
      <point x="502" y="704" type="line"/>
      <point x="515" y="704" type="line" smooth="yes"/>
      <point x="569" y="704"/>
      <point x="597" y="681"/>
      <point x="597" y="636" type="curve" smooth="yes"/>
      <point x="597" y="206" type="line" smooth="yes"/>
      <point x="597" y="81"/>
      <point x="514" y="5"/>
      <point x="378" y="5" type="curve" smooth="yes"/>
      <point x="281" y="5"/>
      <point x="211" y="49"/>
      <point x="211" y="210" type="curve" smooth="yes"/>
      <point x="211" y="633" type="line" smooth="yes"/>
      <point x="211" y="681"/>
      <point x="238" y="704"/>
      <point x="293" y="704" type="curve" smooth="yes"/>
      <point x="306" y="704" type="line"/>
      <point x="306" y="714" type="line"/>
      <point x="15" y="714" type="line"/>
      <point x="15" y="704" type="line"/>
      <point x="28" y="704" type="line" smooth="yes"/>
      <point x="82" y="704"/>
      <point x="110" y="681"/>
      <point x="110" y="636" type="curve" smooth="yes"/>
      <point x="110" y="216" type="line" smooth="yes"/>
      <point x="110" y="53"/>
      <point x="204" y="-10"/>
    </contour>
  </outline>
</glyph>
<glyph name="V" format="2">
  <advance width="568"/>
  <unicode hex="0056"/>
  <anchor x="283" y="0" name="bottom"/>
  <anchor x="286" y="714" name="top"/>
  <anchor x="549" y="714" name="topright"/>
  <outline>
    <contour>
      <point x="568" y="714" type="line"/>
      <point x="474" y="714" type="line"/>
      <point x="326" y="258" type="line" smooth="yes"/>
      <point x="307" y="198"/>
      <point x="292" y="147"/>
      <point x="284" y="100" type="curve"/>
      <point x="275" y="147"/>
      <point x="261" y="197"/>
      <point x="242" y="256" type="curve" smooth="yes"/>
      <point x="93" y="714" type="line"/>
      <point x="0" y="714" type="line"/>
      <point x="239" y="0" type="line"/>
      <point x="329" y="0" type="line"/>
    </contour>
  </outline>
</glyph>
<glyph name="V.serif" format="2">
  <advance width="675"/>
  <unicode hex="0056"/>
  <anchor x="338" y="0" name="bottom"/>
  <anchor x="348" y="714" name="top"/>
  <anchor x="695" y="714" name="topright"/>
  <outline>
    <contour>
      <point x="85" y="650" type="curve" smooth="yes"/>
      <point x="314" y="0" type="line"/>
      <point x="357" y="0" type="line"/>
      <point x="564" y="627" type="line" smooth="yes"/>
      <point x="583" y="685"/>
      <point x="601" y="704"/>
      <point x="639" y="704" type="curve" smooth="yes"/>
      <point x="675" y="704" type="line"/>
      <point x="675" y="714" type="line"/>
      <point x="431" y="714" type="line"/>
      <point x="431" y="704" type="line"/>
      <point x="490" y="704" type="line" smooth="yes"/>
      <point x="536" y="704"/>
      <point x="557" y="693"/>
      <point x="557" y="661" type="curve" smooth="yes"/>
      <point x="557" y="648"/>
      <point x="553" y="632"/>
      <point x="546" y="611" type="curve" smooth="yes"/>
      <point x="432" y="262" type="line" smooth="yes"/>
      <point x="413" y="205"/>
      <point x="392" y="139"/>
      <point x="377" y="88" type="curve"/>
      <point x="364" y="138"/>
      <point x="346" y="196"/>
      <point x="323" y="262" type="curve" smooth="yes"/>
      <point x="199" y="619" type="line" smooth="yes"/>
      <point x="192" y="638"/>
      <point x="189" y="654"/>
      <point x="189" y="666" type="curve" smooth="yes"/>
      <point x="189" y="694"/>
      <point x="208" y="704"/>
      <point x="251" y="704" type="curve" smooth="yes"/>
      <point x="275" y="704" type="line"/>
      <point x="275" y="714" type="line"/>
      <point x="0" y="714" type="line"/>
      <point x="0" y="704" type="line"/>
      <point x="13" y="704" type="line" smooth="yes"/>
      <point x="54" y="704"/>
      <point x="71" y="691"/>
    </contour>
  </outline>
</glyph>
<glyph name="W" format="2">
  <advance width="876"/>
  <unicode hex="0057"/>
  <anchor x="432" y="0" name="bottom"/>
  <anchor x="438" y="714" name="top"/>
  <anchor x="858" y="714" name="topright"/>
  <outline>
    <contour>
      <point x="865" y="714" type="line"/>
      <point x="773" y="714" type="line"/>
      <point x="671" y="279" type="line" smooth="yes"/>
      <point x="656" y="216"/>
      <point x="644" y="157"/>
      <point x="638" y="108" type="curve"/>
      <point x="631" y="154"/>
      <point x="619" y="218"/>
      <point x="602" y="280" type="curve" smooth="yes"/>
      <point x="481" y="714" type="line"/>
      <point x="389" y="714" type="line"/>
      <point x="273" y="283" type="line" smooth="yes"/>
      <point x="257" y="224"/>
      <point x="244" y="160"/>
      <point x="237" y="108" type="curve"/>
      <point x="231" y="158"/>
      <point x="220" y="217"/>
      <point x="206" y="278" type="curve" smooth="yes"/>
      <point x="103" y="714" type="line"/>
      <point x="10" y="714" type="line"/>
      <point x="187" y="0" type="line"/>
      <point x="279" y="0" type="line"/>
      <point x="403" y="465" type="line" smooth="yes"/>
      <point x="419" y="526"/>
      <point x="432" y="591"/>
      <point x="435" y="609" type="curve"/>
      <point x="437" y="591"/>
      <point x="453" y="525"/>
      <point x="469" y="468" type="curve" smooth="yes"/>
      <point x="596" y="0" type="line"/>
      <point x="687" y="0" type="line"/>
    </contour>
  </outline>
</glyph>
<glyph name="W.serif" format="2">
  <advance width="1047"/>
  <unicode hex="0057"/>
  <anchor x="524" y="0" name="bottom"/>
  <anchor x="534" y="714" name="top"/>
  <anchor x="1037" y="714" name="topright"/>
  <outline>
    <contour>
      <point x="93" y="651" type="curve" smooth="yes"/>
      <point x="291" y="0" type="line"/>
      <point x="353" y="0" type="line"/>
      <point x="501" y="597" type="line"/>
      <point x="699" y="0" type="line"/>
      <point x="759" y="0" type="line"/>
      <point x="925" y="626" type="line" smooth="yes"/>
      <point x="941" y="685"/>
      <point x="959" y="704"/>
      <point x="1001" y="704" type="curve" smooth="yes"/>
      <point x="1020" y="704" type="line"/>
      <point x="1020" y="714" type="line"/>
      <point x="826" y="714" type="line"/>
      <point x="826" y="704" type="line"/>
      <point x="849" y="704" type="line" smooth="yes"/>
      <point x="896" y="704"/>
      <point x="917" y="692"/>
      <point x="917" y="656" type="curve" smooth="yes"/>
      <point x="917" y="642"/>
      <point x="914" y="625"/>
      <point x="908" y="603" type="curve" smooth="yes"/>
      <point x="797" y="183" type="line" smooth="yes"/>
      <point x="780" y="120"/>
      <point x="778" y="113"/>
      <point x="767" y="68" type="curve"/>
      <point x="756" y="114"/>
      <point x="735" y="191"/>
      <point x="707" y="274" type="curve" smooth="yes"/>
      <point x="561" y="707" type="line"/>
      <point x="519" y="707" type="line"/>
      <point x="400" y="240" type="line" smooth="yes"/>
      <point x="384" y="176"/>
      <point x="369" y="119"/>
      <point x="361" y="80" type="curve"/>
      <point x="348" y="145"/>
      <point x="334" y="207"/>
      <point x="316" y="267" type="curve" smooth="yes"/>
      <point x="209" y="619" type="line" smooth="yes"/>
      <point x="204" y="637"/>
      <point x="201" y="652"/>
      <point x="201" y="664" type="curve" smooth="yes"/>
      <point x="201" y="693"/>
      <point x="219" y="704"/>
      <point x="261" y="704" type="curve" smooth="yes"/>
      <point x="284" y="704" type="line"/>
      <point x="284" y="714" type="line"/>
      <point x="9" y="714" type="line"/>
      <point x="9" y="704" type="line"/>
      <point x="22" y="704" type="line" smooth="yes"/>
      <point x="64" y="704"/>
      <point x="81" y="691"/>
    </contour>
  </outline>
</glyph>
<glyph name="X" format="2">
  <advance width="556"/>
  <unicode hex="0058"/>
  <anchor x="278" y="0" name="bottom"/>
  <anchor x="277" y="714" name="top"/>
  <anchor x="537" y="714" name="topright"/>
  <outline>
    <contour>
      <point x="553" y="0" type="line"/>
      <point x="329" y="374" type="line"/>
      <point x="537" y="714" type="line"/>
      <point x="443" y="714" type="line"/>
      <point x="279" y="434" type="line"/>
      <point x="116" y="714" type="line"/>
      <point x="17" y="714" type="line"/>
      <point x="226" y="372" type="line"/>
      <point x="3" y="0" type="line"/>
      <point x="97" y="0" type="line"/>
      <point x="276" y="310" type="line"/>
      <point x="452" y="0" type="line"/>
    </contour>
  </outline>
</glyph>
<glyph name="Y" format="2">
  <advance width="536"/>
  <unicode hex="0059"/>
  <anchor x="268" y="0" name="bottom"/>
  <anchor x="268" y="714" name="top"/>
  <anchor x="517" y="714" name="topright"/>
  <outline>
    <contour>
      <point x="268" y="363" type="line"/>
      <point x="97" y="714" type="line"/>
      <point x="0" y="714" type="line"/>
      <point x="224" y="273" type="line"/>
      <point x="224" y="0" type="line"/>
      <point x="313" y="0" type="line"/>
      <point x="313" y="277" type="line"/>
      <point x="536" y="714" type="line"/>
      <point x="440" y="714" type="line"/>
    </contour>
  </outline>
</glyph>
<glyph name="Y.serif" format="2">
  <advance width="625"/>
  <unicode hex="0059"/>
  <anchor x="313" y="0" name="bottom"/>
  <anchor x="333" y="714" name="top"/>
  <anchor x="605" y="714" name="topright"/>
  <outline>
    <contour>
      <point x="159" y="0" type="line"/>
      <point x="470" y="0" type="line"/>
      <point x="470" y="10" type="line"/>
      <point x="447" y="10" type="line" smooth="yes"/>
      <point x="392" y="10"/>
      <point x="365" y="34"/>
      <point x="365" y="82" type="curve" smooth="yes"/>
      <point x="365" y="311" type="line"/>
      <point x="528" y="626" type="line" smooth="yes"/>
      <point x="559" y="685"/>
      <point x="578" y="704"/>
      <point x="610" y="704" type="curve" smooth="yes"/>
      <point x="635" y="704" type="line"/>
      <point x="635" y="714" type="line"/>
      <point x="421" y="714" type="line"/>
      <point x="421" y="704" type="line"/>
      <point x="461" y="704" type="line" smooth="yes"/>
      <point x="506" y="704"/>
      <point x="527" y="695"/>
      <point x="527" y="669" type="curve" smooth="yes"/>
      <point x="527" y="653"/>
      <point x="519" y="630"/>
      <point x="503" y="600" type="curve" smooth="yes"/>
      <point x="427" y="453" type="line" smooth="yes"/>
      <point x="400" y="402"/>
      <point x="376" y="353"/>
      <point x="360" y="322" type="curve"/>
      <point x="346" y="353"/>
      <point x="324" y="400"/>
      <point x="296" y="453" type="curve" smooth="yes"/>
      <point x="210" y="619" type="line" smooth="yes"/>
      <point x="197" y="645"/>
      <point x="190" y="664"/>
      <point x="190" y="677" type="curve" smooth="yes"/>
      <point x="190" y="697"/>
      <point x="205" y="704"/>
      <point x="236" y="704" type="curve" smooth="yes"/>
      <point x="270" y="704" type="line"/>
      <point x="270" y="714" type="line"/>
      <point x="-5" y="714" type="line"/>
      <point x="-5" y="704" type="line"/>
      <point x="15" y="704" type="line" smooth="yes"/>
      <point x="48" y="704"/>
      <point x="65" y="691"/>
      <point x="86" y="651" type="curve" smooth="yes"/>
      <point x="264" y="313" type="line"/>
      <point x="264" y="82" type="line" smooth="yes"/>
      <point x="264" y="34"/>
      <point x="236" y="10"/>
      <point x="182" y="10" type="curve" smooth="yes"/>
      <point x="159" y="10" type="line"/>
    </contour>
  </outline>
</glyph>
<glyph name="Z" format="2">
  <advance width="539"/>
  <unicode hex="005A"/>
  <anchor x="280" y="0" name="bottom"/>
  <anchor x="273" y="714" name="top"/>
  <anchor x="520" y="714" name="topright"/>
  <outline>
    <contour>
      <point x="503" y="0" type="line"/>
      <point x="503" y="80" type="line"/>
      <point x="143" y="80" type="line"/>
      <point x="494" y="646" type="line"/>
      <point x="494" y="714" type="line"/>
      <point x="46" y="714" type="line"/>
      <point x="46" y="634" type="line"/>
      <point x="386" y="634" type="line"/>
      <point x="35" y="68" type="line"/>
      <point x="35" y="0" type="line"/>
    </contour>
  </outline>
</glyph>
<glyph name="Z.serif" format="2">
  <advance width="592"/>
  <unicode hex="005A"/>
  <anchor x="296" y="0" name="bottom"/>
  <anchor x="296" y="714" name="top"/>
  <anchor x="572" y="714" name="topright"/>
  <outline>
    <contour>
      <point x="36" y="0" type="line"/>
      <point x="545" y="0" type="line"/>
      <point x="551" y="175" type="line"/>
      <point x="541" y="175" type="line"/>
      <point x="539" y="150" type="line" smooth="yes"/>
      <point x="530" y="44"/>
      <point x="494" y="10"/>
      <point x="389" y="10" type="curve" smooth="yes"/>
      <point x="149" y="10" type="line"/>
      <point x="534" y="704" type="line"/>
      <point x="534" y="714" type="line"/>
      <point x="60" y="714" type="line"/>
      <point x="54" y="539" type="line"/>
      <point x="64" y="539" type="line"/>
      <point x="65" y="564" type="line" smooth="yes"/>
      <point x="69" y="670"/>
      <point x="105" y="704"/>
      <point x="215" y="704" type="curve" smooth="yes"/>
      <point x="421" y="704" type="line"/>
      <point x="36" y="10" type="line"/>
    </contour>
  </outline>
</glyph>
<glyph name="bracketleft" format="2">
  <advance width="309"/>
  <unicode hex="005B"/>
  <outline>
    <contour>
      <point x="285" y="-158" type="line"/>
      <point x="285" y="-86" type="line"/>
      <point x="158" y="-86" type="line"/>
      <point x="158" y="642" type="line"/>
      <point x="285" y="642" type="line"/>
      <point x="285" y="714" type="line"/>
      <point x="74" y="714" type="line"/>
      <point x="74" y="-158" type="line"/>
    </contour>
  </outline>
</glyph>
<glyph name="bracketleft.serif" format="2">
  <advance width="360"/>
  <unicode hex="005B"/>
  <outline>
    <contour>
      <point x="100" y="-128" type="line"/>
      <point x="323" y="-128" type="line"/>
      <point x="323" y="-118" type="line"/>
      <point x="280" y="-118" type="line" smooth="yes"/>
      <point x="218" y="-118"/>
      <point x="198" y="-101"/>
      <point x="198" y="-46" type="curve" smooth="yes"/>
      <point x="198" y="678" type="line" smooth="yes"/>
      <point x="198" y="733"/>
      <point x="218" y="750"/>
      <point x="280" y="750" type="curve" smooth="yes"/>
      <point x="323" y="750" type="line"/>
      <point x="323" y="760" type="line"/>
      <point x="100" y="760" type="line"/>
    </contour>
  </outline>
</glyph>
<glyph name="bracketright" format="2">
  <advance width="309"/>
  <unicode hex="005D"/>
  <outline>
    <contour>
      <point x="24" y="-86" type="line"/>
      <point x="24" y="-158" type="line"/>
      <point x="235" y="-158" type="line"/>
      <point x="235" y="714" type="line"/>
      <point x="24" y="714" type="line"/>
      <point x="24" y="642" type="line"/>
      <point x="152" y="642" type="line"/>
      <point x="152" y="-86" type="line"/>
    </contour>
  </outline>
</glyph>
<glyph name="asciicircum" format="2">
  <advance width="538"/>
  <unicode hex="005E"/>
  <outline>
    <contour>
      <point x="35" y="267" type="line"/>
      <point x="111" y="267" type="line"/>
      <point x="260" y="626" type="line"/>
      <point x="427" y="267" type="line"/>
      <point x="503" y="267" type="line"/>
      <point x="283" y="719" type="line"/>
      <point x="234" y="719" type="line"/>
    </contour>
  </outline>
</glyph>
<glyph name="grave" format="2">
  <advance width="275"/>
  <unicode hex="0060"/>
  <outline>
    <contour>
      <point x="143" y="766" type="curve"/>
      <point x="40" y="766" type="line"/>
      <point x="40" y="756" type="line"/>
      <point x="63" y="719"/>
      <point x="133" y="642"/>
      <point x="176" y="606" type="curve"/>
      <point x="235" y="606" type="line"/>
      <point x="235" y="618" type="line"/>
      <point x="206" y="655"/>
      <point x="164" y="721"/>
    </contour>
  </outline>
</glyph>
<glyph name="grave.serif" format="2">
  <advance width="254"/>
  <unicode hex="0060"/>
  <outline>
    <contour>
      <point x="204" y="606" type="curve"/>
      <point x="214" y="606" type="line"/>
      <point x="214" y="616" type="line"/>
      <point x="186" y="659"/>
      <point x="151" y="721"/>
      <point x="130" y="766" type="curve"/>
      <point x="40" y="766" type="line"/>
      <point x="40" y="756" type="line"/>
      <point x="69" y="721"/>
      <point x="152" y="647"/>
    </contour>
  </outline>
</glyph>
<glyph name="a.serif" format="2">
  <advance width="563"/>
  <unicode hex="0061"/>
  <anchor x="419" y="0" name="bottom"/>
  <anchor x="282" y="536" name="top"/>
  <anchor x="543" y="536" name="topright"/>
  <outline>
    <contour>
      <point x="215" y="-10" type="curve" smooth="yes"/>
      <point x="288" y="-10"/>
      <point x="346" y="25"/>
      <point x="367" y="105" type="curve"/>
      <point x="369" y="105" type="line"/>
      <point x="369" y="0" type="line"/>
      <point x="520" y="0" type="line"/>
      <point x="520" y="10" type="line"/>
      <point x="517" y="10" type="line" smooth="yes"/>
      <point x="472" y="10"/>
      <point x="455" y="26"/>
      <point x="455" y="74" type="curve" smooth="yes"/>
      <point x="455" y="373" type="line" smooth="yes"/>
      <point x="455" y="500"/>
      <point x="394" y="546"/>
      <point x="272" y="546" type="curve" smooth="yes"/>
      <point x="173" y="546"/>
      <point x="92" y="519"/>
      <point x="92" y="447" type="curve" smooth="yes"/>
      <point x="92" y="404"/>
      <point x="121" y="387"/>
      <point x="177" y="387" type="curve"/>
      <point x="177" y="490"/>
      <point x="191" y="536"/>
      <point x="268" y="536" type="curve" smooth="yes"/>
      <point x="350" y="536"/>
      <point x="361" y="485"/>
      <point x="361" y="373" type="curve" smooth="yes"/>
      <point x="361" y="298" type="line"/>
      <point x="278" y="295" type="line" smooth="yes"/>
      <point x="125" y="290"/>
      <point x="50" y="241"/>
      <point x="50" y="138" type="curve" smooth="yes"/>
      <point x="50" y="46"/>
      <point x="113" y="-10"/>
    </contour>
    <contour>
      <point x="235" y="4" type="curve" smooth="yes"/>
      <point x="176" y="4"/>
      <point x="147" y="46"/>
      <point x="147" y="127" type="curve" smooth="yes"/>
      <point x="147" y="238"/>
      <point x="184" y="279"/>
      <point x="297" y="284" type="curve" smooth="yes"/>
      <point x="361" y="287" type="line"/>
      <point x="361" y="143" type="line" smooth="yes"/>
      <point x="361" y="68"/>
      <point x="309" y="4"/>
    </contour>
  </outline>
</glyph>
<glyph name="b" format="2">
  <advance width="579"/>
  <unicode hex="0062"/>
  <anchor x="303" y="0" name="bottom"/>
  <anchor x="316" y="760" name="top"/>
  <anchor x="486" y="760" name="topright"/>
  <outline>
    <contour>
      <point x="166" y="575" type="curve" smooth="yes"/>
      <point x="166" y="760" type="line"/>
      <point x="79" y="760" type="line"/>
      <point x="79" y="0" type="line"/>
      <point x="142" y="0" type="line"/>
      <point x="159" y="68" type="line"/>
      <point x="166" y="68" type="line"/>
      <point x="194" y="25"/>
      <point x="242" y="-10"/>
      <point x="321" y="-10" type="curve" smooth="yes"/>
      <point x="445" y="-10"/>
      <point x="528" y="84"/>
      <point x="528" y="268" type="curve" smooth="yes"/>
      <point x="528" y="452"/>
      <point x="446" y="545"/>
      <point x="321" y="545" type="curve" smooth="yes"/>
      <point x="243" y="545"/>
      <point x="194" y="510"/>
      <point x="166" y="465" type="curve"/>
      <point x="161" y="465" type="line"/>
      <point x="163" y="487"/>
      <point x="166" y="530"/>
    </contour>
    <contour>
      <point x="305" y="472" type="curve" smooth="yes"/>
      <point x="394" y="472"/>
      <point x="438" y="404"/>
      <point x="438" y="269" type="curve" smooth="yes"/>
      <point x="438" y="136"/>
      <point x="394" y="63"/>
      <point x="307" y="63" type="curve" smooth="yes"/>
      <point x="198" y="63"/>
      <point x="166" y="135"/>
      <point x="166" y="267" type="curve" smooth="yes"/>
      <point x="166" y="271" type="line" smooth="yes"/>
      <point x="166" y="408"/>
      <point x="200" y="472"/>
    </contour>
  </outline>
</glyph>
<glyph name="b.serif" format="2">
  <advance width="614"/>
  <unicode hex="0062"/>
  <anchor x="307" y="0" name="bottom"/>
  <anchor x="307" y="760" name="top"/>
  <anchor x="574" y="760" name="topright"/>
  <outline>
    <contour>
      <point x="358" y="-10" type="curve" smooth="yes"/>
      <point x="489" y="-10"/>
      <point x="559" y="86"/>
      <point x="559" y="269" type="curve" smooth="yes"/>
      <point x="559" y="452"/>
      <point x="491" y="546"/>
      <point x="360" y="546" type="curve" smooth="yes"/>
      <point x="270" y="546"/>
      <point x="220" y="498"/>
      <point x="202" y="397" type="curve"/>
      <point x="200" y="397" type="line"/>
      <point x="202" y="469"/>
      <point x="202" y="541"/>
      <point x="202" y="576" type="curve" smooth="yes"/>
      <point x="202" y="760" type="line"/>
      <point x="23" y="760" type="line"/>
      <point x="23" y="750" type="line"/>
      <point x="26" y="750" type="line" smooth="yes"/>
      <point x="85" y="750"/>
      <point x="108" y="728"/>
      <point x="108" y="672" type="curve" smooth="yes"/>
      <point x="108" y="87" type="line" smooth="yes"/>
      <point x="108" y="32"/>
      <point x="85" y="10"/>
      <point x="26" y="10" type="curve" smooth="yes"/>
      <point x="18" y="10" type="line"/>
      <point x="18" y="0" type="line"/>
      <point x="201" y="0" type="line"/>
      <point x="201" y="141" type="line"/>
      <point x="203" y="141" type="line"/>
      <point x="221" y="38"/>
      <point x="271" y="-10"/>
    </contour>
    <contour>
      <point x="341" y="5" type="curve" smooth="yes"/>
      <point x="247" y="5"/>
      <point x="202" y="90"/>
      <point x="202" y="269" type="curve" smooth="yes"/>
      <point x="202" y="442"/>
      <point x="243" y="531"/>
      <point x="340" y="531" type="curve" smooth="yes"/>
      <point x="428" y="531"/>
      <point x="462" y="458"/>
      <point x="462" y="270" type="curve" smooth="yes"/>
      <point x="462" y="79"/>
      <point x="428" y="5"/>
    </contour>
  </outline>
</glyph>
<glyph name="c" format="2">
  <advance width="454"/>
  <unicode hex="0063"/>
  <anchor x="265" y="0" name="bottom"/>
  <anchor x="267" y="536" name="top"/>
  <anchor x="434" y="536" name="topright"/>
  <outline>
    <contour>
      <point x="282" y="-10" type="curve" smooth="yes"/>
      <point x="340" y="-10"/>
      <point x="379" y="0"/>
      <point x="414" y="19" type="curve"/>
      <point x="414" y="97" type="line"/>
      <point x="378" y="80"/>
      <point x="337" y="66"/>
      <point x="282" y="66" type="curve" smooth="yes"/>
      <point x="189" y="66"/>
      <point x="141" y="137"/>
      <point x="141" y="266" type="curve" smooth="yes"/>
      <point x="141" y="400"/>
      <point x="188" y="469"/>
      <point x="286" y="469" type="curve" smooth="yes"/>
      <point x="321" y="469"/>
      <point x="365" y="456"/>
      <point x="396" y="444" type="curve"/>
      <point x="423" y="517" type="line"/>
      <point x="392" y="533"/>
      <point x="340" y="546"/>
      <point x="288" y="546" type="curve" smooth="yes"/>
      <point x="152" y="546"/>
      <point x="51" y="463"/>
      <point x="51" y="265" type="curve" smooth="yes"/>
      <point x="51" y="75"/>
      <point x="146" y="-10"/>
    </contour>
  </outline>
</glyph>
<glyph name="c.serif" format="2">
  <advance width="492"/>
  <unicode hex="0063"/>
  <anchor x="266" y="0" name="bottom"/>
  <anchor x="266" y="536" name="top"/>
  <anchor x="472" y="536" name="topright"/>
  <outline>
    <contour>
      <point x="285" y="-10" type="curve" smooth="yes"/>
      <point x="400" y="-10"/>
      <point x="457" y="45"/>
      <point x="457" y="93" type="curve" smooth="yes"/>
      <point x="457" y="111"/>
      <point x="449" y="122"/>
      <point x="436" y="125" type="curve"/>
      <point x="413" y="29"/>
      <point x="366" y="0"/>
      <point x="300" y="0" type="curve" smooth="yes"/>
      <point x="195" y="0"/>
      <point x="152" y="72"/>
      <point x="152" y="269" type="curve" smooth="yes"/>
      <point x="152" y="482"/>
      <point x="202" y="536"/>
      <point x="275" y="536" type="curve" smooth="yes"/>
      <point x="345" y="536"/>
      <point x="363" y="487"/>
      <point x="363" y="381" type="curve"/>
      <point x="420" y="381"/>
      <point x="452" y="398"/>
      <point x="452" y="442" type="curve" smooth="yes"/>
      <point x="452" y="515"/>
      <point x="361" y="546"/>
      <point x="277" y="546" type="curve" smooth="yes"/>
      <point x="151" y="546"/>
      <point x="55" y="476"/>
      <point x="55" y="270" type="curve" smooth="yes"/>
      <point x="55" y="67"/>
      <point x="149" y="-10"/>
    </contour>
  </outline>
</glyph>
<glyph name="d" format="2">
  <advance width="579"/>
  <unicode hex="0064"/>
  <anchor x="275" y="0" name="bottom"/>
  <anchor x="290" y="268" name="center"/>
  <anchor x="267" y="760" name="top"/>
  <anchor x="522" y="760" name="topright"/>
  <outline>
    <contour>
      <point x="257" y="-10" type="curve" smooth="yes"/>
      <point x="335" y="-10"/>
      <point x="383" y="26"/>
      <point x="413" y="72" type="curve"/>
      <point x="417" y="72" type="line"/>
      <point x="430" y="0" type="line"/>
      <point x="500" y="0" type="line"/>
      <point x="500" y="760" type="line"/>
      <point x="413" y="760" type="line"/>
      <point x="413" y="546" type="line" smooth="yes"/>
      <point x="413" y="526"/>
      <point x="417" y="484"/>
      <point x="419" y="467" type="curve"/>
      <point x="413" y="467" type="line"/>
      <point x="383" y="511"/>
      <point x="336" y="546"/>
      <point x="258" y="546" type="curve" smooth="yes"/>
      <point x="134" y="546"/>
      <point x="51" y="451"/>
      <point x="51" y="267" type="curve" smooth="yes"/>
      <point x="51" y="83"/>
      <point x="133" y="-10"/>
    </contour>
    <contour>
      <point x="273" y="63" type="curve" smooth="yes"/>
      <point x="184" y="63"/>
      <point x="141" y="137"/>
      <point x="141" y="265" type="curve" smooth="yes"/>
      <point x="141" y="392"/>
      <point x="184" y="473"/>
      <point x="272" y="473" type="curve" smooth="yes"/>
      <point x="381" y="473"/>
      <point x="414" y="399"/>
      <point x="414" y="266" type="curve" smooth="yes"/>
      <point x="414" y="250" type="line" smooth="yes"/>
      <point x="414" y="125"/>
      <point x="377" y="63"/>
    </contour>
  </outline>
</glyph>
<glyph name="e" format="2">
  <advance width="532"/>
  <unicode hex="0065"/>
  <anchor x="283" y="0" name="bottom"/>
  <anchor x="269" y="536" name="top"/>
  <anchor x="513" y="536" name="topright"/>
  <outline>
    <contour>
      <point x="275" y="546" type="curve" smooth="yes"/>
      <point x="141" y="546"/>
      <point x="51" y="440"/>
      <point x="51" y="264" type="curve" smooth="yes"/>
      <point x="51" y="85"/>
      <point x="150" y="-10"/>
      <point x="295" y="-10" type="curve" smooth="yes"/>
      <point x="365" y="-10"/>
      <point x="410" y="1"/>
      <point x="462" y="25" type="curve"/>
      <point x="462" y="102" type="line"/>
      <point x="409" y="78"/>
      <point x="363" y="65"/>
      <point x="299" y="65" type="curve" smooth="yes"/>
      <point x="200" y="65"/>
      <point x="144" y="130"/>
      <point x="141" y="251" type="curve"/>
      <point x="485" y="251" type="line"/>
      <point x="485" y="304" type="line" smooth="yes"/>
      <point x="485" y="450"/>
      <point x="405" y="546"/>
    </contour>
    <contour>
      <point x="275" y="474" type="curve" smooth="yes"/>
      <point x="357" y="474"/>
      <point x="394" y="412"/>
      <point x="395" y="321" type="curve"/>
      <point x="143" y="321" type="line"/>
      <point x="151" y="417"/>
      <point x="197" y="474"/>
    </contour>
  </outline>
</glyph>
<glyph name="e.serif" format="2">
  <advance width="535"/>
  <unicode hex="0065"/>
  <anchor x="278" y="0" name="bottom"/>
  <anchor x="278" y="536" name="top"/>
  <anchor x="515" y="536" name="topright"/>
  <outline>
    <contour>
      <point x="292" y="-10" type="curve" smooth="yes"/>
      <point x="407" y="-10"/>
      <point x="463" y="49"/>
      <point x="463" y="90" type="curve" smooth="yes"/>
      <point x="463" y="105"/>
      <point x="455" y="120"/>
      <point x="439" y="123" type="curve"/>
      <point x="425" y="42"/>
      <point x="370" y="0"/>
      <point x="295" y="0" type="curve" smooth="yes"/>
      <point x="192" y="0"/>
      <point x="153" y="79"/>
      <point x="152" y="283" type="curve"/>
      <point x="485" y="283" type="line"/>
      <point x="485" y="307" type="line" smooth="yes"/>
      <point x="485" y="465"/>
      <point x="406" y="546"/>
      <point x="277" y="546" type="curve" smooth="yes"/>
      <point x="135" y="546"/>
      <point x="55" y="451"/>
      <point x="55" y="264" type="curve" smooth="yes"/>
      <point x="55" y="91"/>
      <point x="142" y="-10"/>
    </contour>
    <contour>
      <point x="384" y="293" type="curve"/>
      <point x="152" y="293" type="line"/>
      <point x="159" y="468"/>
      <point x="193" y="536"/>
      <point x="275" y="536" type="curve" smooth="yes"/>
      <point x="353" y="536"/>
      <point x="384" y="468"/>
    </contour>
  </outline>
</glyph>
<glyph name="f" format="2">
  <advance width="326"/>
  <unicode hex="0066"/>
  <anchor x="145" y="0" name="bottom"/>
  <anchor x="238" y="765" name="top"/>
  <anchor x="359" y="765" name="topright"/>
  <outline>
    <contour>
      <point x="315" y="468" type="line"/>
      <point x="315" y="536" type="line"/>
      <point x="189" y="536" type="line"/>
      <point x="189" y="571" type="line" smooth="yes"/>
      <point x="189" y="655"/>
      <point x="214" y="693"/>
      <point x="268" y="693" type="curve" smooth="yes"/>
      <point x="296" y="693"/>
      <point x="323" y="685"/>
      <point x="344" y="678" type="curve"/>
      <point x="367" y="747" type="line"/>
      <point x="342" y="756"/>
      <point x="307" y="765"/>
      <point x="266" y="765" type="curve" smooth="yes"/>
      <point x="162" y="765"/>
      <point x="101" y="708"/>
      <point x="101" y="570" type="curve" smooth="yes"/>
      <point x="101" y="539" type="line"/>
      <point x="14" y="509" type="line"/>
      <point x="14" y="468" type="line"/>
      <point x="101" y="468" type="line"/>
      <point x="101" y="0" type="line"/>
      <point x="189" y="0" type="line"/>
      <point x="189" y="468" type="line"/>
    </contour>
  </outline>
</glyph>
<glyph name="f.serif" format="2">
  <advance width="369"/>
  <unicode hex="0066"/>
  <anchor x="185" y="0" name="bottom"/>
  <anchor x="285" y="770" name="top"/>
  <anchor x="439" y="770" name="topright"/>
  <outline>
    <contour>
      <point x="27" y="0" type="line"/>
      <point x="336" y="0" type="line"/>
      <point x="336" y="10" type="line"/>
      <point x="298" y="10" type="line" smooth="yes"/>
      <point x="239" y="10"/>
      <point x="216" y="33"/>
      <point x="216" y="92" type="curve" smooth="yes"/>
      <point x="216" y="526" type="line"/>
      <point x="357" y="526" type="line"/>
      <point x="357" y="536" type="line"/>
      <point x="216" y="536" type="line"/>
      <point x="216" y="595" type="line" smooth="yes"/>
      <point x="216" y="718"/>
      <point x="236" y="760"/>
      <point x="292" y="760" type="curve" smooth="yes"/>
      <point x="340" y="760"/>
      <point x="357" y="729"/>
      <point x="357" y="644" type="curve"/>
      <point x="405" y="644"/>
      <point x="439" y="664"/>
      <point x="439" y="700" type="curve" smooth="yes"/>
      <point x="439" y="741"/>
      <point x="396" y="770"/>
      <point x="311" y="770" type="curve" smooth="yes"/>
      <point x="184" y="770"/>
      <point x="122" y="705"/>
      <point x="122" y="586" type="curve" smooth="yes"/>
      <point x="122" y="536" type="line"/>
      <point x="31" y="536" type="line"/>
      <point x="31" y="526" type="line"/>
      <point x="122" y="526" type="line"/>
      <point x="122" y="87" type="line" smooth="yes"/>
      <point x="122" y="32"/>
      <point x="99" y="10"/>
      <point x="40" y="10" type="curve"/>
      <point x="27" y="10" type="line"/>
    </contour>
  </outline>
</glyph>
<glyph name="g" format="2">
  <advance width="579"/>
  <unicode hex="0067"/>
  <anchor x="280" y="-240" name="bottom"/>
  <anchor x="280" y="536" name="top"/>
  <anchor x="524" y="536" name="topright"/>
  <outline>
    <contour>
      <point x="257" y="546" type="curve" smooth="yes"/>
      <point x="128" y="546"/>
      <point x="51" y="438"/>
      <point x="51" y="267" type="curve" smooth="yes"/>
      <point x="51" y="92"/>
      <point x="128" y="-10"/>
      <point x="258" y="-10" type="curve" smooth="yes"/>
      <point x="326" y="-10"/>
      <point x="378" y="16"/>
      <point x="413" y="71" type="curve"/>
      <point x="417" y="71" type="line"/>
      <point x="416" y="59"/>
      <point x="414" y="21"/>
      <point x="414" y="5" type="curve" smooth="yes"/>
      <point x="414" y="-16" type="line"/>
      <point x="414" y="-110"/>
      <point x="362" y="-167"/>
      <point x="277" y="-167" type="curve" smooth="yes"/>
      <point x="205" y="-167"/>
      <point x="139" y="-152"/>
      <point x="90" y="-125" type="curve"/>
      <point x="90" y="-206" type="line"/>
      <point x="139" y="-229"/>
      <point x="199" y="-240"/>
      <point x="272" y="-240" type="curve" smooth="yes"/>
      <point x="427" y="-240"/>
      <point x="500" y="-162"/>
      <point x="500" y="-9" type="curve" smooth="yes"/>
      <point x="500" y="536" type="line"/>
      <point x="430" y="536" type="line"/>
      <point x="419" y="465" type="line"/>
      <point x="414" y="465" type="line"/>
      <point x="377" y="520"/>
      <point x="323" y="546"/>
    </contour>
    <contour>
      <point x="271" y="472" type="curve" smooth="yes"/>
      <point x="370" y="472"/>
      <point x="415" y="413"/>
      <point x="415" y="267" type="curve" smooth="yes"/>
      <point x="415" y="246" type="line" smooth="yes"/>
      <point x="415" y="117"/>
      <point x="372" y="62"/>
      <point x="273" y="62" type="curve" smooth="yes"/>
      <point x="186" y="62"/>
      <point x="141" y="134"/>
      <point x="141" y="266" type="curve" smooth="yes"/>
      <point x="141" y="398"/>
      <point x="188" y="472"/>
    </contour>
  </outline>
</glyph>
<glyph name="g.serif" format="2">
  <advance width="538"/>
  <unicode hex="0067"/>
  <anchor x="269" y="-240" name="bottom"/>
  <anchor x="269" y="536" name="top"/>
  <anchor x="538" y="536" name="topright"/>
  <outline>
    <contour>
      <point x="231" y="-240" type="curve" smooth="yes"/>
      <point x="412" y="-240"/>
      <point x="496" y="-168"/>
      <point x="496" y="-53" type="curve" smooth="yes"/>
      <point x="496" y="33"/>
      <point x="450" y="96"/>
      <point x="331" y="96" type="curve" smooth="yes"/>
      <point x="218" y="96" type="line" smooth="yes"/>
      <point x="168" y="96"/>
      <point x="144" y="111"/>
      <point x="144" y="146" type="curve" smooth="yes"/>
      <point x="144" y="169"/>
      <point x="154" y="188"/>
      <point x="186" y="201" type="curve"/>
      <point x="207" y="195"/>
      <point x="231" y="192"/>
      <point x="256" y="192" type="curve" smooth="yes"/>
      <point x="377" y="192"/>
      <point x="436" y="265"/>
      <point x="436" y="364" type="curve" smooth="yes"/>
      <point x="436" y="424"/>
      <point x="416" y="475"/>
      <point x="377" y="507" type="curve"/>
      <point x="400" y="525"/>
      <point x="412" y="530"/>
      <point x="429" y="530" type="curve" smooth="yes"/>
      <point x="459" y="530"/>
      <point x="473" y="510"/>
      <point x="473" y="468" type="curve"/>
      <point x="510" y="468"/>
      <point x="526" y="487"/>
      <point x="526" y="514" type="curve" smooth="yes"/>
      <point x="526" y="543"/>
      <point x="507" y="567"/>
      <point x="468" y="567" type="curve" smooth="yes"/>
      <point x="423" y="567"/>
      <point x="389" y="534"/>
      <point x="369" y="513" type="curve"/>
      <point x="340" y="534"/>
      <point x="302" y="546"/>
      <point x="256" y="546" type="curve" smooth="yes"/>
      <point x="130" y="546"/>
      <point x="68" y="476"/>
      <point x="68" y="361" type="curve" smooth="yes"/>
      <point x="68" y="281"/>
      <point x="109" y="228"/>
      <point x="173" y="205" type="curve"/>
      <point x="118" y="186"/>
      <point x="93" y="148"/>
      <point x="93" y="109" type="curve" smooth="yes"/>
      <point x="93" y="69"/>
      <point x="119" y="29"/>
      <point x="171" y="13" type="curve"/>
      <point x="71" y="12"/>
      <point x="23" y="-34"/>
      <point x="23" y="-103" type="curve" smooth="yes"/>
      <point x="23" y="-186"/>
      <point x="92" y="-240"/>
    </contour>
    <contour>
      <point x="239" y="-230" type="curve" smooth="yes"/>
      <point x="149" y="-230"/>
      <point x="97" y="-189"/>
      <point x="97" y="-107" type="curve" smooth="yes"/>
      <point x="97" y="-19"/>
      <point x="149" y="7"/>
      <point x="204" y="7" type="curve"/>
      <point x="312" y="7" type="line" smooth="yes"/>
      <point x="388" y="7"/>
      <point x="424" y="-25"/>
      <point x="424" y="-94" type="curve" smooth="yes"/>
      <point x="424" y="-184"/>
      <point x="365" y="-230"/>
    </contour>
    <contour>
      <point x="253" y="202" type="curve" smooth="yes"/>
      <point x="189" y="202"/>
      <point x="162" y="252"/>
      <point x="162" y="363" type="curve" smooth="yes"/>
      <point x="162" y="478"/>
      <point x="188" y="536"/>
      <point x="252" y="536" type="curve" smooth="yes"/>
      <point x="317" y="536"/>
      <point x="342" y="481"/>
      <point x="342" y="364" type="curve" smooth="yes"/>
      <point x="342" y="251"/>
      <point x="318" y="202"/>
    </contour>
  </outline>
</glyph>
<glyph name="h" format="2">
  <advance width="584"/>
  <unicode hex="0068"/>
  <anchor x="293" y="0" name="bottom"/>
  <anchor x="292" y="268" name="center"/>
  <anchor x="124" y="760" name="top"/>
  <anchor x="505" y="760" name="topright"/>
  <outline>
    <contour>
      <point x="166" y="537" type="curve" smooth="yes"/>
      <point x="166" y="760" type="line"/>
      <point x="79" y="760" type="line"/>
      <point x="79" y="0" type="line"/>
      <point x="166" y="0" type="line"/>
      <point x="166" y="277" type="line" smooth="yes"/>
      <point x="166" y="402"/>
      <point x="200" y="472"/>
      <point x="311" y="472" type="curve" smooth="yes"/>
      <point x="386" y="472"/>
      <point x="421" y="429"/>
      <point x="421" y="343" type="curve" smooth="yes"/>
      <point x="421" y="0" type="line"/>
      <point x="508" y="0" type="line"/>
      <point x="508" y="349" type="line" smooth="yes"/>
      <point x="508" y="486"/>
      <point x="445" y="545"/>
      <point x="323" y="545" type="curve" smooth="yes"/>
      <point x="259" y="545"/>
      <point x="199" y="517"/>
      <point x="167" y="462" type="curve"/>
      <point x="161" y="462" type="line"/>
      <point x="164" y="483"/>
      <point x="166" y="511"/>
    </contour>
  </outline>
</glyph>
<glyph name="h.serif" format="2">
  <advance width="635"/>
  <unicode hex="0068"/>
  <anchor x="318" y="0" name="bottom"/>
  <anchor x="318" y="268" name="center"/>
  <anchor x="318" y="760" name="top"/>
  <anchor x="545" y="760" name="topright"/>
  <outline>
    <contour>
      <point x="18" y="0" type="line"/>
      <point x="287" y="0" type="line"/>
      <point x="287" y="10" type="line"/>
      <point x="282" y="10" type="line"/>
      <point x="221" y="10"/>
      <point x="202" y="32"/>
      <point x="202" y="102" type="curve" smooth="yes"/>
      <point x="202" y="359" type="line" smooth="yes"/>
      <point x="202" y="445"/>
      <point x="232" y="531"/>
      <point x="326" y="531" type="curve" smooth="yes"/>
      <point x="404" y="531"/>
      <point x="433" y="471"/>
      <point x="433" y="384" type="curve" smooth="yes"/>
      <point x="433" y="0" type="line"/>
      <point x="607" y="0" type="line"/>
      <point x="607" y="10" type="line"/>
      <point x="602" y="10" type="line" smooth="yes"/>
      <point x="545" y="10"/>
      <point x="527" y="32"/>
      <point x="527" y="102" type="curve" smooth="yes"/>
      <point x="527" y="350" type="line" smooth="yes"/>
      <point x="527" y="487"/>
      <point x="469" y="546"/>
      <point x="351" y="546" type="curve" smooth="yes"/>
      <point x="300" y="546"/>
      <point x="230" y="535"/>
      <point x="203" y="442" type="curve"/>
      <point x="201" y="442" type="line"/>
      <point x="202" y="481"/>
      <point x="202" y="519"/>
      <point x="202" y="558" type="curve" smooth="yes"/>
      <point x="202" y="760" type="line"/>
      <point x="23" y="760" type="line"/>
      <point x="23" y="750" type="line"/>
      <point x="28" y="750" type="line" smooth="yes"/>
      <point x="89" y="750"/>
      <point x="108" y="728"/>
      <point x="108" y="660" type="curve" smooth="yes"/>
      <point x="108" y="102" type="line" smooth="yes"/>
      <point x="108" y="32"/>
      <point x="88" y="10"/>
      <point x="26" y="10" type="curve" smooth="yes"/>
      <point x="18" y="10" type="line"/>
    </contour>
  </outline>
</glyph>
<glyph name="i" format="2">
  <advance width="246"/>
  <unicode hex="0069"/>
  <anchor x="125" y="0" name="bottom"/>
  <anchor x="123" y="737" name="top"/>
  <anchor x="227" y="737" name="topright"/>
  <outline>
    <contour>
      <point x="167" y="536" type="line"/>
      <point x="80" y="536" type="line"/>
      <point x="80" y="0" type="line"/>
      <point x="167" y="0" type="line"/>
    </contour>
    <contour>
      <point x="124" y="737" type="curve" smooth="yes"/>
      <point x="96" y="737"/>
      <point x="73" y="720"/>
      <point x="73" y="681" type="curve" smooth="yes"/>
      <point x="73" y="643"/>
      <point x="96" y="625"/>
      <point x="124" y="625" type="curve" smooth="yes"/>
      <point x="151" y="625"/>
      <point x="174" y="643"/>
      <point x="174" y="681" type="curve" smooth="yes"/>
      <point x="174" y="720"/>
      <point x="151" y="737"/>
    </contour>
  </outline>
</glyph>
<glyph name="i.serif" format="2">
  <advance width="320"/>
  <unicode hex="0069"/>
  <anchor x="160" y="0" name="bottom"/>
  <anchor x="160" y="760" name="top"/>
  <anchor x="250" y="760" name="topright"/>
  <outline>
    <contour>
      <point x="23" y="0" type="line"/>
      <point x="307" y="0" type="line"/>
      <point x="307" y="10" type="line"/>
      <point x="294" y="10" type="line" smooth="yes"/>
      <point x="235" y="10"/>
      <point x="212" y="33"/>
      <point x="212" y="92" type="curve" smooth="yes"/>
      <point x="212" y="536" type="line"/>
      <point x="33" y="536" type="line"/>
      <point x="33" y="526" type="line"/>
      <point x="36" y="526" type="line" smooth="yes"/>
      <point x="95" y="526"/>
      <point x="118" y="504"/>
      <point x="118" y="448" type="curve" smooth="yes"/>
      <point x="118" y="87" type="line" smooth="yes"/>
      <point x="118" y="32"/>
      <point x="95" y="10"/>
      <point x="36" y="10" type="curve"/>
      <point x="23" y="10" type="line"/>
    </contour>
    <contour>
      <point x="160" y="632" type="curve" smooth="yes"/>
      <point x="184" y="632"/>
      <point x="204" y="647"/>
      <point x="204" y="688" type="curve" smooth="yes"/>
      <point x="204" y="730"/>
      <point x="184" y="744"/>
      <point x="160" y="744" type="curve" smooth="yes"/>
      <point x="135" y="744"/>
      <point x="116" y="730"/>
      <point x="116" y="688" type="curve" smooth="yes"/>
      <point x="116" y="647"/>
      <point x="135" y="632"/>
    </contour>
  </outline>
</glyph>
<glyph name="j" format="2">
  <advance width="246"/>
  <unicode hex="006A"/>
  <anchor x="22" y="-240" name="bottom"/>
  <anchor x="123" y="737" name="top"/>
  <anchor x="227" y="737" name="topright"/>
  <outline>
    <contour>
      <point x="22" y="-240" type="curve" smooth="yes"/>
      <point x="123" y="-240"/>
      <point x="167" y="-180"/>
      <point x="167" y="-80" type="curve" smooth="yes"/>
      <point x="167" y="536" type="line"/>
      <point x="80" y="536" type="line"/>
      <point x="80" y="-83" type="line" smooth="yes"/>
      <point x="80" y="-148"/>
      <point x="51" y="-167"/>
      <point x="10" y="-167" type="curve" smooth="yes"/>
      <point x="-14" y="-167"/>
      <point x="-33" y="-163"/>
      <point x="-52" y="-157" type="curve"/>
      <point x="-52" y="-228" type="line"/>
      <point x="-35" y="-235"/>
      <point x="-10" y="-240"/>
    </contour>
    <contour>
      <point x="73" y="681" type="curve" smooth="yes"/>
      <point x="73" y="643"/>
      <point x="96" y="625"/>
      <point x="124" y="625" type="curve" smooth="yes"/>
      <point x="151" y="625"/>
      <point x="174" y="643"/>
      <point x="174" y="681" type="curve" smooth="yes"/>
      <point x="174" y="720"/>
      <point x="151" y="737"/>
      <point x="124" y="737" type="curve" smooth="yes"/>
      <point x="96" y="737"/>
      <point x="73" y="720"/>
    </contour>
  </outline>
</glyph>
<glyph name="j.serif" format="2">
  <advance width="300"/>
  <unicode hex="006A"/>
  <anchor x="82" y="-240" name="bottom"/>
  <anchor x="152" y="760" name="top"/>
  <anchor x="240" y="760" name="topright"/>
  <outline>
    <contour>
      <point x="-12" y="-240" type="line"/>
      <point x="4" y="-240" type="line"/>
      <point x="120" y="-240"/>
      <point x="202" y="-187"/>
      <point x="202" y="-8" type="curve" smooth="yes"/>
      <point x="202" y="536" type="line"/>
      <point x="23" y="536" type="line"/>
      <point x="23" y="526" type="line"/>
      <point x="26" y="526" type="line" smooth="yes"/>
      <point x="85" y="526"/>
      <point x="108" y="504"/>
      <point x="108" y="448" type="curve" smooth="yes"/>
      <point x="108" y="-9" type="line" smooth="yes"/>
      <point x="108" y="-187"/>
      <point x="67" y="-230"/>
      <point x="-5" y="-230" type="curve" smooth="yes"/>
      <point x="-12" y="-230" type="line"/>
    </contour>
    <contour>
      <point x="150" y="632" type="curve" smooth="yes"/>
      <point x="174" y="632"/>
      <point x="194" y="647"/>
      <point x="194" y="688" type="curve" smooth="yes"/>
      <point x="194" y="730"/>
      <point x="174" y="744"/>
      <point x="150" y="744" type="curve" smooth="yes"/>
      <point x="125" y="744"/>
      <point x="106" y="730"/>
      <point x="106" y="688" type="curve" smooth="yes"/>
      <point x="106" y="647"/>
      <point x="125" y="632"/>
    </contour>
  </outline>
</glyph>
<glyph name="k" format="2">
  <advance width="508"/>
  <unicode hex="006B"/>
  <anchor x="274" y="0" name="bottom"/>
  <anchor x="123" y="760" name="top"/>
  <anchor x="383" y="840" name="topright"/>
  <outline>
    <contour>
      <point x="165" y="363" type="curve" smooth="yes"/>
      <point x="165" y="760" type="line"/>
      <point x="79" y="760" type="line"/>
      <point x="79" y="0" type="line"/>
      <point x="165" y="0" type="line"/>
      <point x="165" y="197" type="line"/>
      <point x="223" y="250" type="line"/>
      <point x="396" y="0" type="line"/>
      <point x="500" y="0" type="line"/>
      <point x="282" y="307" type="line"/>
      <point x="486" y="536" type="line"/>
      <point x="385" y="536" type="line"/>
      <point x="226" y="355" type="line" smooth="yes"/>
      <point x="208" y="335"/>
      <point x="177" y="292"/>
      <point x="165" y="276" type="curve"/>
      <point x="161" y="276" type="line"/>
      <point x="162" y="301"/>
      <point x="165" y="342"/>
    </contour>
  </outline>
</glyph>
<glyph name="k.serif" format="2">
  <advance width="585"/>
  <unicode hex="006B"/>
  <anchor x="293" y="0" name="bottom"/>
  <anchor x="293" y="760" name="top"/>
  <anchor x="425" y="860" name="topright"/>
  <outline>
    <contour>
      <point x="18" y="0" type="line"/>
      <point x="287" y="0" type="line"/>
      <point x="287" y="10" type="line"/>
      <point x="284" y="10" type="line" smooth="yes"/>
      <point x="225" y="10"/>
      <point x="202" y="33"/>
      <point x="202" y="92" type="curve" smooth="yes"/>
      <point x="202" y="212" type="line"/>
      <point x="261" y="278" type="line"/>
      <point x="389" y="76" type="line" smooth="yes"/>
      <point x="426" y="18"/>
      <point x="463" y="0"/>
      <point x="542" y="0" type="curve" smooth="yes"/>
      <point x="586" y="0" type="line"/>
      <point x="586" y="10" type="line"/>
      <point x="583" y="10" type="line" smooth="yes"/>
      <point x="557" y="10"/>
      <point x="537" y="16"/>
      <point x="476" y="110" type="curve" smooth="yes"/>
      <point x="322" y="347" type="line"/>
      <point x="400" y="435" type="line" smooth="yes"/>
      <point x="477" y="521"/>
      <point x="499" y="526"/>
      <point x="550" y="526" type="curve"/>
      <point x="550" y="536" type="line"/>
      <point x="329" y="536" type="line"/>
      <point x="329" y="526" type="line"/>
      <point x="390" y="526"/>
      <point x="419" y="518"/>
      <point x="419" y="495" type="curve" smooth="yes"/>
      <point x="419" y="478"/>
      <point x="402" y="453"/>
      <point x="370" y="417" type="curve" smooth="yes"/>
      <point x="200" y="227" type="line"/>
      <point x="202" y="267"/>
      <point x="202" y="306"/>
      <point x="202" y="346" type="curve" smooth="yes"/>
      <point x="202" y="760" type="line"/>
      <point x="23" y="760" type="line"/>
      <point x="23" y="750" type="line"/>
      <point x="26" y="750" type="line" smooth="yes"/>
      <point x="85" y="750"/>
      <point x="108" y="728"/>
      <point x="108" y="672" type="curve" smooth="yes"/>
      <point x="108" y="87" type="line" smooth="yes"/>
      <point x="108" y="32"/>
      <point x="85" y="10"/>
      <point x="26" y="10" type="curve" smooth="yes"/>
      <point x="18" y="10" type="line"/>
    </contour>
  </outline>
</glyph>
<glyph name="l" format="2">
  <advance width="245"/>
  <unicode hex="006C"/>
  <anchor x="123" y="0" name="bottom"/>
  <anchor x="123" y="268" name="center"/>
  <anchor x="123" y="760" name="top"/>
  <anchor x="193" y="760" name="topright"/>
  <outline>
    <contour>
      <point x="166" y="0" type="line"/>
      <point x="166" y="760" type="line"/>
      <point x="79" y="760" type="line"/>
      <point x="79" y="0" type="line"/>
    </contour>
  </outline>
</glyph>
<glyph name="m" format="2">
  <advance width="882"/>
  <unicode hex="006D"/>
  <anchor x="444" y="0" name="bottom"/>
  <anchor x="451" y="536" name="top"/>
  <anchor x="835" y="536" name="topright"/>
  <outline>
    <contour>
      <point x="636" y="546" type="curve" smooth="yes"/>
      <point x="570" y="546"/>
      <point x="508" y="517"/>
      <point x="475" y="456" type="curve"/>
      <point x="469" y="456" type="line"/>
      <point x="445" y="517"/>
      <point x="392" y="546"/>
      <point x="315" y="546" type="curve" smooth="yes"/>
      <point x="255" y="546"/>
      <point x="198" y="519"/>
      <point x="167" y="463" type="curve"/>
      <point x="162" y="463" type="line"/>
      <point x="149" y="536" type="line"/>
      <point x="79" y="536" type="line"/>
      <point x="79" y="0" type="line"/>
      <point x="166" y="0" type="line"/>
      <point x="166" y="278" type="line" smooth="yes"/>
      <point x="166" y="403"/>
      <point x="198" y="472"/>
      <point x="298" y="472" type="curve" smooth="yes"/>
      <point x="367" y="472"/>
      <point x="399" y="429"/>
      <point x="399" y="345" type="curve" smooth="yes"/>
      <point x="399" y="0" type="line"/>
      <point x="486" y="0" type="line"/>
      <point x="486" y="296" type="line" smooth="yes"/>
      <point x="486" y="410"/>
      <point x="523" y="472"/>
      <point x="619" y="472" type="curve" smooth="yes"/>
      <point x="688" y="472"/>
      <point x="720" y="429"/>
      <point x="720" y="345" type="curve" smooth="yes"/>
      <point x="720" y="0" type="line"/>
      <point x="806" y="0" type="line"/>
      <point x="806" y="349" type="line" smooth="yes"/>
      <point x="806" y="487"/>
      <point x="750" y="546"/>
    </contour>
  </outline>
</glyph>
<glyph name="m.serif" format="2">
  <advance width="945"/>
  <unicode hex="006D"/>
  <anchor x="473" y="0" name="bottom"/>
  <anchor x="473" y="536" name="top"/>
  <anchor x="895" y="536" name="topright"/>
  <outline>
    <contour>
      <point x="28" y="0" type="line"/>
      <point x="297" y="0" type="line"/>
      <point x="297" y="10" type="line"/>
      <point x="294" y="10" type="line" smooth="yes"/>
      <point x="235" y="10"/>
      <point x="212" y="33"/>
      <point x="212" y="92" type="curve" smooth="yes"/>
      <point x="212" y="346" type="line" smooth="yes"/>
      <point x="212" y="465"/>
      <point x="253" y="526"/>
      <point x="333" y="526" type="curve" smooth="yes"/>
      <point x="403" y="526"/>
      <point x="433" y="478"/>
      <point x="433" y="367" type="curve" smooth="yes"/>
      <point x="433" y="0" type="line"/>
      <point x="612" y="0" type="line"/>
      <point x="612" y="10" type="line"/>
      <point x="609" y="10" type="line" smooth="yes"/>
      <point x="550" y="10"/>
      <point x="527" y="33"/>
      <point x="527" y="92" type="curve" smooth="yes"/>
      <point x="527" y="360" type="line" smooth="yes"/>
      <point x="527" y="466"/>
      <point x="569" y="526"/>
      <point x="646" y="526" type="curve" smooth="yes"/>
      <point x="714" y="526"/>
      <point x="743" y="478"/>
      <point x="743" y="367" type="curve" smooth="yes"/>
      <point x="743" y="0" type="line"/>
      <point x="922" y="0" type="line"/>
      <point x="922" y="10" type="line"/>
      <point x="919" y="10" type="line" smooth="yes"/>
      <point x="860" y="10"/>
      <point x="837" y="33"/>
      <point x="837" y="92" type="curve" smooth="yes"/>
      <point x="837" y="347" type="line" smooth="yes"/>
      <point x="837" y="480"/>
      <point x="782" y="546"/>
      <point x="668" y="546" type="curve" smooth="yes"/>
      <point x="612" y="546"/>
      <point x="547" y="531"/>
      <point x="522" y="424" type="curve"/>
      <point x="520" y="424" type="line"/>
      <point x="493" y="518"/>
      <point x="433" y="546"/>
      <point x="362" y="546" type="curve" smooth="yes"/>
      <point x="302" y="546"/>
      <point x="241" y="529"/>
      <point x="213" y="441" type="curve"/>
      <point x="211" y="441" type="line"/>
      <point x="211" y="536" type="line"/>
      <point x="33" y="536" type="line"/>
      <point x="33" y="526" type="line"/>
      <point x="36" y="526" type="line" smooth="yes"/>
      <point x="95" y="526"/>
      <point x="118" y="504"/>
      <point x="118" y="448" type="curve" smooth="yes"/>
      <point x="118" y="87" type="line" smooth="yes"/>
      <point x="118" y="32"/>
      <point x="95" y="10"/>
      <point x="36" y="10" type="curve" smooth="yes"/>
      <point x="28" y="10" type="line"/>
    </contour>
  </outline>
</glyph>
<glyph name="n" format="2">
  <advance width="584"/>
  <unicode hex="006E"/>
  <anchor x="292" y="0" name="bottom"/>
  <anchor x="292" y="536" name="top"/>
  <anchor x="531" y="536" name="topright"/>
  <outline>
    <contour>
      <point x="325" y="546" type="curve" smooth="yes"/>
      <point x="261" y="546"/>
      <point x="199" y="519"/>
      <point x="167" y="463" type="curve"/>
      <point x="162" y="463" type="line"/>
      <point x="149" y="536" type="line"/>
      <point x="79" y="536" type="line"/>
      <point x="79" y="0" type="line"/>
      <point x="166" y="0" type="line"/>
      <point x="166" y="278" type="line" smooth="yes"/>
      <point x="166" y="403"/>
      <point x="201" y="472"/>
      <point x="311" y="472" type="curve" smooth="yes"/>
      <point x="386" y="472"/>
      <point x="421" y="429"/>
      <point x="421" y="343" type="curve" smooth="yes"/>
      <point x="421" y="0" type="line"/>
      <point x="508" y="0" type="line"/>
      <point x="508" y="349" type="line" smooth="yes"/>
      <point x="508" y="487"/>
      <point x="445" y="546"/>
    </contour>
  </outline>
</glyph>
<glyph name="o" format="2">
  <advance width="570"/>
  <unicode hex="006F"/>
  <anchor x="284" y="0" name="bottom"/>
  <anchor x="285" y="268" name="center"/>
  <anchor x="285" y="536" name="top"/>
  <anchor x="542" y="536" name="topright"/>
  <outline>
    <contour>
      <point x="520" y="269" type="curve" smooth="yes"/>
      <point x="520" y="446"/>
      <point x="423" y="546"/>
      <point x="286" y="546" type="curve" smooth="yes"/>
      <point x="141" y="546"/>
      <point x="51" y="446"/>
      <point x="51" y="269" type="curve" smooth="yes"/>
      <point x="51" y="91"/>
      <point x="149" y="-10"/>
      <point x="283" y="-10" type="curve" smooth="yes"/>
      <point x="428" y="-10"/>
      <point x="520" y="91"/>
    </contour>
    <contour>
      <point x="141" y="269" type="curve" smooth="yes"/>
      <point x="141" y="396"/>
      <point x="184" y="472"/>
      <point x="284" y="472" type="curve" smooth="yes"/>
      <point x="385" y="472"/>
      <point x="430" y="396"/>
      <point x="430" y="269" type="curve" smooth="yes"/>
      <point x="430" y="142"/>
      <point x="385" y="63"/>
      <point x="285" y="63" type="curve" smooth="yes"/>
      <point x="185" y="63"/>
      <point x="141" y="142"/>
    </contour>
  </outline>
</glyph>
<glyph name="o.serif" format="2">
  <advance width="577"/>
  <unicode hex="006F"/>
  <anchor x="289" y="0" name="bottom"/>
  <anchor x="289" y="268" name="center"/>
  <anchor x="289" y="536" name="top"/>
  <anchor x="557" y="536" name="topright"/>
  <outline>
    <contour>
      <point x="287" y="-10" type="curve" smooth="yes"/>
      <point x="441" y="-10"/>
      <point x="522" y="81"/>
      <point x="522" y="269" type="curve" smooth="yes"/>
      <point x="522" y="456"/>
      <point x="434" y="546"/>
      <point x="290" y="546" type="curve" smooth="yes"/>
      <point x="135" y="546"/>
      <point x="55" y="456"/>
      <point x="55" y="269" type="curve" smooth="yes"/>
      <point x="55" y="81"/>
      <point x="143" y="-10"/>
    </contour>
    <contour>
      <point x="289" y="0" type="curve" smooth="yes"/>
      <point x="190" y="0"/>
      <point x="152" y="75"/>
      <point x="152" y="269" type="curve" smooth="yes"/>
      <point x="152" y="461"/>
      <point x="190" y="536"/>
      <point x="288" y="536" type="curve" smooth="yes"/>
      <point x="387" y="536"/>
      <point x="425" y="461"/>
      <point x="425" y="269" type="curve" smooth="yes"/>
      <point x="425" y="75"/>
      <point x="387" y="0"/>
    </contour>
  </outline>
</glyph>
<glyph name="p" format="2">
  <advance width="579"/>
  <unicode hex="0070"/>
  <anchor x="123" y="-240" name="bottom"/>
  <anchor x="312" y="536" name="top"/>
  <anchor x="552" y="536" name="topright"/>
  <outline>
    <contour>
      <point x="322" y="546" type="curve" smooth="yes"/>
      <point x="241" y="546"/>
      <point x="196" y="509"/>
      <point x="166" y="463" type="curve"/>
      <point x="162" y="463" type="line"/>
      <point x="150" y="536" type="line"/>
      <point x="79" y="536" type="line"/>
      <point x="79" y="-240" type="line"/>
      <point x="166" y="-240" type="line"/>
      <point x="166" y="-20" type="line" smooth="yes"/>
      <point x="166" y="5"/>
      <point x="162" y="45"/>
      <point x="160" y="68" type="curve"/>
      <point x="166" y="68" type="line"/>
      <point x="195" y="26"/>
      <point x="243" y="-10"/>
      <point x="321" y="-10" type="curve" smooth="yes"/>
      <point x="445" y="-10"/>
      <point x="528" y="86"/>
      <point x="528" y="269" type="curve" smooth="yes"/>
      <point x="528" y="454"/>
      <point x="446" y="546"/>
    </contour>
    <contour>
      <point x="305" y="472" type="curve" smooth="yes"/>
      <point x="396" y="472"/>
      <point x="438" y="392"/>
      <point x="438" y="270" type="curve" smooth="yes"/>
      <point x="438" y="150"/>
      <point x="396" y="63"/>
      <point x="307" y="63" type="curve" smooth="yes"/>
      <point x="199" y="63"/>
      <point x="166" y="137"/>
      <point x="166" y="269" type="curve" smooth="yes"/>
      <point x="166" y="286" type="line" smooth="yes"/>
      <point x="166" y="411"/>
      <point x="205" y="472"/>
    </contour>
  </outline>
</glyph>
<glyph name="p.serif" format="2">
  <advance width="614"/>
  <unicode hex="0070"/>
  <anchor x="307" y="-240" name="bottom"/>
  <anchor x="307" y="536" name="top"/>
  <anchor x="594" y="536" name="topright"/>
  <outline>
    <contour>
      <point x="18" y="-240" type="line"/>
      <point x="287" y="-240" type="line"/>
      <point x="287" y="-230" type="line"/>
      <point x="284" y="-230" type="line" smooth="yes"/>
      <point x="225" y="-230"/>
      <point x="202" y="-207"/>
      <point x="202" y="-148" type="curve" smooth="yes"/>
      <point x="202" y="41" type="line" smooth="yes"/>
      <point x="202" y="74"/>
      <point x="202" y="108"/>
      <point x="201" y="141" type="curve"/>
      <point x="203" y="141" type="line"/>
      <point x="221" y="38"/>
      <point x="271" y="-10"/>
      <point x="358" y="-10" type="curve" smooth="yes"/>
      <point x="489" y="-10"/>
      <point x="559" y="86"/>
      <point x="559" y="269" type="curve" smooth="yes"/>
      <point x="559" y="452"/>
      <point x="491" y="546"/>
      <point x="360" y="546" type="curve" smooth="yes"/>
      <point x="270" y="546"/>
      <point x="220" y="498"/>
      <point x="202" y="397" type="curve"/>
      <point x="200" y="397" type="line"/>
      <point x="200" y="536" type="line"/>
      <point x="13" y="536" type="line"/>
      <point x="13" y="526" type="line"/>
      <point x="26" y="526" type="line" smooth="yes"/>
      <point x="85" y="526"/>
      <point x="108" y="504"/>
      <point x="108" y="448" type="curve" smooth="yes"/>
      <point x="108" y="-153" type="line" smooth="yes"/>
      <point x="108" y="-208"/>
      <point x="85" y="-230"/>
      <point x="26" y="-230" type="curve" smooth="yes"/>
      <point x="18" y="-230" type="line"/>
    </contour>
    <contour>
      <point x="341" y="5" type="curve" smooth="yes"/>
      <point x="247" y="5"/>
      <point x="202" y="90"/>
      <point x="202" y="269" type="curve" smooth="yes"/>
      <point x="202" y="442"/>
      <point x="243" y="531"/>
      <point x="340" y="531" type="curve" smooth="yes"/>
      <point x="428" y="531"/>
      <point x="462" y="458"/>
      <point x="462" y="270" type="curve" smooth="yes"/>
      <point x="462" y="79"/>
      <point x="428" y="5"/>
    </contour>
  </outline>
</glyph>
<glyph name="q" format="2">
  <advance width="579"/>
  <unicode hex="0071"/>
  <anchor x="456" y="-240" name="bottom"/>
  <anchor x="290" y="536" name="top"/>
  <anchor x="524" y="536" name="topright"/>
  <outline>
    <contour>
      <point x="413" y="-11" type="curve" smooth="yes"/>
      <point x="413" y="-240" type="line"/>
      <point x="500" y="-240" type="line"/>
      <point x="500" y="536" type="line"/>
      <point x="430" y="536" type="line"/>
      <point x="418" y="463" type="line"/>
      <point x="414" y="463" type="line"/>
      <point x="384" y="509"/>
      <point x="337" y="546"/>
      <point x="258" y="546" type="curve" smooth="yes"/>
      <point x="135" y="546"/>
      <point x="51" y="451"/>
      <point x="51" y="267" type="curve" smooth="yes"/>
      <point x="51" y="83"/>
      <point x="133" y="-10"/>
      <point x="255" y="-10" type="curve" smooth="yes"/>
      <point x="335" y="-10"/>
      <point x="383" y="26"/>
      <point x="412" y="72" type="curve"/>
      <point x="418" y="72" type="line"/>
      <point x="414" y="49"/>
      <point x="413" y="13"/>
    </contour>
    <contour>
      <point x="274" y="63" type="curve" smooth="yes"/>
      <point x="183" y="63"/>
      <point x="141" y="138"/>
      <point x="141" y="265" type="curve" smooth="yes"/>
      <point x="141" y="392"/>
      <point x="183" y="473"/>
      <point x="272" y="473" type="curve" smooth="yes"/>
      <point x="379" y="473"/>
      <point x="414" y="402"/>
      <point x="414" y="266" type="curve" smooth="yes"/>
      <point x="414" y="248" type="line" smooth="yes"/>
      <point x="414" y="123"/>
      <point x="375" y="63"/>
    </contour>
  </outline>
</glyph>
<glyph name="q.serif" format="2">
  <advance width="614"/>
  <unicode hex="0071"/>
  <anchor x="307" y="-240" name="bottom"/>
  <anchor x="307" y="536" name="top"/>
  <anchor x="604" y="536" name="topright"/>
  <outline>
    <contour>
      <point x="297" y="-240" type="line"/>
      <point x="596" y="-240" type="line"/>
      <point x="596" y="-230" type="line"/>
      <point x="588" y="-230" type="line" smooth="yes"/>
      <point x="529" y="-230"/>
      <point x="506" y="-207"/>
      <point x="506" y="-148" type="curve" smooth="yes"/>
      <point x="506" y="448" type="line" smooth="yes"/>
      <point x="506" y="504"/>
      <point x="529" y="526"/>
      <point x="588" y="526" type="curve" smooth="yes"/>
      <point x="591" y="526" type="line"/>
      <point x="591" y="536" type="line"/>
      <point x="414" y="536" type="line"/>
      <point x="414" y="397" type="line"/>
      <point x="412" y="397" type="line"/>
      <point x="394" y="498"/>
      <point x="344" y="546"/>
      <point x="254" y="546" type="curve" smooth="yes"/>
      <point x="123" y="546"/>
      <point x="55" y="452"/>
      <point x="55" y="269" type="curve" smooth="yes"/>
      <point x="55" y="86"/>
      <point x="125" y="-10"/>
      <point x="256" y="-10" type="curve" smooth="yes"/>
      <point x="343" y="-10"/>
      <point x="393" y="38"/>
      <point x="411" y="141" type="curve"/>
      <point x="413" y="141" type="line"/>
      <point x="413" y="107"/>
      <point x="412" y="74"/>
      <point x="412" y="40" type="curve" smooth="yes"/>
      <point x="412" y="-153" type="line" smooth="yes"/>
      <point x="412" y="-208"/>
      <point x="389" y="-230"/>
      <point x="330" y="-230" type="curve" smooth="yes"/>
      <point x="297" y="-230" type="line"/>
    </contour>
    <contour>
      <point x="273" y="5" type="curve" smooth="yes"/>
      <point x="186" y="5"/>
      <point x="152" y="79"/>
      <point x="152" y="270" type="curve" smooth="yes"/>
      <point x="152" y="458"/>
      <point x="186" y="531"/>
      <point x="274" y="531" type="curve" smooth="yes"/>
      <point x="371" y="531"/>
      <point x="412" y="442"/>
      <point x="412" y="269" type="curve" smooth="yes"/>
      <point x="412" y="90"/>
      <point x="367" y="5"/>
    </contour>
  </outline>
</glyph>
<glyph name="r" format="2">
  <advance width="391"/>
  <unicode hex="0072"/>
  <anchor x="120" y="0" name="bottom"/>
  <anchor x="236" y="536" name="top"/>
  <anchor x="372" y="536" name="topright"/>
  <outline>
    <contour>
      <point x="318" y="546" type="curve" smooth="yes"/>
      <point x="248" y="546"/>
      <point x="196" y="497"/>
      <point x="164" y="438" type="curve"/>
      <point x="160" y="438" type="line"/>
      <point x="150" y="536" type="line"/>
      <point x="79" y="536" type="line"/>
      <point x="79" y="0" type="line"/>
      <point x="166" y="0" type="line"/>
      <point x="166" y="286" type="line" smooth="yes"/>
      <point x="166" y="394"/>
      <point x="235" y="466"/>
      <point x="312" y="466" type="curve" smooth="yes"/>
      <point x="329" y="466"/>
      <point x="350" y="463"/>
      <point x="366" y="459" type="curve"/>
      <point x="376" y="540" type="line"/>
      <point x="360" y="544"/>
      <point x="336" y="546"/>
    </contour>
  </outline>
</glyph>
<glyph name="r.serif" format="2">
  <advance width="471"/>
  <unicode hex="0072"/>
  <anchor x="166" y="0" name="bottom"/>
  <anchor x="246" y="536" name="top"/>
  <anchor x="481" y="536" name="topright"/>
  <outline>
    <contour>
      <point x="23" y="0" type="line"/>
      <point x="307" y="0" type="line"/>
      <point x="307" y="10" type="line"/>
      <point x="294" y="10" type="line" smooth="yes"/>
      <point x="235" y="10"/>
      <point x="212" y="33"/>
      <point x="212" y="92" type="curve" smooth="yes"/>
      <point x="212" y="307" type="line" smooth="yes"/>
      <point x="212" y="383"/>
      <point x="217" y="511"/>
      <point x="295" y="511" type="curve" smooth="yes"/>
      <point x="330" y="511"/>
      <point x="363" y="485"/>
      <point x="363" y="402" type="curve"/>
      <point x="430" y="402"/>
      <point x="456" y="432"/>
      <point x="456" y="472" type="curve" smooth="yes"/>
      <point x="456" y="519"/>
      <point x="419" y="546"/>
      <point x="353" y="546" type="curve" smooth="yes"/>
      <point x="256" y="546"/>
      <point x="226" y="487"/>
      <point x="213" y="436" type="curve"/>
      <point x="211" y="436" type="line"/>
      <point x="211" y="536" type="line"/>
      <point x="33" y="536" type="line"/>
      <point x="33" y="526" type="line"/>
      <point x="36" y="526" type="line" smooth="yes"/>
      <point x="95" y="526"/>
      <point x="118" y="504"/>
      <point x="118" y="448" type="curve" smooth="yes"/>
      <point x="118" y="87" type="line" smooth="yes"/>
      <point x="118" y="32"/>
      <point x="95" y="10"/>
      <point x="36" y="10" type="curve" smooth="yes"/>
      <point x="23" y="10" type="line"/>
    </contour>
  </outline>
</glyph>
<glyph name="s" format="2">
  <advance width="452"/>
  <unicode hex="0073"/>
  <anchor x="227" y="0" name="bottom"/>
  <anchor x="227" y="536" name="top"/>
  <anchor x="414" y="536" name="topright"/>
  <outline>
    <contour>
      <point x="410" y="148" type="curve" smooth="yes"/>
      <point x="410" y="234"/>
      <point x="355" y="269"/>
      <point x="259" y="307" type="curve" smooth="yes"/>
      <point x="163" y="345"/>
      <point x="132" y="364"/>
      <point x="132" y="409" type="curve" smooth="yes"/>
      <point x="132" y="449"/>
      <point x="167" y="474"/>
      <point x="233" y="474" type="curve" smooth="yes"/>
      <point x="281" y="474"/>
      <point x="328" y="459"/>
      <point x="371" y="440" type="curve"/>
      <point x="400" y="510" type="line"/>
      <point x="352" y="532"/>
      <point x="299" y="546"/>
      <point x="238" y="546" type="curve" smooth="yes"/>
      <point x="124" y="546"/>
      <point x="48" y="495"/>
      <point x="48" y="404" type="curve" smooth="yes"/>
      <point x="48" y="316"/>
      <point x="105" y="284"/>
      <point x="202" y="244" type="curve" smooth="yes"/>
      <point x="301" y="204"/>
      <point x="326" y="180"/>
      <point x="326" y="140" type="curve" smooth="yes"/>
      <point x="326" y="92"/>
      <point x="291" y="61"/>
      <point x="210" y="61" type="curve" smooth="yes"/>
      <point x="151" y="61"/>
      <point x="90" y="83"/>
      <point x="49" y="104" type="curve"/>
      <point x="49" y="24" type="line"/>
      <point x="88" y="2"/>
      <point x="137" y="-10"/>
      <point x="208" y="-10" type="curve" smooth="yes"/>
      <point x="333" y="-10"/>
      <point x="410" y="44"/>
    </contour>
  </outline>
</glyph>
<glyph name="s.serif" format="2">
  <advance width="451"/>
  <unicode hex="0073"/>
  <anchor x="226" y="0" name="bottom"/>
  <anchor x="226" y="536" name="top"/>
  <anchor x="411" y="536" name="topright"/>
  <outline>
    <contour>
      <point x="214" y="-10" type="curve" smooth="yes"/>
      <point x="332" y="-10"/>
      <point x="407" y="43"/>
      <point x="407" y="147" type="curve" smooth="yes"/>
      <point x="407" y="225"/>
      <point x="371" y="266"/>
      <point x="257" y="313" type="curve" smooth="yes"/>
      <point x="168" y="350"/>
      <point x="126" y="369"/>
      <point x="126" y="439" type="curve" smooth="yes"/>
      <point x="126" y="502"/>
      <point x="160" y="535"/>
      <point x="228" y="535" type="curve" smooth="yes"/>
      <point x="287" y="535"/>
      <point x="314" y="496"/>
      <point x="314" y="393" type="curve"/>
      <point x="360" y="393"/>
      <point x="386" y="417"/>
      <point x="386" y="453" type="curve" smooth="yes"/>
      <point x="386" y="503"/>
      <point x="329" y="545"/>
      <point x="233" y="545" type="curve" smooth="yes"/>
      <point x="120" y="545"/>
      <point x="52" y="495"/>
      <point x="52" y="404" type="curve" smooth="yes"/>
      <point x="52" y="328"/>
      <point x="88" y="288"/>
      <point x="203" y="238" type="curve" smooth="yes"/>
      <point x="300" y="196"/>
      <point x="331" y="178"/>
      <point x="331" y="109" type="curve" smooth="yes"/>
      <point x="331" y="37"/>
      <point x="287" y="0"/>
      <point x="216" y="0" type="curve" smooth="yes"/>
      <point x="135" y="0"/>
      <point x="108" y="57"/>
      <point x="108" y="165" type="curve"/>
      <point x="84" y="165"/>
      <point x="45" y="150"/>
      <point x="45" y="96" type="curve" smooth="yes"/>
      <point x="45" y="26"/>
      <point x="114" y="-10"/>
    </contour>
  </outline>
</glyph>
<glyph name="t" format="2">
  <advance width="345"/>
  <unicode hex="0074"/>
  <anchor x="204" y="0" name="bottom"/>
  <anchor x="173" y="268" name="center"/>
  <anchor x="148" y="659" name="top"/>
  <anchor x="210" y="840" name="topright"/>
  <outline>
    <contour>
      <point x="252" y="62" type="curve" smooth="yes"/>
      <point x="206" y="62"/>
      <point x="174" y="93"/>
      <point x="174" y="158" type="curve" smooth="yes"/>
      <point x="174" y="468" type="line"/>
      <point x="320" y="468" type="line"/>
      <point x="320" y="536" type="line"/>
      <point x="174" y="536" type="line"/>
      <point x="174" y="659" type="line"/>
      <point x="122" y="659" type="line"/>
      <point x="89" y="545" type="line"/>
      <point x="16" y="510" type="line"/>
      <point x="16" y="468" type="line"/>
      <point x="87" y="468" type="line"/>
      <point x="87" y="156" type="line" smooth="yes"/>
      <point x="87" y="26"/>
      <point x="156" y="-10"/>
      <point x="236" y="-10" type="curve" smooth="yes"/>
      <point x="267" y="-10"/>
      <point x="305" y="-3"/>
      <point x="324" y="6" type="curve"/>
      <point x="324" y="73" type="line"/>
      <point x="307" y="67"/>
      <point x="277" y="62"/>
    </contour>
  </outline>
</glyph>
<glyph name="t.serif" format="2">
  <advance width="352"/>
  <unicode hex="0074"/>
  <anchor x="216" y="0" name="bottom"/>
  <anchor x="176" y="268" name="center"/>
  <anchor x="156" y="659" name="top"/>
  <anchor x="192" y="970" name="topright"/>
  <outline>
    <contour>
      <point x="240" y="-10" type="curve" smooth="yes"/>
      <point x="272" y="-10"/>
      <point x="312" y="-2"/>
      <point x="329" y="6" type="curve"/>
      <point x="329" y="16" type="line"/>
      <point x="306" y="8"/>
      <point x="286" y="4"/>
      <point x="268" y="4" type="curve" smooth="yes"/>
      <point x="216" y="4"/>
      <point x="189" y="39"/>
      <point x="189" y="108" type="curve" smooth="yes"/>
      <point x="189" y="526" type="line"/>
      <point x="329" y="526" type="line"/>
      <point x="329" y="536" type="line"/>
      <point x="189" y="536" type="line"/>
      <point x="189" y="659" type="line"/>
      <point x="179" y="659" type="line"/>
      <point x="170" y="613"/>
      <point x="154" y="582"/>
      <point x="127" y="563" type="curve" smooth="yes"/>
      <point x="101" y="544"/>
      <point x="67" y="536"/>
      <point x="19" y="536" type="curve"/>
      <point x="19" y="526" type="line"/>
      <point x="95" y="526" type="line"/>
      <point x="95" y="145" type="line" smooth="yes"/>
      <point x="95" y="30"/>
      <point x="139" y="-10"/>
    </contour>
  </outline>
</glyph>
<glyph name="u" format="2">
  <advance width="583"/>
  <unicode hex="0075"/>
  <anchor x="278" y="0" name="bottom"/>
  <anchor x="292" y="536" name="top"/>
  <anchor x="531" y="536" name="topright"/>
  <outline>
    <contour>
      <point x="504" y="536" type="line"/>
      <point x="417" y="536" type="line"/>
      <point x="417" y="257" type="line" smooth="yes"/>
      <point x="417" y="132"/>
      <point x="381" y="63"/>
      <point x="272" y="63" type="curve" smooth="yes"/>
      <point x="197" y="63"/>
      <point x="162" y="105"/>
      <point x="162" y="191" type="curve" smooth="yes"/>
      <point x="162" y="536" type="line"/>
      <point x="74" y="536" type="line"/>
      <point x="74" y="185" type="line" smooth="yes"/>
      <point x="74" y="49"/>
      <point x="137" y="-10"/>
      <point x="257" y="-10" type="curve" smooth="yes"/>
      <point x="322" y="-10"/>
      <point x="384" y="15"/>
      <point x="417" y="71" type="curve"/>
      <point x="421" y="71" type="line"/>
      <point x="434" y="0" type="line"/>
      <point x="504" y="0" type="line"/>
    </contour>
  </outline>
</glyph>
<glyph name="u.serif" format="2">
  <advance width="635"/>
  <unicode hex="0075"/>
  <anchor x="318" y="0" name="bottom"/>
  <anchor x="318" y="536" name="top"/>
  <anchor x="595" y="536" name="topright"/>
  <outline>
    <contour>
      <point x="283" y="-10" type="curve" smooth="yes"/>
      <point x="336" y="-10"/>
      <point x="416" y="2"/>
      <point x="438" y="137" type="curve"/>
      <point x="440" y="137" type="line"/>
      <point x="440" y="0" type="line"/>
      <point x="612" y="0" type="line"/>
      <point x="612" y="10" type="line"/>
      <point x="609" y="10" type="line" smooth="yes"/>
      <point x="547" y="10"/>
      <point x="527" y="31"/>
      <point x="527" y="99" type="curve" smooth="yes"/>
      <point x="527" y="536" type="line"/>
      <point x="348" y="536" type="line"/>
      <point x="348" y="526" type="line"/>
      <point x="351" y="526" type="line" smooth="yes"/>
      <point x="413" y="526"/>
      <point x="433" y="504"/>
      <point x="433" y="436" type="curve" smooth="yes"/>
      <point x="433" y="206" type="line" smooth="yes"/>
      <point x="433" y="77"/>
      <point x="388" y="4"/>
      <point x="299" y="4" type="curve" smooth="yes"/>
      <point x="226" y="4"/>
      <point x="202" y="54"/>
      <point x="202" y="181" type="curve" smooth="yes"/>
      <point x="202" y="536" type="line"/>
      <point x="23" y="536" type="line"/>
      <point x="23" y="526" type="line"/>
      <point x="26" y="526" type="line" smooth="yes"/>
      <point x="88" y="526"/>
      <point x="108" y="504"/>
      <point x="108" y="436" type="curve" smooth="yes"/>
      <point x="108" y="186" type="line" smooth="yes"/>
      <point x="108" y="49"/>
      <point x="165" y="-10"/>
    </contour>
  </outline>
</glyph>
<glyph name="v" format="2">
  <advance width="482"/>
  <unicode hex="0076"/>
  <anchor x="239" y="0" name="bottom"/>
  <anchor x="239" y="536" name="top"/>
  <anchor x="463" y="536" name="topright"/>
  <outline>
    <contour>
      <point x="191" y="0" type="line"/>
      <point x="290" y="0" type="line"/>
      <point x="482" y="536" type="line"/>
      <point x="389" y="536" type="line"/>
      <point x="283" y="220" type="line" smooth="yes"/>
      <point x="269" y="177"/>
      <point x="248" y="111"/>
      <point x="242" y="78" type="curve"/>
      <point x="238" y="78" type="line"/>
      <point x="233" y="111"/>
      <point x="214" y="176"/>
      <point x="199" y="220" type="curve" smooth="yes"/>
      <point x="93" y="536" type="line"/>
      <point x="0" y="536" type="line"/>
    </contour>
  </outline>
</glyph>
<glyph name="v.serif" format="2">
  <advance width="579"/>
  <unicode hex="0076"/>
  <anchor x="290" y="0" name="bottom"/>
  <anchor x="290" y="536" name="top"/>
  <anchor x="569" y="536" name="topright"/>
  <outline>
    <contour>
      <point x="67" y="473" type="curve" smooth="yes"/>
      <point x="239" y="0" type="line"/>
      <point x="318" y="0" type="line"/>
      <point x="472" y="448" type="line" smooth="yes"/>
      <point x="492" y="507"/>
      <point x="510" y="526"/>
      <point x="548" y="526" type="curve" smooth="yes"/>
      <point x="576" y="526" type="line"/>
      <point x="576" y="536" type="line"/>
      <point x="362" y="536" type="line"/>
      <point x="362" y="526" type="line"/>
      <point x="395" y="526" type="line" smooth="yes"/>
      <point x="446" y="526"/>
      <point x="468" y="515"/>
      <point x="468" y="485" type="curve" smooth="yes"/>
      <point x="468" y="472"/>
      <point x="464" y="456"/>
      <point x="457" y="435" type="curve" smooth="yes"/>
      <point x="356" y="143" type="line" smooth="yes"/>
      <point x="340" y="98"/>
      <point x="332" y="74"/>
      <point x="320" y="36" type="curve"/>
      <point x="296" y="111"/>
      <point x="283" y="147"/>
      <point x="257" y="220" type="curve" smooth="yes"/>
      <point x="178" y="441" type="line" smooth="yes"/>
      <point x="171" y="461"/>
      <point x="167" y="476"/>
      <point x="167" y="488" type="curve" smooth="yes"/>
      <point x="167" y="516"/>
      <point x="187" y="526"/>
      <point x="230" y="526" type="curve" smooth="yes"/>
      <point x="254" y="526" type="line"/>
      <point x="254" y="536" type="line"/>
      <point x="4" y="536" type="line"/>
      <point x="4" y="526" type="line"/>
      <point x="37" y="526"/>
      <point x="53" y="513"/>
    </contour>
  </outline>
</glyph>
<glyph name="w" format="2">
  <advance width="743"/>
  <unicode hex="0077"/>
  <anchor x="370" y="0" name="bottom"/>
  <anchor x="372" y="536" name="top"/>
  <anchor x="725" y="536" name="topright"/>
  <outline>
    <contour>
      <point x="409" y="303" type="curve" smooth="yes"/>
      <point x="492" y="1" type="line"/>
      <point x="593" y="1" type="line"/>
      <point x="733" y="537" type="line"/>
      <point x="645" y="537" type="line"/>
      <point x="575" y="251" type="line" smooth="yes"/>
      <point x="560" y="190"/>
      <point x="545" y="125"/>
      <point x="541" y="92" type="curve"/>
      <point x="538" y="92" type="line"/>
      <point x="533" y="130"/>
      <point x="518" y="189"/>
      <point x="505" y="235" type="curve" smooth="yes"/>
      <point x="421" y="537" type="line"/>
      <point x="325" y="537" type="line"/>
      <point x="238" y="235" type="line" smooth="yes"/>
      <point x="225" y="191"/>
      <point x="211" y="124"/>
      <point x="205" y="91" type="curve"/>
      <point x="201" y="91" type="line"/>
      <point x="196" y="129"/>
      <point x="183" y="193"/>
      <point x="169" y="251" type="curve" smooth="yes"/>
      <point x="100" y="537" type="line"/>
      <point x="10" y="537" type="line"/>
      <point x="149" y="1" type="line"/>
      <point x="247" y="1" type="line"/>
      <point x="334" y="302" type="line" smooth="yes"/>
      <point x="350" y="358"/>
      <point x="364" y="415"/>
      <point x="369" y="445" type="curve"/>
      <point x="373" y="445" type="line"/>
      <point x="378" y="415"/>
      <point x="394" y="358"/>
    </contour>
  </outline>
</glyph>
<glyph name="w.serif" format="2">
  <advance width="862"/>
  <unicode hex="0077"/>
  <anchor x="431" y="0" name="bottom"/>
  <anchor x="431" y="536" name="top"/>
  <anchor x="852" y="536" name="topright"/>
  <outline>
    <contour>
      <point x="71" y="473" type="curve" smooth="yes"/>
      <point x="209" y="0" type="line"/>
      <point x="284" y="0" type="line"/>
      <point x="408" y="475" type="line"/>
      <point x="565" y="0" type="line"/>
      <point x="644" y="0" type="line"/>
      <point x="759" y="448" type="line" smooth="yes"/>
      <point x="774" y="507"/>
      <point x="797" y="526"/>
      <point x="835" y="526" type="curve" smooth="yes"/>
      <point x="861" y="526" type="line"/>
      <point x="861" y="536" type="line"/>
      <point x="647" y="536" type="line"/>
      <point x="647" y="526" type="line"/>
      <point x="682" y="526" type="line" smooth="yes"/>
      <point x="735" y="526"/>
      <point x="754" y="516"/>
      <point x="754" y="486" type="curve" smooth="yes"/>
      <point x="754" y="473"/>
      <point x="750" y="456"/>
      <point x="745" y="435" type="curve" smooth="yes"/>
      <point x="681" y="185" type="line" smooth="yes"/>
      <point x="668" y="135"/>
      <point x="656" y="85"/>
      <point x="643" y="35" type="curve"/>
      <point x="641" y="35" type="line"/>
      <point x="624" y="88"/>
      <point x="607" y="138"/>
      <point x="589" y="191" type="curve" smooth="yes"/>
      <point x="476" y="533" type="line"/>
      <point x="412" y="533" type="line"/>
      <point x="324" y="196" type="line" smooth="yes"/>
      <point x="310" y="144"/>
      <point x="298" y="95"/>
      <point x="285" y="44" type="curve"/>
      <point x="283" y="44" type="line"/>
      <point x="269" y="94"/>
      <point x="256" y="143"/>
      <point x="242" y="193" type="curve" smooth="yes"/>
      <point x="174" y="441" type="line" smooth="yes"/>
      <point x="168" y="461"/>
      <point x="165" y="477"/>
      <point x="165" y="489" type="curve" smooth="yes"/>
      <point x="165" y="515"/>
      <point x="180" y="526"/>
      <point x="226" y="526" type="curve" smooth="yes"/>
      <point x="248" y="526" type="line"/>
      <point x="248" y="536" type="line"/>
      <point x="1" y="536" type="line"/>
      <point x="1" y="526" type="line"/>
      <point x="12" y="526" type="line" smooth="yes"/>
      <point x="42" y="526"/>
      <point x="60" y="512"/>
    </contour>
  </outline>
</glyph>
<glyph name="x" format="2">
  <advance width="501"/>
  <unicode hex="0078"/>
  <anchor x="251" y="0" name="bottom"/>
  <anchor x="249" y="536" name="top"/>
  <anchor x="482" y="536" name="topright"/>
  <outline>
    <contour>
      <point x="198" y="274" type="line"/>
      <point x="16" y="0" type="line"/>
      <point x="114" y="0" type="line"/>
      <point x="251" y="214" type="line"/>
      <point x="386" y="0" type="line"/>
      <point x="485" y="0" type="line"/>
      <point x="302" y="274" type="line"/>
      <point x="476" y="536" type="line"/>
      <point x="377" y="536" type="line"/>
      <point x="251" y="334" type="line"/>
      <point x="123" y="536" type="line"/>
      <point x="24" y="536" type="line"/>
    </contour>
  </outline>
</glyph>
<glyph name="x.serif" format="2">
  <advance width="578"/>
  <unicode hex="0078"/>
  <anchor x="289" y="0" name="bottom"/>
  <anchor x="289" y="536" name="top"/>
  <anchor x="558" y="536" name="topright"/>
  <outline>
    <contour>
      <point x="5" y="0" type="line"/>
      <point x="243" y="0" type="line"/>
      <point x="243" y="10" type="line"/>
      <point x="191" y="10" type="line" smooth="yes"/>
      <point x="148" y="10"/>
      <point x="128" y="17"/>
      <point x="128" y="37" type="curve" smooth="yes"/>
      <point x="128" y="51"/>
      <point x="138" y="71"/>
      <point x="159" y="100" type="curve" smooth="yes"/>
      <point x="264" y="247" type="line"/>
      <point x="352" y="112" type="line" smooth="yes"/>
      <point x="375" y="77"/>
      <point x="390" y="52"/>
      <point x="390" y="36" type="curve" smooth="yes"/>
      <point x="390" y="18"/>
      <point x="372" y="10"/>
      <point x="325" y="10" type="curve" smooth="yes"/>
      <point x="315" y="10" type="line"/>
      <point x="315" y="0" type="line"/>
      <point x="573" y="0" type="line"/>
      <point x="573" y="10" type="line"/>
      <point x="565" y="10" type="line" smooth="yes"/>
      <point x="535" y="10"/>
      <point x="517" y="23"/>
      <point x="490" y="64" type="curve" smooth="yes"/>
      <point x="327" y="313" type="line"/>
      <point x="435" y="464" type="line" smooth="yes"/>
      <point x="469" y="511"/>
      <point x="492" y="526"/>
      <point x="532" y="526" type="curve" smooth="yes"/>
      <point x="546" y="526" type="line"/>
      <point x="546" y="536" type="line"/>
      <point x="327" y="536" type="line"/>
      <point x="327" y="526" type="line"/>
      <point x="370" y="526" type="line" smooth="yes"/>
      <point x="413" y="526"/>
      <point x="433" y="519"/>
      <point x="433" y="499" type="curve" smooth="yes"/>
      <point x="433" y="485"/>
      <point x="422" y="464"/>
      <point x="402" y="436" type="curve" smooth="yes"/>
      <point x="321" y="322" type="line"/>
      <point x="237" y="451" type="line" smooth="yes"/>
      <point x="223" y="473"/>
      <point x="214" y="490"/>
      <point x="214" y="502" type="curve" smooth="yes"/>
      <point x="214" y="519"/>
      <point x="231" y="526"/>
      <point x="271" y="526" type="curve" smooth="yes"/>
      <point x="278" y="526" type="line"/>
      <point x="278" y="536" type="line"/>
      <point x="24" y="536" type="line"/>
      <point x="24" y="526" type="line"/>
      <point x="37" y="526" type="line" smooth="yes"/>
      <point x="73" y="526"/>
      <point x="93" y="513"/>
      <point x="119" y="473" type="curve" smooth="yes"/>
      <point x="258" y="257" type="line"/>
      <point x="126" y="72" type="line" smooth="yes"/>
      <point x="92" y="25"/>
      <point x="69" y="10"/>
      <point x="29" y="10" type="curve" smooth="yes"/>
      <point x="5" y="10" type="line"/>
    </contour>
  </outline>
</glyph>
<glyph name="y" format="2">
  <advance width="484"/>
  <unicode hex="0079"/>
  <anchor x="90" y="-240" name="bottom"/>
  <anchor x="242" y="536" name="top"/>
  <anchor x="465" y="536" name="topright"/>
  <outline>
    <contour>
      <point x="1" y="536" type="line"/>
      <point x="204" y="-2" type="line"/>
      <point x="179" y="-73" type="line" smooth="yes"/>
      <point x="159" y="-131"/>
      <point x="125" y="-168"/>
      <point x="68" y="-168" type="curve" smooth="yes"/>
      <point x="46" y="-168"/>
      <point x="25" y="-165"/>
      <point x="12" y="-162" type="curve"/>
      <point x="12" y="-232" type="line"/>
      <point x="28" y="-236"/>
      <point x="51" y="-240"/>
      <point x="81" y="-240" type="curve" smooth="yes"/>
      <point x="179" y="-240"/>
      <point x="231" y="-175"/>
      <point x="267" y="-74" type="curve" smooth="yes"/>
      <point x="484" y="536" type="line"/>
      <point x="389" y="536" type="line"/>
      <point x="288" y="232" type="line" smooth="yes"/>
      <point x="270" y="177"/>
      <point x="254" y="118"/>
      <point x="246" y="85" type="curve"/>
      <point x="243" y="85" type="line"/>
      <point x="236" y="129"/>
      <point x="221" y="177"/>
      <point x="202" y="231" type="curve" smooth="yes"/>
      <point x="95" y="536" type="line"/>
    </contour>
  </outline>
</glyph>
<glyph name="y.serif" format="2">
  <advance width="565"/>
  <unicode hex="0079"/>
  <anchor x="143" y="-240" name="bottom"/>
  <anchor x="283" y="536" name="top"/>
  <anchor x="545" y="536" name="topright"/>
  <outline>
    <contour>
      <point x="38" y="-230" type="curve"/>
      <point x="38" y="-240" type="line"/>
      <point x="47" y="-240" type="line" smooth="yes"/>
      <point x="224" y="-240"/>
      <point x="263" y="-196"/>
      <point x="325" y="-4" type="curve" smooth="yes"/>
      <point x="471" y="448" type="line" smooth="yes"/>
      <point x="492" y="512"/>
      <point x="508" y="526"/>
      <point x="557" y="526" type="curve" smooth="yes"/>
      <point x="565" y="526" type="line"/>
      <point x="565" y="536" type="line"/>
      <point x="357" y="536" type="line"/>
      <point x="357" y="526" type="line"/>
      <point x="399" y="526" type="line" smooth="yes"/>
      <point x="445" y="526"/>
      <point x="465" y="511"/>
      <point x="465" y="480" type="curve" smooth="yes"/>
      <point x="465" y="468"/>
      <point x="462" y="453"/>
      <point x="456" y="435" type="curve" smooth="yes"/>
      <point x="383" y="206" type="line" smooth="yes"/>
      <point x="372" y="172"/>
      <point x="355" y="123"/>
      <point x="338" y="71" type="curve"/>
      <point x="323" y="116"/>
      <point x="298" y="183"/>
      <point x="278" y="232" type="curve" smooth="yes"/>
      <point x="192" y="441" type="line" smooth="yes"/>
      <point x="184" y="460"/>
      <point x="180" y="475"/>
      <point x="180" y="487" type="curve" smooth="yes"/>
      <point x="180" y="516"/>
      <point x="204" y="526"/>
      <point x="241" y="526" type="curve" smooth="yes"/>
      <point x="244" y="526" type="line"/>
      <point x="244" y="536" type="line"/>
      <point x="4" y="536" type="line"/>
      <point x="4" y="526" type="line"/>
      <point x="24" y="526" type="line" smooth="yes"/>
      <point x="49" y="526"/>
      <point x="63" y="514"/>
      <point x="81" y="471" type="curve" smooth="yes"/>
      <point x="300" y="-44" type="line"/>
      <point x="249" y="-175"/>
      <point x="226" y="-230"/>
    </contour>
  </outline>
</glyph>
<glyph name="z" format="2">
  <advance width="443"/>
  <unicode hex="007A"/>
  <anchor x="228" y="0" name="bottom"/>
  <anchor x="222" y="536" name="top"/>
  <anchor x="406" y="536" name="topright"/>
  <outline>
    <contour>
      <point x="407" y="0" type="line"/>
      <point x="407" y="68" type="line"/>
      <point x="136" y="68" type="line"/>
      <point x="401" y="470" type="line"/>
      <point x="401" y="536" type="line"/>
      <point x="52" y="536" type="line"/>
      <point x="52" y="468" type="line"/>
      <point x="304" y="468" type="line"/>
      <point x="36" y="58" type="line"/>
      <point x="36" y="0" type="line"/>
    </contour>
  </outline>
</glyph>
<glyph name="z.serif" format="2">
  <advance width="511"/>
  <unicode hex="007A"/>
  <anchor x="256" y="0" name="bottom"/>
  <anchor x="256" y="536" name="top"/>
  <anchor x="471" y="536" name="topright"/>
  <outline>
    <contour>
      <point x="42" y="0" type="line"/>
      <point x="449" y="0" type="line"/>
      <point x="455" y="162" type="line"/>
      <point x="445" y="162" type="line"/>
      <point x="443" y="138" type="line" smooth="yes"/>
      <point x="435" y="45"/>
      <point x="406" y="15"/>
      <point x="323" y="15" type="curve" smooth="yes"/>
      <point x="147" y="15" type="line"/>
      <point x="449" y="526" type="line"/>
      <point x="449" y="536" type="line"/>
      <point x="66" y="536" type="line"/>
      <point x="56" y="394" type="line"/>
      <point x="66" y="394" type="line"/>
      <point x="68" y="413" type="line" smooth="yes"/>
      <point x="77" y="495"/>
      <point x="106" y="521"/>
      <point x="188" y="521" type="curve" smooth="yes"/>
      <point x="344" y="521" type="line"/>
      <point x="42" y="10" type="line"/>
    </contour>
  </outline>
</glyph>
